<svg width="89" height="88" viewBox="0 0 89 88" fill="none" xmlns="http://www.w3.org/2000/svg">
<path d="M44.0008 12.973C47.5801 12.973 50.4911 10.0633 50.4911 6.48714C50.4911 2.90956 47.5803 0 44.0008 0C40.4232 0 37.5137 2.90971 37.5137 6.48714C37.5137 10.0641 40.4234 12.973 44.0008 12.973ZM44.0008 1.37487C46.8208 1.37487 49.1161 3.66826 49.1161 6.48698C49.1161 9.30571 46.821 11.5978 44.0008 11.5978C41.1819 11.5978 38.8887 9.30571 38.8887 6.48698C38.8887 3.66826 41.1821 1.37487 44.0008 1.37487Z" fill="#757575"/>
<path d="M44.0008 75.026C40.4232 75.026 37.5137 77.9345 37.5137 81.5108C37.5137 85.0901 40.4234 88.0011 44.0008 88.0011C47.5801 88.0011 50.4911 85.0903 50.4911 81.5108C50.4911 77.9357 47.5803 75.026 44.0008 75.026ZM44.0008 86.6259C41.1819 86.6259 38.8887 84.3308 38.8887 81.5106C38.8887 78.693 41.1821 76.4009 44.0008 76.4009C46.8208 76.4009 49.1161 78.693 49.1161 81.5106C49.1161 84.3306 46.821 86.6259 44.0008 86.6259Z" fill="#757575"/>
<path d="M12.973 43.5858C12.973 40.0082 10.0633 37.0986 6.48714 37.0986C2.90956 37.098 0 40.009 0 43.5858C0 47.1651 2.90971 50.0761 6.48714 50.0761C10.0641 50.0754 12.973 47.1646 12.973 43.5858ZM6.48714 48.7004C3.66826 48.7004 1.37503 46.4053 1.37503 43.5851C1.37503 40.7663 3.66841 38.473 6.48714 38.473C9.30586 38.473 11.598 40.7664 11.598 43.5851C11.598 46.4058 9.30586 48.7004 6.48714 48.7004Z" fill="#757575"/>
<path d="M81.5121 37.0972C77.9358 37.0972 75.0273 40.0069 75.0273 43.5844C75.0273 47.1637 77.9358 50.0747 81.5121 50.0747C85.0914 50.0747 88.0024 47.1638 88.0024 43.5844C88.0024 40.008 85.0916 37.0972 81.5121 37.0972ZM81.5121 48.6996C78.6945 48.6996 76.4024 46.4045 76.4024 43.5844C76.4024 40.7655 78.6945 38.4723 81.5121 38.4723C84.3321 38.4723 86.6274 40.7656 86.6274 43.5844C86.6274 46.405 84.3323 48.6996 81.5121 48.6996Z" fill="#757575"/>
<path d="M8.20498 31.0613C8.28478 31.0901 8.36458 31.1037 8.44438 31.1037C8.72368 31.1037 8.98641 30.9318 9.08954 30.6555C12.8684 20.4613 20.8804 12.4502 31.0727 8.67711C31.4287 8.54513 31.6104 8.15041 31.4784 7.79316C31.3465 7.43713 30.953 7.25542 30.5945 7.38741C20.0239 11.3007 11.7166 19.6086 7.7989 30.1783C7.66693 30.5343 7.84863 30.9303 8.20465 31.061L8.20498 31.0613Z" fill="#757575"/>
<path d="M31.0729 78.4942C20.8781 74.7184 12.8644 66.707 9.08665 56.5158C8.95467 56.1597 8.55873 55.9768 8.20271 56.11C7.84668 56.242 7.66497 56.6379 7.79695 56.994C11.7133 67.5626 20.0224 75.8703 30.5925 79.7833C30.6723 79.8121 30.7521 79.8256 30.8319 79.8256C31.1112 79.8256 31.374 79.6537 31.4771 79.3775C31.6097 79.0221 31.4268 78.6261 31.0726 78.4942L31.0729 78.4942Z" fill="#757575"/>
<path d="M79.7955 56.1119C79.4383 55.9769 79.0436 56.1616 78.9116 56.5177C75.1359 66.7094 67.125 74.7199 56.9332 78.4961C56.5771 78.6281 56.3954 79.024 56.5274 79.38C56.6293 79.6563 56.8933 79.8281 57.1726 79.8281C57.2524 79.8281 57.3322 79.8146 57.412 79.7858C67.9807 75.8694 76.2868 67.5635 80.2013 56.9965C80.3326 56.6392 80.1516 56.2433 79.7949 56.1125L79.7955 56.1119Z" fill="#757575"/>
<path d="M56.9331 8.67791C67.1218 12.4526 75.1306 20.4607 78.9052 30.65C79.0071 30.9275 79.2711 31.0982 79.5504 31.0982C79.6302 31.0982 79.71 31.0847 79.7898 31.0558C80.1458 30.9238 80.3275 30.5291 80.1955 30.1719C76.281 19.6063 67.9755 11.3002 57.4109 7.38728C57.0518 7.25531 56.659 7.43701 56.527 7.79303C56.3963 8.15029 56.5761 8.54501 56.9321 8.67698L56.9331 8.67791Z" fill="#757575"/>
<path d="M37.6907 42.2102L32 39.0024V50.7512L43.8763 58.0024L56 50.7512V39.0024L49.5 42.6112L49.567 47.2506L43.6289 50.7512L37.6907 47.2506V42.2102Z" stroke="#00B4DB" stroke-width="1.5"/>
<path opacity="0.4" d="M32 34.931L38.25 31.0024L44 34.931L50.25 31.0024L56 34.931L44 42.0024L32 34.931Z" stroke="#00B4DB" stroke-width="1.5"/>
</svg>
