<svg width="100" height="69" viewBox="0 0 100 69" fill="none" xmlns="http://www.w3.org/2000/svg">
<path d="M59.1163 1C49.1821 1 40.626 6.69856 36.1833 14.9701C33.867 13.6317 31.244 12.7678 28.384 12.7678C19.5872 12.7678 12.431 20.0224 12.431 28.9408C12.431 30.0931 12.6321 31.2058 12.8586 32.2976C5.94719 34.9285 1 41.607 1 49.5175C1 59.7116 9.17694 68 19.2329 68H76.2094C88.7827 68 99 57.6432 99 44.8963C99 35.3211 93.1719 27.2035 84.9697 23.707C83.1137 10.8781 72.2764 1.00144 59.1166 1.00144L59.1163 1Z" stroke="#757575" stroke-width="1.3"/>
<path d="M45.6907 37.2078L40 34V45.7487L51.8763 53L64 45.7487V34L57.5 37.6088L57.567 42.2481L51.6289 45.7487L45.6907 42.2481V37.2078Z" stroke="#00B4DB" stroke-width="1.5"/>
<path opacity="0.4" d="M40 29.9286L46.25 26L52 29.9286L58.25 26L64 29.9286L52 37L40 29.9286Z" stroke="#00B4DB" stroke-width="1.5"/>
</svg>
