<svg width="81" height="67" viewBox="0 0 81 67" fill="none" xmlns="http://www.w3.org/2000/svg">
<path d="M16.7173 0.00244141C15.6743 0.00244141 14.7234 0.343199 14.0469 1.01823C13.3712 1.69326 13.002 2.67213 13.002 3.717V11.1469H7.42932C6.94281 11.1469 6.50034 11.5894 6.50034 12.0759V27.864H0.754204C0.328584 27.945 -0.00764577 28.3596 0.000132267 28.793V47.3674C0.000132267 47.8539 0.442602 48.2964 0.929119 48.2964H24.1472C29.7903 48.2958 34.3628 43.7235 34.3628 38.0802C34.3628 32.4363 29.7905 27.8639 24.1465 27.8639H8.35839V13.004H70.5827C72.4043 13.004 74.0454 12.27 75.2263 11.0592V31.5789C75.2192 32.0693 75.6643 32.5209 76.1553 32.5209C76.6457 32.5209 77.0908 32.0693 77.0843 31.5789V6.50346C77.0843 6.47301 77.085 6.4471 77.0843 6.41665C77.0869 6.37778 77.0869 6.33891 77.0843 6.30069C76.9716 2.81284 74.0971 0.00246418 70.5828 0.00246418L16.7173 0.00244141ZM16.7173 1.85972H70.5832C73.1214 1.85972 75.149 3.84071 75.2268 6.35821C75.2255 6.38736 75.2255 6.41652 75.2268 6.44502V6.50332C75.2268 9.09197 73.1718 11.1469 70.5832 11.1469H14.8599V3.717C14.8599 3.07823 15.0562 2.62087 15.3535 2.32418C15.6502 2.02747 16.0799 1.85972 16.7173 1.85972ZM1.85746 29.7214H24.1468C28.7937 29.7214 32.5049 33.4334 32.5049 38.0795C32.5049 42.7264 28.7929 46.4377 24.1468 46.4377H1.85746V29.7214ZM25.0755 36.2222C24.0603 36.2222 23.2182 37.0651 23.2182 38.0795C23.2182 39.094 24.061 39.9368 25.0755 39.9368C26.0906 39.9368 26.9328 39.094 26.9328 38.0795C26.9328 37.065 26.09 36.2222 25.0755 36.2222ZM76.0391 36.2514C75.5927 36.3078 75.2228 36.7301 75.2267 37.1804L75.2261 38.0802C75.2189 38.5706 75.664 39.0222 76.1551 39.0222C76.6454 39.0222 77.0905 38.5706 77.084 38.0802V37.1804C77.0879 36.653 76.5625 36.186 76.0391 36.2514ZM7.31386 51.9819C6.85715 52.039 6.48271 52.4801 6.50085 52.9394V64.0839C6.50085 64.5704 6.94332 65.0129 7.42984 65.0129H50.151C50.6414 65.02 51.093 64.575 51.093 64.0839C51.093 63.5935 50.6414 63.1485 50.151 63.1549H8.35856V52.9387C8.37929 52.4016 7.84703 51.9139 7.31386 51.9819Z" fill="#757575"/>
<path d="M67.0026 40.8658C65.2392 40.8658 63.5413 41.2189 62.0104 41.8524C61.5148 41.9988 61.2188 42.6143 61.4138 43.093C61.6088 43.5717 62.2501 43.8056 62.7075 43.5646C64.02 43.0218 65.497 42.7238 67.0025 42.7238C73.1685 42.7238 78.147 47.7024 78.147 53.8683C78.147 60.0343 73.1684 65.0127 67.0025 65.0127C60.8364 65.0127 55.858 60.0341 55.858 53.8683C55.858 51.6474 56.4682 49.5842 57.5702 47.8602C57.8364 47.4502 57.7049 46.8347 57.2942 46.5685C56.8841 46.3029 56.2687 46.4344 56.0031 46.8445C54.7061 48.8722 54 51.306 54 53.8683C54 61.0383 59.8324 66.87 67.0018 66.87C74.1718 66.87 80.0035 61.0376 80.0035 53.8683C80.0035 46.6982 74.1712 40.8665 67.0018 40.8665L67.0026 40.8658ZM62.2431 49.1956C61.5396 49.2643 61.1807 50.304 61.6918 50.7918L68.1927 57.2927C68.5645 57.6859 69.2933 57.6413 69.6147 57.2059L72.401 53.4913C72.6938 53.0955 72.6025 52.4697 72.2092 52.1743C71.8154 51.8789 71.1889 51.967 70.8916 52.359L68.7441 55.2035L63.0263 49.4857C62.8294 49.2745 62.5301 49.1632 62.2431 49.1956Z" fill="#00B4DB"/>
</svg>
