<svg width="45" height="27" viewBox="0 0 45 27" fill="none" xmlns="http://www.w3.org/2000/svg">
<path d="M28.955 2.98376H15.8359V23.5437H28.955V2.98376Z" fill="#FF5F00"/>
<path d="M17.1873 13.2662C17.1857 11.2865 17.6534 9.33234 18.5551 7.55165C19.4568 5.77097 20.7688 4.21041 22.3918 2.98808C20.3816 1.47222 17.9675 0.5296 15.4254 0.267947C12.8832 0.00629368 10.3157 0.436166 8.01612 1.50843C5.71656 2.5807 3.7778 4.2521 2.4214 6.33161C1.06501 8.41113 0.345703 10.8148 0.345703 13.2681C0.345703 15.7213 1.06501 18.125 2.4214 20.2045C3.7778 22.284 5.71656 23.9554 8.01612 25.0277C10.3157 26.0999 12.8832 26.5298 15.4254 26.2682C17.9675 26.0065 20.3816 25.0639 22.3918 23.548C20.7683 22.3253 19.456 20.7642 18.5543 18.9828C17.6526 17.2015 17.1851 15.2466 17.1873 13.2662Z" fill="#EB001B"/>
<path d="M43.1362 21.3683V20.947H43.3254V20.8599H42.875V20.947H43.0529V21.3683H43.1362ZM44.0105 21.3683V20.8599H43.8743L43.7153 21.223L43.5563 20.8599H43.4201V21.3683H43.5185V20.9833L43.6661 21.3138H43.7683L43.9159 20.9833V21.3683H44.0105Z" fill="#F79E1B"/>
<path d="M44.4427 13.2656C44.4426 15.719 43.7231 18.1229 42.3665 20.2025C41.0098 22.2821 39.0708 23.9534 36.7709 25.0256C34.4711 26.0977 31.9033 26.5273 29.361 26.2652C26.8187 26.0032 24.4046 25.0601 22.3945 23.5438C24.0169 22.3204 25.3286 20.7594 26.2305 18.9786C27.1324 17.1978 27.601 15.2438 27.601 13.2638C27.601 11.2839 27.1324 9.32982 26.2305 7.54904C25.3286 5.76825 24.0169 4.20727 22.3945 2.98385C24.4046 1.46752 26.8187 0.524442 29.361 0.262413C31.9033 0.000384569 34.4711 0.42998 36.7709 1.5021C39.0708 2.57421 41.0098 4.24558 42.3665 6.32516C43.7231 8.40474 44.4426 10.8086 44.4427 13.262V13.2656Z" fill="#F79E1B"/>
</svg>
