<svg width="45" height="17" viewBox="0 0 45 17" fill="none" xmlns="http://www.w3.org/2000/svg">
<path d="M31.3398 16.5588C33.1285 11.5631 34.8664 6.65369 36.6511 1.76304C36.9573 0.92105 37.3084 0.450361 38.5372 0.529122C39.2648 0.576003 40.004 0.591004 40.7277 0.519745C41.2387 0.469113 41.3713 0.763529 41.4279 1.08045C41.7926 3.12822 42.1125 5.1835 42.4734 7.23127C42.8264 9.23029 43.2185 11.2256 43.5871 13.2227C43.7568 14.1435 43.9206 15.0661 44.0747 15.9906C44.1352 16.3525 44.0923 16.6075 43.5676 16.5719C42.8401 16.5213 42.1067 16.5344 41.3772 16.5682C40.9461 16.5888 40.7335 16.4088 40.7277 16.0393C40.7218 15.6662 40.5502 15.3305 40.5502 14.9498C40.5502 14.3929 40.2985 14.0928 39.5866 14.1472C38.4729 14.2316 37.3474 14.181 36.2278 14.1622C35.9196 14.1566 35.7695 14.211 35.6934 14.5354C35.5568 15.1073 35.2994 15.6549 35.1804 16.2287C35.1219 16.51 35.0322 16.5625 34.7766 16.5607C33.6551 16.555 32.5355 16.5588 31.3398 16.5588ZM38.7401 4.8647C38.1335 6.82059 37.5756 8.66771 36.9807 10.5017C36.8559 10.8861 36.971 10.948 37.3201 10.9405C38.0028 10.9293 38.6855 10.9161 39.3662 10.9443C39.8168 10.963 39.8811 10.8205 39.7992 10.4155C39.4325 8.60396 39.1029 6.78496 38.7401 4.8647Z" fill="#1A1F71"/>
<path d="M9.23616 11.364C9.58335 10.3888 9.88373 9.59372 10.1529 8.78736C11.0443 6.11138 11.9201 3.42977 12.8154 0.753782C12.8856 0.543753 13.0104 0.378731 13.3322 0.386232C14.4499 0.414361 15.5695 0.397483 16.732 0.397483C16.0395 2.39275 15.3783 4.34677 14.6859 6.28953C13.5312 9.52621 12.3414 12.7516 11.2081 15.9958C11.056 16.4309 10.898 16.5959 10.4318 16.5678C9.84862 16.5322 9.26347 16.5603 8.67832 16.5603C7.03794 16.5603 7.0906 16.5509 6.78632 14.9944C6.32015 12.6016 5.77596 10.2238 5.25907 7.84036C4.99771 6.63832 4.61736 5.44941 4.48667 4.23425C4.31698 2.64779 3.2715 1.9727 1.89639 1.52076C1.33855 1.33886 0.784603 1.15134 0.228708 0.961935C0.142885 0.933806 -0.0502155 1.01069 0.0122008 0.828792C0.04731 0.723778 0.0473101 0.530626 0.259916 0.538127C0.42961 0.543753 0.601255 0.536253 0.770949 0.536253C2.52446 0.536253 4.27992 0.536253 6.03343 0.536253C6.85849 0.536253 7.69916 1.21697 7.81619 2.01395C8.16533 4.39365 8.49887 6.77709 8.84801 9.15679C8.94359 9.82625 9.08012 10.4882 9.23616 11.364Z" fill="#1A1F71"/>
<path d="M25.2504 16.8529C23.9826 16.8867 22.7869 16.6354 21.6498 16.1197C21.4372 16.0241 21.3455 15.9003 21.404 15.6303C21.5952 14.7376 21.7259 13.8338 21.9034 12.9374C21.9638 12.6355 22.0672 12.4742 22.4807 12.6992C23.4638 13.2337 24.5424 13.4812 25.6874 13.4756C26.1847 13.4737 26.6392 13.3106 27.0508 13.1324C28.0377 12.7011 28.1196 11.3303 27.2302 10.7115C26.6958 10.3383 26.1477 9.98388 25.5918 9.63696C24.4234 8.90936 23.3916 8.04862 23.0191 6.65905C22.6602 5.32012 22.9157 4.06183 23.5886 2.89355C24.5639 1.19644 26.1535 0.48197 28.1196 0.219435C29.3348 0.0581631 30.429 0.322574 31.5506 0.570108C32.0499 0.680748 32.4205 0.922655 32.1435 1.60712C31.8997 2.21095 31.8763 2.90292 31.8042 3.55926C31.7456 4.07683 31.6598 4.37687 31.0122 4.05058C29.9297 3.50675 28.7594 3.45425 27.6047 3.76554C26.4793 4.06745 26.2335 5.08009 27.0293 5.86582C27.7178 6.54654 28.5936 6.99472 29.3933 7.51792C31.6949 9.02562 31.9934 11.5385 31.0474 13.6106C29.9512 16.0128 27.8076 16.8098 25.2504 16.8529Z" fill="#1A1F71"/>
<path d="M21.7802 0.538296C21.3121 3.19365 20.8635 5.81901 20.3856 8.44061C19.9682 10.7284 19.4981 13.0069 19.0983 15.2965C19.0281 15.6997 19.0924 16.2904 18.8447 16.4573C18.5287 16.6692 17.9631 16.5492 17.5047 16.5567C16.9703 16.5661 16.4319 16.5267 15.8994 16.568C15.4255 16.6055 15.3631 16.3748 15.4235 16.0298C15.6283 14.8615 15.8351 13.6932 16.0535 12.5249C16.3734 10.8222 16.7148 9.1232 17.0249 7.4186C17.4267 5.21893 17.8168 3.01551 18.1874 0.810209C18.2342 0.532671 18.3668 0.534546 18.5697 0.534546C19.6386 0.538297 20.7094 0.538296 21.7802 0.538296Z" fill="#1A1F71"/>
</svg>
