<svg width="48" height="48" viewBox="0 0 48 48" fill="none" xmlns="http://www.w3.org/2000/svg">
<g opacity="0.25">
<path d="M24 0C10.7667 0 0 10.7667 0 24C0 37.2333 10.7667 48 24 48C37.2333 48 48 37.2333 48 24C48 10.7667 37.2333 0 24 0ZM24 46.1533C11.7848 46.1533 1.84667 36.2152 1.84667 24C1.84667 11.7848 11.7848 1.84667 24 1.84667C36.2152 1.84667 46.1533 11.7848 46.1533 24C46.1533 36.2152 36.2152 46.1533 24 46.1533Z" fill="#333333"/>
<path d="M24.0028 26.5573C29.1207 26.5573 32.6002 22.4062 32.6002 17.2868C32.6002 12.1662 29.1207 8.01709 24.0028 8.01709C18.8819 8.01709 15.4023 12.1662 15.4023 17.2868C15.4023 22.4062 18.8819 26.5573 24.0028 26.5573Z" fill="#333333"/>
<path d="M30.9449 25.9487C29.1094 27.5972 26.7061 28.5715 24.0011 28.5715C21.295 28.5715 18.8903 27.5972 17.0544 25.9487C12.6879 28.3363 9.67341 32.8691 9.44531 38.1401C13.138 41.9396 18.2965 44.3075 23.9996 44.3075C29.7026 44.3075 34.8615 41.9396 38.5558 38.1405C38.3274 32.8693 35.3114 28.3367 30.9449 25.9481V25.9487Z" fill="#333333"/>
</g>
</svg>
