<svg width="1445" height="749" viewBox="0 0 1445 749" fill="none" xmlns="http://www.w3.org/2000/svg">
<path d="M405.721 674.417C404.148 672.843 406.353 668.248 409.016 667.551C412.264 666.701 415.369 669.986 414.2 673.036C413.398 675.129 407.407 676.105 405.721 674.417ZM396.521 661.472C395.995 659.372 394.075 657.087 392.255 656.395C389.264 655.256 388.961 654.26 389.101 646.012C389.186 640.995 388.746 633.883 388.123 630.209C387.269 625.177 387.558 622.427 389.292 619.07C392.262 613.32 392.291 603.827 389.345 601.379C386.517 599.03 387.033 592.078 390.468 586.259C391.877 583.872 393.036 580.943 393.044 579.75C393.051 578.556 394.028 575.719 395.213 573.444C397.371 569.301 400.985 557.459 403.014 547.885C404.28 541.908 403.873 523.645 402.179 510.429C401.041 501.557 400.698 500.938 394.486 496.571C386.589 491.019 375.7 476.008 375.701 470.672C375.701 469.8 373.262 467.036 370.282 464.531C365.403 460.429 364.877 459.312 365.002 453.318C365.083 449.406 366.098 445.602 367.462 444.093C368.738 442.681 370.211 438.845 370.734 435.568C371.397 431.419 372.897 428.715 375.678 426.657C380.056 423.417 380.193 419.737 376.264 410.946C374.204 406.338 374.192 406.333 369.15 408.443C364.239 410.497 363.982 410.437 359.928 406.285C357.634 403.936 355.368 402.404 354.892 402.881C354.415 403.358 354.025 402.723 354.025 401.47C354.025 400.217 351.131 397.359 347.594 395.119C344.057 392.878 340.385 389.59 339.434 387.812C337.182 383.6 326.668 378.704 320.381 378.941C315.102 379.14 290.445 368.163 290.445 365.614C290.445 364.841 289.633 364.194 288.639 364.177C286.566 364.142 279.758 354.925 278.269 350.137C277.717 348.365 275.072 344.285 272.39 341.071C269.707 337.857 266.435 332.797 265.117 329.827C262.399 323.699 256.614 318.729 253.564 319.901C251.8 320.578 251.797 321.488 253.54 326.434C255.469 331.905 259.7 339.512 261.679 341.063C263.306 342.339 264.677 348.296 263.343 348.296C260.297 348.296 249.996 333.155 247.769 325.406C246.472 320.889 243.717 315.404 241.647 313.216C239.578 311.028 238.428 309.238 239.092 309.238C240.185 309.238 236.294 305.29 228.901 298.897C225.114 295.622 220.477 289.724 219.815 287.342C218.589 282.925 217.091 261.968 217.752 258.483C218.143 256.425 217.833 252.459 217.063 249.67C216.026 245.91 216.197 243.329 217.724 239.692C220.631 232.772 219.402 229.824 210.349 222C202.462 215.183 200.554 212.172 195.746 198.957C194.375 195.189 192.363 191.366 191.274 190.462C190.186 189.557 189.295 188.232 189.295 187.517C189.295 186.802 187.583 183.627 185.491 180.461C182.598 176.085 180.74 174.706 177.738 174.706C175.567 174.706 172.137 173.404 170.116 171.813C168.095 170.221 165.179 168.919 163.634 168.919C159.726 168.919 152.337 166.44 143.494 162.16C139.364 160.162 135.4 158.889 134.684 159.332C133.969 159.775 133.324 162.212 133.252 164.748C133.134 168.92 131.135 171.731 128.244 171.79C126.526 171.826 126.973 168.275 129.427 162.396C132.233 155.673 130.302 152.756 125.937 157.125C121.306 161.761 118.694 167.885 119.514 172.182C120.076 175.125 119.587 176.375 117.572 177.145C116.09 177.71 111.439 180.973 107.235 184.396C103.032 187.818 98.6971 190.618 97.6021 190.618C96.5071 190.618 95.3375 191.432 95.0028 192.426C94.6682 193.421 93.9168 191.7 93.333 188.602C92.7492 185.504 91.3432 182.04 90.2085 180.904C89.0738 179.768 88.1454 177.339 88.1454 175.507C88.1454 167.606 86.2579 162.978 82.1722 160.863C79.8003 159.635 78.0304 157.535 78.0304 155.948C78.0304 154.425 77.4039 152.79 76.6381 152.316C74.9888 151.296 80.1015 145.784 82.7267 145.752C83.7201 145.741 87.1339 144.829 90.3129 143.726C95.3723 141.972 96.1469 141.106 96.5256 136.781C96.9025 132.477 96.3418 131.508 92.17 129.259C89.5364 127.84 85.7654 126.909 83.7898 127.192C78.9298 127.887 73.2844 122.699 73.9295 118.131C74.3334 115.271 75.1359 114.749 78.5682 115.117C80.8509 115.361 84.3435 116.627 86.3297 117.929C89.6858 120.131 90.0672 120.125 91.7312 117.847C92.7159 116.499 94.2627 115.396 95.1685 115.396C96.0743 115.396 96.8154 113.768 96.8154 111.779C96.8154 108.886 96.0929 108.163 93.2029 108.163C91.2161 108.163 89.5904 107.541 89.5904 106.782C89.5904 104.536 82.2975 97.908 80.8271 98.8178C80.0837 99.2778 79.4665 98.802 79.4557 97.7605C79.4449 96.719 79.0632 94.4762 78.6076 92.7764C77.9191 90.2079 78.9429 89.1083 84.6684 86.2667C88.4575 84.3862 92.5331 81.1567 93.7253 79.0899C94.9176 77.0232 98.7199 73.8309 102.175 71.996C107.629 69.0994 108.915 68.9051 111.931 70.5212C113.842 71.545 116.516 71.9559 117.874 71.4343C119.232 70.9128 121.831 71.4623 123.65 72.6553C125.469 73.8485 129.766 75.2205 133.2 75.7044C136.634 76.1882 141.719 77.3925 144.5 78.3806C147.282 79.3686 152.083 79.9464 155.17 79.6645C158.811 79.332 162.11 80.0351 164.562 81.6665C166.642 83.0495 169.318 84.3339 170.51 84.5208C171.703 84.7076 174.11 86.5232 175.86 88.5554C180.056 93.4276 183.738 93.2211 188.17 87.8651C192.176 83.024 199.467 80.2739 204.766 81.6052C207.845 82.3789 208.127 82.0692 207.499 78.6028C207.023 75.9741 207.514 74.4636 209.031 73.8805C211.6 72.8935 213.565 75.3382 214.809 81.0695C215.865 85.938 217.4 87.0533 220.587 85.2681C222.969 83.9336 229.578 85.7858 236.258 89.6597C237.847 90.5815 241.424 91.7131 244.205 92.1742C248.064 92.8139 249.375 93.7981 249.735 96.326C250.026 98.3708 251.686 100.167 254.07 101.018C256.195 101.776 259.659 103.368 261.768 104.556C267.577 107.827 269.656 107.243 274.738 100.912C279.025 95.5717 279.809 95.1828 284.56 96.038C287.4 96.5492 290.505 97.5873 291.46 98.3449C292.415 99.1025 294.423 99.3329 295.921 98.8568C297.59 98.3263 300.698 99.386 303.948 101.594C309.091 105.088 309.304 105.113 310.975 102.434C312.219 100.439 313.763 99.8846 316.531 100.439C321.483 101.43 326.57 95.3869 326.57 88.5125C326.57 84.7332 325.5 82.9005 321.513 79.8564C316.283 75.8628 314.732 69.9626 318.041 66.6495C320.849 63.8387 327.57 68.8989 327.713 73.9313C327.78 76.293 328.431 78.6143 329.161 79.0899C329.89 79.5654 331.268 82.3552 332.224 85.2894C333.396 88.8898 334.951 90.771 337.008 91.0757C338.983 91.3683 340.624 93.2273 341.673 96.3589C344.237 104.02 347.734 105.029 352.732 99.5507C355.033 97.0286 356.915 93.8118 356.915 92.4023C356.915 88.9034 358.006 88.0887 361.474 88.9966C363.834 89.6145 364.258 90.5783 363.605 93.8462C363.157 96.0893 363.41 98.3081 364.168 98.7769C365.648 99.6929 365.339 104.552 363.696 106.197C363.146 106.748 362.695 108.717 362.695 110.574C362.695 113.303 361.924 113.949 358.666 113.949C356.45 113.949 352.061 115.273 348.912 116.891C345.764 118.509 341.882 119.513 340.286 119.121C336.588 118.214 332.546 120.536 334.53 122.428C335.318 123.18 337.21 124.02 338.733 124.297C340.257 124.573 341.753 125.548 342.057 126.464C342.671 128.308 334.768 132.755 330.878 132.755C323.804 132.755 317.283 143.48 315.721 157.686C315.219 162.248 314.203 166.355 313.464 166.812C311.755 167.87 311.77 171.911 313.494 174.639C314.621 176.423 315.369 176.449 318.432 174.808C323.878 171.89 326.57 173.675 326.57 180.206C326.57 186.696 327.676 188.361 330.454 186.053C333.516 183.509 339.149 186.795 341.538 192.52C343.319 196.787 344.409 197.526 350.064 198.302C360.055 199.673 364.515 202.151 363.42 205.722C362.918 207.36 362.225 209.677 361.881 210.87C361.512 212.149 363.476 214.713 366.665 217.113L372.074 221.186L375.332 217.394C377.656 214.69 378.59 211.759 378.59 207.173C378.59 203.637 378.648 200.582 378.719 200.383C380.605 195.052 380.791 186.373 379.137 180.872C377.576 175.679 377.473 172.164 378.664 164.707C381.245 148.536 381.271 148.464 384.045 149.847C385.416 150.53 390.277 151.893 394.847 152.875C399.959 153.974 403.156 155.41 403.156 156.607C403.156 157.677 403.848 158.783 404.694 159.066C405.54 159.348 406.599 162.319 407.048 165.668C407.76 170.987 408.665 172.227 414.2 175.474C421.166 179.561 423.386 179.201 423.386 173.982C423.386 169.269 425.77 168.153 426.828 172.371C427.301 174.259 430.296 180.101 433.484 185.354C436.672 190.608 439.281 195.289 439.281 195.758C439.281 197.104 442.618 199.822 447.28 202.274C451.076 204.27 451.555 205.263 451.492 211.002C451.392 220.072 445.475 226.783 437.577 226.783C434.519 226.783 430.823 226.037 429.364 225.125C423.871 221.691 411.825 228.425 411.825 234.929C411.825 237.088 412.436 238.148 413.353 237.581C414.193 237.062 416.333 237.002 418.109 237.448C420.445 238.035 421.323 239.306 421.279 242.038C421.229 245.149 422.209 246.162 426.818 247.764C435.055 250.629 435.789 251.912 432.135 257.05C430.085 259.931 427.729 261.501 425.455 261.501C421.386 261.501 421.112 260.436 424.087 256.183C425.997 253.453 425.985 253.019 423.978 252.248C420.105 250.761 409.263 258.206 397.881 270.17C394.202 274.037 390.526 276.959 388.234 277.84C386.813 278.386 385.777 280.428 385.723 282.793C385.461 294.218 384.717 296.072 377.895 302.288C368.547 310.804 366.591 315.023 367.676 324.321C368.252 329.266 367.88 333.469 366.594 336.532C364.651 341.156 364.6 341.176 361.379 338.565C358.45 336.19 358.309 335.525 359.967 331.882C361.088 329.419 361.276 327.453 360.446 326.855C359.696 326.315 358.367 324.572 357.492 322.981C355.209 318.831 346.015 318.259 341.939 322.014C339.353 324.396 337.168 324.786 328.46 324.418C316.303 323.904 310.04 326.467 306.07 333.58C301.524 341.728 304.58 360.747 310.693 362.347C312.273 362.761 313.565 363.644 313.565 364.309C313.565 365.783 321.869 368.204 325.852 367.89C327.439 367.765 331.464 365.847 334.796 363.629C338.128 361.41 341.541 360.02 342.382 360.54C344.612 361.92 344.25 366.465 341.743 368.548C336.568 372.848 340.354 378.674 348.323 378.674C355.956 378.674 361.706 384.277 360.82 390.854C360.459 393.535 359.774 396.361 359.296 397.134C357.767 399.611 363.62 403.626 367.134 402.51C368.894 401.951 372.739 402.288 375.678 403.259C380.169 404.743 381.737 404.654 385.5 402.706C387.963 401.431 391.133 398.432 392.543 396.041C393.954 393.65 395.615 391.693 396.233 391.693C397.852 391.693 396.837 396.813 394.709 399.38C393.475 400.869 393.385 401.862 394.428 402.507C396.501 403.79 402.062 401.891 403.999 399.24C405.239 397.542 407.093 397.322 412.674 398.21C416.579 398.831 422.397 399.206 425.605 399.043C432.23 398.706 437.984 402.346 441.458 409.072C443.094 412.239 445.479 413.724 451.905 415.574C461.58 418.361 467.461 423.258 471.264 431.697C473.085 435.736 475.318 438.175 478.076 439.137C480.333 439.925 484.522 442.628 487.385 445.145C492.353 449.512 492.849 449.642 498.308 448.005C506.393 445.58 513.297 447.26 517.849 452.76C519.937 455.283 521.645 457.994 521.645 458.784C521.645 459.574 523.06 461.727 524.789 463.569C527.806 466.784 527.845 467.195 525.761 473.789C523.94 479.552 523.063 480.599 520.317 480.29C518.072 480.038 516.805 480.833 516.286 482.822C515.869 484.417 514.846 485.721 514.011 485.721C513.177 485.721 512.901 486.129 513.4 486.628C513.898 487.127 513.234 489.568 511.925 492.053C510.616 494.538 509.069 500.465 508.488 505.223C507.316 514.824 502.822 520.44 496.311 520.44C494.147 520.44 491.882 521.86 490.375 524.163C488.806 526.56 487.017 527.645 485.351 527.209C479.991 525.806 478.626 528.604 474.764 548.916C473.911 553.4 471.228 558.051 469.495 558.051C468.684 558.051 466.669 561.306 465.018 565.284C463.366 569.262 461.153 572.517 460.099 572.517C459.045 572.517 456.514 570.727 454.475 568.539C451.342 565.176 450.548 564.896 449.344 566.73C448.561 567.924 448.236 571.179 448.623 573.963C449.063 577.134 448.389 580.919 446.818 584.089C444.789 588.187 443.487 589.152 439.989 589.152C435.414 589.152 433.174 590.569 431.738 594.371C431.254 595.651 428.778 597.114 426.235 597.623C421.652 598.541 421.62 598.607 422.6 605.152C423.743 612.78 422.42 615.07 415.099 618.132C410.584 620.021 410.27 620.558 411.128 624.92C411.641 627.525 412.405 631.438 412.827 633.616C413.342 636.28 412.296 640.058 409.631 645.161C407.452 649.333 404.913 655.359 403.99 658.553C401.968 665.543 397.937 667.119 396.521 661.472ZM330.185 267.287C330.454 267.287 331.753 264.032 333.073 260.054C334.393 256.076 335.941 252.821 336.513 252.821C338.646 252.821 341.02 256.403 341.02 259.62C341.02 261.45 341.713 262.947 342.56 262.947C345.443 262.947 349.69 259.959 349.69 257.931C349.69 256.819 350.991 255.496 352.58 254.991C357.732 253.354 355.659 250.175 346.865 246.224C340.618 243.418 337.912 241.315 336.993 238.555C335.971 235.488 334.77 234.722 330.787 234.599C328.071 234.515 324.181 233.984 322.144 233.419C317.161 232.036 310.38 237.117 313.279 240.061C314.314 241.112 317.565 241.972 320.504 241.972C324.896 241.972 325.928 242.534 326.297 245.129C326.544 246.865 325.731 250.25 324.491 252.652C323.25 255.053 322.235 258.395 322.235 260.078C322.235 264.795 325.047 269.073 327.522 268.123C328.718 267.663 329.917 267.287 330.185 267.287ZM298.492 216.845C297.963 213.161 297.4 208.389 297.239 206.24C296.793 200.253 294.409 198.625 289.521 200.97C284.496 203.381 283.416 207.313 287.485 208.378C290.341 209.126 291.255 212.109 290.649 218.706C290.509 220.231 291.834 223.013 293.594 224.889C296.447 227.929 296.938 228.041 298.123 225.921C298.854 224.614 299.02 220.53 298.492 216.845ZM253.624 170.207C264.309 161.382 265.097 159.62 259.017 158.139C256.831 157.607 253.994 155.815 252.712 154.158C249.024 149.388 246.618 152.186 247.635 160.064C248.561 167.236 247.825 169.318 243.844 170.788C240.547 172.006 240.567 176.152 243.871 176.152C245.276 176.152 249.665 173.477 253.624 170.207H253.624ZM230.212 133.985C231.948 133.07 233.856 131.605 234.452 130.73C235.199 129.633 235.966 129.809 236.92 131.296C238.512 133.776 240.551 132.322 243.325 126.729C244.247 124.871 246.447 123.144 248.215 122.89C250.183 122.607 251.43 121.413 251.43 119.812C251.43 116.44 249.035 114.525 242.807 112.915C238.695 111.852 236.623 112.24 231.247 115.08C219.504 121.285 215.171 127.514 223.03 126.894C228.343 126.475 228.712 126.863 226.384 130.419C223.183 135.311 224.813 136.83 230.212 133.985ZM1290.06 657.547C1286.37 653 1288.65 649.024 1300.84 638.698C1305.47 634.781 1308.79 635.413 1308.46 640.144C1308.04 646.063 1307.81 646.863 1306.83 645.879C1306.34 645.387 1304.99 645.929 1303.84 647.085C1302.68 648.24 1300.45 649.186 1298.87 649.186C1297.29 649.186 1296.38 649.807 1296.85 650.566C1298.08 652.566 1296.21 658.987 1294.16 659.774C1293.2 660.143 1291.35 659.141 1290.06 657.547ZM1302.66 644.862C1303.16 644.042 1302.58 643.8 1301.3 644.294C1298.79 645.256 1298.34 646.292 1300.42 646.292C1301.16 646.292 1302.17 645.649 1302.66 644.862ZM1203.48 638.486C1201.01 637.239 1200.21 635.793 1200.58 633.212C1200.85 631.257 1201.18 629.556 1201.3 629.433C1201.76 628.958 1206 628.598 1209.19 628.762C1212.13 628.913 1212.48 629.57 1212.08 634.228C1211.58 640.114 1209.12 641.332 1203.48 638.486ZM1316.69 623.69C1315.67 622.596 1315.27 621.701 1315.79 621.701C1316.32 621.701 1315.99 620.782 1315.06 619.659C1313.85 618.198 1313.81 617.34 1314.95 616.64C1315.82 616.101 1316.23 613.779 1315.87 611.479C1315.22 607.316 1315.23 607.309 1318.65 609.798C1320.54 611.173 1322.11 613.376 1322.13 614.694C1322.16 616.37 1323.04 616.863 1325.07 616.333C1328.9 615.33 1328.74 618.018 1324.74 622.025C1320.83 625.936 1319.12 626.291 1316.69 623.69ZM1200.8 612.189C1197.07 610.895 1195.22 610.857 1193.77 612.042C1191.74 613.695 1189.72 611.901 1182.87 602.338C1181.36 600.226 1178.57 598.108 1176.67 597.631C1174.64 597.121 1173.31 595.792 1173.45 594.405C1174.35 585.09 1171.08 582.865 1164.67 588.429C1160.39 592.149 1159.1 592.073 1157.56 588.008C1155.42 582.368 1151.84 580.518 1143.16 580.564C1137.4 580.594 1132.43 581.796 1126.04 584.704C1118.58 588.1 1115.73 588.67 1109.42 588.033C1105.24 587.61 1099.07 587.982 1095.72 588.858C1092.37 589.734 1089.19 590.014 1088.65 589.481C1088.12 588.948 1087.5 585.848 1087.26 582.593C1087.03 579.338 1086.1 575.773 1085.18 574.671C1084.27 573.57 1083.19 570.518 1082.79 567.891C1082.39 565.264 1080.9 561.812 1079.49 560.221C1077.53 558.012 1077.2 556.321 1078.11 553.074C1078.87 550.402 1078.73 548.123 1077.76 546.944C1076.89 545.896 1076.69 543.943 1077.32 542.518C1077.93 541.116 1078.33 539.495 1078.21 538.915C1077.86 537.249 1085.95 533.551 1091.98 532.618C1105.5 530.526 1107.4 529.763 1109.79 525.457C1111.09 523.095 1113.31 520.94 1114.71 520.668C1116.12 520.396 1119.08 518.14 1121.3 515.655C1124.66 511.892 1125.7 511.439 1127.51 512.949C1132.15 516.799 1135.5 516.032 1142.57 509.51C1146.38 505.991 1150.64 503.104 1152.03 503.096C1153.42 503.087 1154.56 502.487 1154.56 501.762C1154.56 500.341 1156.27 500.45 1161.48 502.201C1164.39 503.18 1164.74 504.128 1164.37 510.068C1163.95 516.786 1163.98 516.84 1170.45 519.88C1181.36 525.011 1184.77 525.375 1186.2 521.56C1186.87 519.751 1186.88 517.918 1186.21 517.488C1184.6 516.461 1186.76 508.486 1188.83 507.797C1189.71 507.502 1190.85 508.582 1191.37 510.196C1191.88 511.811 1194.37 514.582 1196.91 516.354C1202.89 520.534 1203.64 521.719 1203.66 527.037C1203.68 530.402 1205.22 532.887 1210.08 537.39C1213.6 540.649 1216.78 543.018 1217.14 542.653C1218.07 541.719 1226.8 552.553 1226.8 554.643C1226.8 555.589 1227.56 556.614 1228.48 556.921C1230.91 557.732 1232.2 569.406 1230.6 576.133C1229.84 579.316 1227.7 584.186 1225.85 586.957C1223.99 589.727 1222.47 593.485 1222.47 595.307C1222.47 598.588 1212.55 610.708 1208.11 612.854C1206.87 613.454 1203.58 613.155 1200.79 612.189H1200.8ZM726.696 577.412C723.976 574.13 719.589 561.878 717.175 550.818C716.741 548.829 715.585 546.55 714.608 545.755C711.617 543.322 708.491 535.959 707.649 529.368C707.21 525.925 705.863 522.016 704.657 520.682C700.797 516.412 700.274 504.905 703.427 493.585C705.892 484.732 706.022 482.7 704.396 478.395C703.363 475.662 700.807 468.918 698.715 463.41C696.623 457.901 693.863 452.627 692.582 451.689C690.684 450.299 690.426 448.337 691.187 441.052L692.119 432.118L687.903 431.274C685.583 430.81 682.367 429.2 680.756 427.697C679.145 426.195 677.218 424.965 676.475 424.965C675.732 424.965 674.75 423.989 674.293 422.795C673.204 419.956 666.227 420.006 662.124 422.883C658.697 425.286 652.136 424.892 643.458 421.763C639.942 420.495 637.934 420.506 635.081 421.807C627.795 425.13 623.171 423.97 616.304 417.096C612.776 413.564 609.511 409.17 609.049 407.332C608.586 405.494 605.984 402.532 603.265 400.751C596.069 396.038 593.964 391.085 595.418 382.291C596.075 378.313 596.652 371.282 596.699 366.668C596.799 356.955 599.245 351.337 606.902 343.233C609.91 340.05 612.809 335.982 613.345 334.192C613.881 332.402 614.91 330.937 615.631 330.937C618.448 330.937 626.037 321.138 629.074 313.578C632.516 305.009 632.104 305.184 644.218 307.175C649.211 307.995 651.567 307.584 655.929 305.129C660.39 302.62 664.241 301.986 676.962 301.669C691.695 301.303 692.597 301.448 693.677 304.355C694.392 306.281 694.051 308.909 692.764 311.392C689.639 317.422 690.088 317.918 698.678 317.918C703.059 317.918 707.774 318.474 709.154 319.154C710.534 319.834 714.731 321.373 718.48 322.574C724.861 324.619 725.453 324.586 727.735 322.061C730.437 319.073 732.843 318.701 736.609 320.689C743.562 324.361 750.052 326.551 755.835 327.178C759.356 327.559 764.031 328.312 766.223 328.852C768.415 329.391 772 329.089 774.191 328.18C780.895 325.401 787.032 310.534 783.53 305.561C781.715 302.985 771.247 300.536 763.683 300.917C756.632 301.273 756.446 301.178 755.969 296.942C755.7 294.555 754.876 291.871 754.138 290.978C751.546 287.84 754.45 285.254 765.159 281.161C775.23 277.311 776.483 277.147 783.552 278.754C797.237 281.863 799.008 282.086 802.679 281.164C808.297 279.752 807.159 275.317 799.085 267.149C795.112 263.129 791.86 258.655 791.86 257.208C791.86 254.598 789.179 252.821 785.24 252.821C783.916 252.821 783.19 254.393 783.19 257.262C783.19 261.039 782.705 261.633 779.939 261.24C777.82 260.939 776.523 259.614 776.215 257.434C775.954 255.595 774.811 253.734 773.675 253.297C770.547 252.096 764.888 256.486 763.758 260.991C763.207 263.19 761.502 265.868 759.969 266.943C758.303 268.111 757.18 270.589 757.18 273.099C757.18 278.313 752.23 283.2 746.948 283.2C742.842 283.2 741.285 285.395 741.285 291.189C741.285 296.28 739.153 296.67 734.187 292.487C731.248 290.011 728.969 286.104 727.486 280.997C725.474 274.067 724.56 272.929 718.737 270.107C715.161 268.374 711.219 265.404 709.977 263.505C707.119 259.139 702.27 258.875 702.27 263.086C702.27 267.92 707.471 273.929 714.531 277.251C721.51 280.535 722.282 281.826 718.934 284.608C717.767 285.577 716.869 286.796 716.938 287.316C717.666 292.834 713.14 293.64 711.785 288.234C711.282 286.229 709.423 282.874 707.654 280.779C703.878 276.307 690.462 262.947 689.747 262.947C689.476 262.947 686.828 264.249 683.863 265.841C680.897 267.432 676.385 268.734 673.835 268.734C669.17 268.734 664.7 272.834 664.7 277.115C664.7 279.046 661.189 283.351 659.695 283.251C659.269 283.223 658.283 283.2 657.505 283.2C656.726 283.2 654.688 285.966 652.976 289.348C649.718 295.78 647.559 297.959 645.626 296.763C644.994 296.372 642.636 297.14 640.386 298.471C636.599 300.71 635.96 300.716 631.756 298.539C626.225 295.676 624.383 292.491 624.498 285.985C624.545 283.26 624.285 279.362 623.919 277.324C623.552 275.286 623.81 272.11 624.492 270.266C625.612 267.235 626.319 267.01 631.849 267.926C647.849 270.575 647.093 270.786 648.202 263.378C649.355 255.685 646.601 249.502 641.684 248.743C640.037 248.488 638.69 247.449 638.69 246.432C638.69 243.576 643.796 238.356 646.589 238.356C651.917 238.356 659.01 233.372 673.14 219.703C687.072 206.226 687.82 205.198 687.82 199.552C687.82 191.113 691.526 193.016 692.726 202.072L693.645 209.01L703.132 209.897C710.501 210.585 713.404 210.269 716.132 208.48C718.377 207.007 721.181 206.484 723.906 207.029C728.768 208.003 729.761 206.963 731.979 198.577C733.475 192.922 733.659 192.788 739.927 192.788C746.203 192.788 746.353 192.678 746.822 187.731C747.437 181.243 749.019 179.443 755.924 177.371C764.102 174.919 765.874 172.21 761.474 168.888C756.58 165.193 751.597 164.526 745.244 166.717C738.616 169.003 738.04 168.3 737.434 157.188C737.056 150.248 737.689 147.556 741.321 140.643C746.527 130.736 747.518 123.708 743.816 122.941C739.947 122.139 732.81 131.006 734.77 134.181C735.62 135.558 724.591 147.221 722.438 147.221C720.99 147.221 718.128 155.864 718.602 158.803C718.796 160.002 720.077 162.588 721.45 164.55C724.145 168.402 724.793 175.457 722.578 176.828C721.825 177.293 719.074 181.563 716.464 186.316C713.854 191.069 710.994 194.958 710.108 194.958C707.72 194.958 703.715 190.043 703.715 187.111C703.715 183.58 699.146 176.152 696.973 176.152C695.992 176.152 694.669 176.966 694.034 177.961C693.398 178.955 691.771 180.637 690.418 181.697C688.281 183.372 687.378 183.032 683.554 179.116C681.132 176.635 679.15 173.131 679.15 171.329C679.15 169.526 678.396 167.296 677.474 166.373C676.552 165.45 675.918 161.313 676.064 157.177C676.35 149.084 677.244 147.882 686.737 142.819C692.121 139.947 697.914 132.448 700.099 125.522C700.727 123.533 702.447 121.055 703.923 120.015C705.398 118.976 706.605 116.894 706.605 115.389C706.605 113.884 709.722 108.876 713.531 104.26C717.341 99.6437 721.594 93.4346 722.982 90.4617C725.736 84.5682 730.113 81.4085 733.644 82.7651C734.881 83.2401 739.219 81.7782 743.285 79.5166C748.843 76.4254 752.74 75.3685 758.987 75.2591C768.393 75.0944 769.748 77.1544 764.154 83.116L761.012 86.4641H766.216C770.047 86.4641 772.171 87.4189 774.262 90.0806C776.261 92.6238 778.509 93.697 781.84 93.697C784.444 93.697 787.809 94.8143 789.316 96.1798C790.823 97.5454 794.362 99.9865 797.181 101.605C800.646 103.594 802.902 106.313 804.148 110.001C805.829 114.978 805.737 115.634 803.095 117.487C801.502 118.604 799.232 119.146 798.051 118.692C796.87 118.239 795.39 118.7 794.763 119.716C793.173 122.291 785.378 118.765 783.056 114.421C781.562 111.626 777.293 109.659 772.353 109.489C771.558 109.461 770.543 110.942 770.097 112.779C769.474 115.34 770.317 116.892 773.709 119.433C778.575 123.077 780.046 125.793 780.199 131.418C780.309 135.446 785.461 140.96 788.97 140.806C790.163 140.754 791.35 139.211 791.61 137.378C791.896 135.36 793.582 133.474 795.887 132.597C797.98 131.801 801.344 129.307 803.363 127.055C806.671 123.366 811.039 121.94 821.122 121.256C823.227 121.113 822.169 117.258 819.315 114.673C815.843 111.527 815.609 107.74 818.696 104.65C822.048 101.295 823.651 101.87 823.651 106.427C823.651 114.634 831.418 116.791 835.446 109.702C838.718 103.946 856.885 95.2034 856.885 99.3859C856.885 102.558 862.97 102.595 866.321 99.443C868.746 97.1619 870.75 96.4926 873.264 97.1241C876.001 97.812 877.813 96.9714 881.31 93.3907C885.643 88.9536 886.062 88.8334 891.823 90.3729C895.123 91.2547 898.627 91.6674 899.609 91.2899C901.897 90.4112 903.081 85.9279 903.106 78.0512C903.117 74.6175 903.777 70.5884 904.574 69.0978C905.569 67.2379 905.531 66.0829 904.454 65.4168C903.52 64.8388 904.688 63.3488 907.34 61.7338C909.791 60.242 911.795 58.361 911.795 57.5536C911.795 55.2357 919.912 55.8452 921.961 58.317C923.362 60.007 923.405 60.9544 922.138 62.2228C919.722 64.6416 920.099 76.3288 922.757 81.401C926.164 87.9021 926.425 99.729 923.34 107.798C920.953 114.043 920.325 114.634 916.482 114.249C909.96 113.596 907.825 117.144 910.881 123.56C912.751 127.486 913.91 128.447 915.812 127.651C917.179 127.079 920.249 126.183 922.633 125.661C927.915 124.503 936.36 112.79 936.36 106.621C936.36 101.515 939.153 95.1436 941.391 95.1436C942.471 95.1436 943.163 98.6007 943.335 104.844C943.482 110.179 944.211 115.154 944.954 115.898C946.807 117.753 956.591 112.974 956.591 110.214C956.591 109.03 955.613 106.568 954.418 104.742C953.224 102.917 951.989 98.7533 951.675 95.4901C950.941 87.8606 949.984 86.4452 945.796 86.7922C941.314 87.1636 935.188 83.8167 934.106 80.405C931.681 72.7553 931.135 58.8683 933.12 55.3178C934.404 53.0203 934.753 53.1737 936.539 56.8205C937.633 59.0543 939.503 61.3171 940.695 61.849C953.445 67.5368 954.421 68.5289 954.468 75.8416C954.528 85.094 955.657 86.8279 960.255 84.7308C963.069 83.4468 963.82 82.0186 963.835 77.914C963.847 75.0582 964.208 71.408 964.639 69.8025C965.188 67.7553 963.705 64.9646 959.672 60.4594C955.12 55.3745 954.21 53.4951 955.307 51.4441C956.069 50.0189 957.157 48.8045 957.725 48.7454C964.604 48.0294 968.659 45.3905 968.835 41.514C968.856 41.0579 970.499 38.2909 972.485 35.3652C974.785 31.9789 976.87 30.3367 978.221 30.8463C979.389 31.2865 979.949 31.25 979.464 30.7651C978.98 30.2801 981.275 26.8573 984.566 23.1588C996.934 9.25604 995.915 9.87501 1005.17 10.6404C1012.55 11.2512 1014.05 11.9244 1017.59 16.2174C1020.49 19.7398 1022.42 20.8853 1024.54 20.3301C1029.1 19.1368 1031.68 14.4956 1030.28 10.0136C1029.62 7.90435 1028.69 4.38848 1028.21 2.20052C1027.34 -1.76255 1027.37 -1.77759 1035.29 -1.77759C1042.63 -1.77759 1043.31 -1.49435 1044.18 1.97119C1044.98 5.19089 1045.65 5.5761 1048.9 4.7006C1056.01 2.78555 1062.33 3.3754 1063.85 6.09568C1064.64 7.51429 1066.56 9.94867 1068.12 11.5054C1070.74 14.1266 1070.78 14.592 1068.68 17.8009C1067.43 19.7067 1066.41 22.5443 1066.41 24.1067C1066.41 27.4406 1064.4 29.4906 1056.4 34.3162C1053.16 36.2663 1050.52 38.6609 1050.52 39.6376C1050.52 40.6142 1049.57 42.3568 1048.42 43.51C1046.7 45.2302 1046.66 46.06 1048.17 48.1301C1049.9 50.4968 1050.37 50.4301 1055.7 47.0568C1058.83 45.0786 1062.26 42.4133 1063.32 41.134C1065.07 39.0321 1065.76 39.0186 1070.48 40.9933C1073.35 42.1953 1076.05 43.6522 1076.47 44.2309C1076.9 44.8095 1079.36 47.0215 1081.95 49.1465C1085.58 52.1351 1087.71 52.8443 1091.34 52.2785C1093.92 51.8762 1100.05 52.499 1104.95 53.6626C1113.68 55.7313 1113.99 55.7014 1118.97 52.3155C1124.4 48.6229 1127.1 47.9524 1127.1 50.2995C1127.1 51.0951 1128 51.7461 1129.1 51.7461C1132.38 51.7461 1135.57 58.1343 1136.05 65.667L1136.49 72.7215L1144.58 72.2551C1149.14 71.9919 1156.13 72.7971 1160.62 74.1021C1168 76.2496 1174.18 75.9675 1172.68 73.5512C1172.33 72.9808 1172.94 70.7878 1174.03 68.6779C1175.12 66.568 1176.23 63.4264 1176.49 61.6965C1176.74 59.9665 1178.07 57.852 1179.43 56.9974C1181.41 55.7552 1182.76 56.2641 1186.17 59.5354C1190.47 63.6548 1199.99 65.7892 1201.71 63.0157C1202.86 61.1461 1210.89 63.1898 1214.08 66.1643C1215.56 67.5448 1217.04 70.0756 1217.37 71.7883C1218.25 76.3679 1219.13 77.3437 1223.82 78.9807C1227.21 80.1657 1229.15 79.905 1233.52 77.6766C1242.05 73.3212 1246.05 74.4024 1247.26 81.3922C1247.88 85.0044 1253.29 87.9771 1260.59 88.7226C1263.68 89.0376 1268.43 90.6112 1271.15 92.2195C1273.87 93.8278 1276.91 95.1436 1277.9 95.1436C1278.9 95.1436 1281.91 96.771 1284.61 98.7601C1290.78 103.32 1297.61 103.667 1297.61 99.4202C1297.61 97.7943 1299.2 94.7518 1301.13 92.6592L1304.66 88.8546L1312.11 92.7224C1316.2 94.8497 1320.69 96.5902 1322.08 96.5902C1323.48 96.5902 1325.85 97.9588 1327.37 99.6315C1330.06 102.612 1338.07 107.456 1338.07 106.105C1338.07 105.729 1339.94 106.073 1342.23 106.872C1345.47 108.001 1346.57 109.456 1347.22 113.435C1347.67 116.247 1348.75 119.398 1349.61 120.439C1351.26 122.429 1356.86 121.756 1356.86 119.567C1356.86 117.445 1362.27 118.132 1364.7 120.562C1368.04 123.905 1367.49 127.199 1362.73 132.418L1358.49 137.065L1347.61 131.293C1341.62 128.119 1335.75 125.522 1334.55 125.522C1333.35 125.522 1331.4 127.396 1330.21 129.686C1329.03 131.977 1326.99 134.264 1325.67 134.768C1323.7 135.525 1323.39 137.319 1323.88 145.031L1324.47 154.376L1317.55 156.87C1313.73 158.242 1310.62 159.817 1310.62 160.369C1310.62 160.921 1309.02 161.773 1307.08 162.262C1305.13 162.751 1302.68 164.937 1301.64 167.12C1299.96 170.609 1298.92 171.089 1292.98 171.089C1287.14 171.089 1285.65 171.745 1281.86 175.989C1277.99 180.328 1276.89 180.791 1272.25 180.037C1265.37 178.92 1261.48 181.335 1262.29 186.206C1265.15 203.285 1263.18 211.607 1255.27 215.894C1252.73 217.272 1249.67 220.448 1248.48 222.952C1246.03 228.098 1242.53 228.954 1241.69 224.613C1240.39 217.849 1241 207.852 1242.87 205.549C1244.21 203.897 1244.27 203.441 1243.06 204.168C1242.07 204.766 1241.26 204.565 1241.26 203.723C1241.26 202.03 1244.24 198.289 1250.29 192.398C1252.47 190.269 1254.26 187.561 1254.26 186.379C1254.26 185.197 1256.48 181.925 1259.2 179.107C1261.92 176.288 1264.36 172.681 1264.62 171.089C1265.02 168.672 1264.38 168.256 1260.76 168.558C1258.38 168.757 1255.02 168.187 1253.29 167.291C1250.74 165.965 1249.4 166.205 1246.07 168.581C1240.99 172.205 1236.95 176.625 1234.84 180.864C1233.05 184.461 1227.33 185.513 1225.67 182.549C1223.64 178.908 1217.71 177.759 1213.53 180.196C1210.16 182.159 1208.86 182.201 1203.76 180.516C1199.38 179.07 1197.05 178.975 1194.64 180.143C1192.86 181.007 1189.76 182.065 1187.75 182.496C1182.67 183.584 1168.93 201.911 1167.56 209.432C1166.45 215.481 1167.49 217.367 1172.45 218.309C1174.24 218.65 1175.92 221.183 1177.37 225.74C1179.27 231.724 1179.31 234.03 1177.64 242.896C1176.58 248.529 1174.93 253.913 1173.99 254.859C1173.04 255.805 1171.26 258.5 1170.04 260.848C1167.2 266.261 1156.16 277.413 1153.64 277.413C1152.58 277.413 1149.11 278.461 1145.91 279.741C1140.95 281.731 1139.45 283.446 1135.57 291.572C1131.49 300.13 1131.21 301.551 1132.77 305.851C1134.28 310.048 1134.14 311.004 1131.59 313.741L1128.7 316.854L1127.76 313.128C1127.25 311.079 1127.26 308.71 1127.78 307.863C1128.82 306.171 1125.33 302.005 1122.87 302.005C1121.31 302.005 1120.91 300.671 1120.95 295.719C1120.96 293.605 1120.18 293.207 1117.17 293.809C1108.04 295.635 1107.6 295.567 1107.13 292.241C1106.86 290.295 1105.66 288.986 1104.16 288.986C1101.38 288.986 1092.42 297.558 1092.42 300.215C1092.42 302.483 1097.17 304.898 1101.63 304.898C1107.17 304.898 1107.51 307.373 1102.63 312.256C1098.45 316.444 1098.25 317.169 1098.92 325.447C1099.43 331.666 1100.44 334.908 1102.43 336.628C1105.13 338.978 1105.14 339.22 1102.64 344.758C1098.69 353.529 1087.5 365.162 1081.96 366.264C1079.37 366.778 1074.66 368.425 1071.5 369.922C1068.33 371.42 1065.1 372.251 1064.33 371.768C1062.74 370.786 1054.03 371.117 1050.15 372.307C1045.97 373.591 1047.23 387.982 1051.85 391.694C1054.35 393.702 1057.72 400.666 1058 404.422C1058.41 409.836 1054.42 415.975 1049.72 417.156C1046.7 417.915 1044.83 416.857 1038.9 411.031C1034.96 407.158 1031.73 403.133 1031.73 402.085C1031.73 400.865 1030.32 400.345 1027.79 400.639C1023.52 401.134 1019.42 407.102 1021.54 409.719C1022.21 410.546 1023.59 414.013 1024.6 417.423C1025.61 420.834 1027.86 425.157 1029.59 427.029C1034.37 432.192 1039.41 440.902 1038.28 442.037C1037.72 442.592 1035.39 440.767 1033.09 437.983C1030.79 435.199 1027.69 431.619 1026.2 430.028C1020.95 424.415 1019.84 420.474 1017.86 400.314C1016.75 388.965 1013.89 383.85 1009.88 386.002C1006.94 387.579 1004.28 386.734 1004.28 384.222C1004.28 383.39 1002.71 380.848 1000.8 378.575C998.89 376.301 997.067 373.662 996.75 372.709C996.433 371.757 991.982 370.467 986.858 369.842C977.756 368.733 977.449 368.806 973.432 373.036C971.171 375.417 966.81 378.952 963.74 380.892C958.144 384.429 954.948 388.662 954.121 393.635C953.877 395.101 952.708 397.686 951.522 399.382C950.336 401.077 949.365 403.338 949.365 404.408C949.365 407.47 939.549 417.193 938.123 415.544C937.444 414.758 936.023 410.535 934.967 406.159C933.91 401.783 931.516 395.936 929.646 393.166C927.776 390.396 926.245 386.327 926.245 384.125C926.245 381.923 925.608 380.121 924.828 380.121C924.048 380.121 923.001 378.488 922.501 376.492C921.949 374.292 920.231 372.521 918.138 371.995C916.212 371.511 914.685 370.053 914.685 368.698C914.685 366.007 903.732 356.232 898.509 354.261C896.677 353.569 891.639 352.576 887.315 352.054C876.684 350.771 873 349.804 866.697 346.644C863.748 345.166 859.641 343.956 857.571 343.956C851.617 343.956 848.235 341.348 845.301 334.497C842.532 328.029 840.978 327.095 831.598 326.26C826.552 325.811 826.445 327.869 831.019 337.357C832.53 340.49 833.766 344.233 833.766 345.675C833.766 347.623 834.879 348.296 838.1 348.296C841.727 348.296 842.435 348.87 842.435 351.809C842.435 358.909 850.932 362.706 853.995 356.975C855.761 353.674 861.22 353.038 861.22 356.134C861.22 357.263 863.496 359.594 866.278 361.315C869.06 363.036 871.318 365.205 871.296 366.135C871.227 369.144 861.231 378.721 855.001 381.748C851.666 383.368 847.963 385.191 846.771 385.8C845.578 386.409 841.027 387.705 836.655 388.681C832.284 389.656 827.35 391.112 825.691 391.916C824.032 392.72 820.804 393.161 818.518 392.897C815.107 392.503 814.184 391.547 813.379 387.572C812.839 384.907 810.11 380.35 807.315 377.446C804.52 374.541 801.215 369.886 799.971 367.102C798.727 364.317 794.242 355.529 790.005 347.573C783.489 335.338 781.76 333.107 778.792 333.107C773.84 333.107 773.517 337.303 778.014 343.205C780.43 346.376 781.745 349.94 781.745 353.313C781.745 356.179 782.752 360.061 783.982 361.94C785.212 363.82 786.519 367.019 786.887 369.05C787.255 371.081 789.5 374.873 791.876 377.477C794.437 380.285 796.195 383.802 796.195 386.117C796.195 389.298 797.134 390.333 801.253 391.694C804.035 392.613 806.363 394.128 806.428 395.061C806.492 395.993 806.655 399.36 806.789 402.543C807.026 408.158 807.172 408.316 811.729 407.875C814.312 407.625 816.425 408.091 816.425 408.909C816.425 412.069 821.761 413.392 826.023 411.288C828.294 410.166 832.042 408.783 834.35 408.215C838.472 407.198 838.53 407.266 837.579 412.023C837.047 414.686 836.066 417.223 835.399 417.66C834.732 418.098 833.278 420.205 832.169 422.344C829.94 426.644 818.411 440.14 806.59 452.288C796.142 463.024 794.428 467.439 796.87 477.317C797.915 481.541 800.304 489.121 802.179 494.16L805.588 503.321L799.808 508.242C796.629 510.949 792.89 513.173 791.499 513.185C790.108 513.197 788.97 513.858 788.97 514.653C788.97 515.449 788.065 516.1 786.958 516.1C784.047 516.1 783.132 519.606 784.133 526.921C784.981 533.113 784.83 533.441 779.768 536.431C776.884 538.135 774.87 540.088 775.292 540.772C775.714 541.455 773.471 547.169 770.307 553.469C762.283 569.446 748.867 579.412 738.209 577.313C736.12 576.901 733.969 577.282 733.428 578.157C732.009 580.455 728.937 580.115 726.696 577.412ZM853.964 302.064C856.439 297.435 854.12 283.483 850.165 279.211C848.298 277.194 846.771 274.376 846.771 272.948C846.771 271.52 846.12 269.949 845.326 269.457C841.706 267.217 844.169 265.517 849.741 266.409L855.601 267.347L855.16 260.561C854.776 254.659 854.126 253.446 850.166 251.239C845.984 248.908 844.862 248.874 836.357 250.816C828.84 252.532 826.639 253.71 824.652 257.077C821.442 262.518 821.563 266.103 825.095 270.18C826.685 272.015 827.985 274.696 827.985 276.138C827.985 277.58 829.891 280.932 832.221 283.589C835.854 287.731 836.345 289.253 835.67 294.291C834.999 299.297 835.382 300.515 838.258 302.532C843.091 305.92 852.045 305.654 853.964 302.064ZM881.664 271.989C884.734 266.636 886.088 257.099 884.116 254.721C883.25 253.676 880.661 252.821 878.362 252.821C875.198 252.821 873.488 253.963 871.32 257.523C867.667 263.52 867.717 265.313 871.697 271.166C875.662 276.997 878.65 277.243 881.664 271.989ZM816.425 538.471C816.425 537.25 815.404 534.689 814.155 532.782C812.361 530.04 812.231 528.666 813.535 526.226C814.443 524.529 815.073 521.068 814.936 518.535C814.529 510.995 814.715 510.724 821.483 509.018C826.792 507.68 827.985 506.778 827.985 504.105C827.985 498.719 832.061 494.173 836.434 494.68C839.824 495.073 840.223 495.686 839.882 499.968C839.67 502.631 837.744 508.49 835.603 512.987C833.462 517.484 831.559 522.139 831.373 523.333C829.882 532.944 827.445 537.704 823.271 539.161C817.429 541.2 816.425 541.099 816.425 538.471ZM1205.96 489.975C1204.43 488.431 1202.16 487.108 1200.9 487.034C1199.65 486.961 1195.7 486.724 1192.13 486.509C1181.13 485.847 1174.42 483.102 1165.42 475.582C1157.69 469.127 1154.86 467.64 1151.33 468.183C1150.75 468.272 1149.86 466.722 1149.37 464.738C1148.87 462.753 1147.88 461.13 1147.17 461.13C1146.47 461.13 1145.89 460.153 1145.89 458.96C1145.89 455.331 1152.04 456.495 1155.45 460.768C1158.43 464.498 1158.92 464.634 1163.39 462.95C1167.69 461.333 1168.67 461.499 1173.28 464.625C1176.09 466.534 1181.23 468.55 1184.69 469.106C1190.72 470.072 1194.04 472.31 1197.18 477.52C1197.98 478.837 1200.25 480.139 1202.24 480.414C1204.52 480.729 1206.6 482.47 1207.88 485.126C1209 487.443 1210.46 489.555 1211.13 489.82C1211.81 490.085 1212.36 490.899 1212.36 491.628C1212.36 493.842 1208.91 492.952 1205.96 489.975ZM1118.43 490.016C1118.43 489.245 1119.41 488.615 1120.6 488.615C1123.37 488.615 1123.37 489.518 1120.6 490.584C1119.41 491.042 1118.43 490.787 1118.43 490.016ZM1060.76 483.697C1053.37 481.44 1050.83 480.125 1052.57 479.457C1057.04 477.737 1066.56 478.426 1071.64 480.837C1075.58 482.709 1076.25 483.589 1074.93 485.177C1072.93 487.594 1073.82 487.686 1060.76 483.697ZM1100.37 474.149C1099.88 473.353 1099.83 472.12 1100.27 471.407C1100.71 470.695 1100.1 469.739 1098.91 469.283C1096.09 468.198 1096.1 462.576 1098.92 462.576C1100.25 462.576 1101.09 461.221 1101.09 459.063C1101.09 455.637 1104.4 451.004 1106.86 451.004C1109.53 451.004 1112.59 452.823 1111.87 453.985C1111.46 454.663 1110.16 454.852 1109 454.407C1105.92 453.221 1104.75 457.77 1107.45 460.472C1110.81 463.836 1110.46 470.839 1106.87 471.979C1105.28 472.484 1103.98 473.504 1103.98 474.246C1103.98 476.04 1101.49 475.973 1100.37 474.149ZM1039.01 467.701C1037.99 466.473 1036.1 465.449 1034.8 465.423C1031.35 465.356 1027.96 462.338 1026.74 458.231C1026.15 456.245 1022.32 451.595 1018.22 447.897C1014.13 444.2 1011.22 440.723 1011.75 440.171C1012.76 439.131 1030.39 448.277 1035.17 452.321C1038.78 455.379 1043.74 467.04 1042.12 468.662C1041.4 469.39 1040.07 468.98 1039.01 467.701ZM1070.38 461.53C1063.31 459.452 1062.91 458.771 1064.41 451.276C1065.09 447.843 1066.54 446.349 1070.84 444.627C1073.88 443.405 1077.01 441.248 1077.77 439.833C1078.53 438.419 1081.13 436.108 1083.54 434.698C1087.8 432.205 1087.99 432.218 1090.74 435.168C1094.91 439.647 1093.8 452.284 1088.64 459.051C1085.63 463.003 1084.4 463.717 1082.84 462.42C1081.55 461.351 1080.23 461.26 1079.05 462.16C1077.88 463.061 1074.85 462.841 1070.38 461.53ZM1128.55 452.45C1128.55 451.654 1129.2 451.004 1129.99 451.004C1130.79 451.004 1131.44 451.654 1131.44 452.45C1131.44 453.246 1130.79 453.897 1129.99 453.897C1129.2 453.897 1128.55 453.246 1128.55 452.45ZM1116.99 429.382C1112.61 428.254 1112.2 424.41 1116.39 423.81C1119.8 423.322 1123.95 427.333 1121.91 429.147C1121.19 429.788 1118.97 429.894 1116.99 429.382ZM947.943 423.157C947.954 422.162 948.524 420.465 949.207 419.386C950.795 416.878 952.886 419.788 951.706 422.864C950.721 425.435 947.912 425.653 947.943 423.157ZM1103.85 398.565C1102.62 395.2 1102.79 388.813 1104.14 387.98C1105.24 387.3 1105.49 387.519 1104.84 388.577C1104.27 389.495 1104.39 390.247 1105.11 390.247C1106.22 390.247 1109.76 396.35 1109.76 398.271C1109.76 398.94 1104.09 399.222 1103.85 398.565ZM495.156 382.403C494.675 381.148 494.649 379.161 495.099 377.988C495.811 376.129 496.202 376.142 498.15 378.091C500.139 380.083 500.145 380.566 498.207 382.506C496.269 384.447 495.935 384.435 495.156 382.403ZM1059.91 380.121C1060.4 379.325 1061.74 378.674 1062.88 378.674C1064.03 378.674 1064.97 379.325 1064.97 380.121C1064.97 380.916 1063.63 381.567 1061.99 381.567C1060.35 381.567 1059.42 380.916 1059.91 380.121ZM416.883 371.441C416.392 370.646 417.004 369.995 418.243 369.995C419.482 369.995 420.495 370.646 420.495 371.441C420.495 372.237 419.884 372.888 419.136 372.888C418.388 372.888 417.374 372.237 416.883 371.441ZM394.485 368.793C394.485 366.643 401.445 363.796 404.142 364.843C406.647 365.815 406.638 365.957 403.963 367.928C400.93 370.163 394.485 370.75 394.485 368.793ZM1102.54 366.378C1102.54 365.185 1103.19 364.208 1103.98 364.208C1104.78 364.208 1105.43 365.185 1105.43 366.378C1105.43 367.572 1104.78 368.548 1103.98 368.548C1103.19 368.548 1102.54 367.572 1102.54 366.378ZM377.145 362.75C377.145 361.009 375.602 359.996 372.073 359.423C369.283 358.97 365.919 357.516 364.597 356.192C362.915 354.508 360.749 354.02 357.386 354.566C354.743 354.996 352.58 354.737 352.58 353.991C352.58 353.246 353.068 352.586 353.664 352.525C354.26 352.464 356.048 352.074 357.638 351.659C365.364 349.639 371.003 349.586 372.939 351.514C374.06 352.63 378.392 354.77 382.564 356.269C386.737 357.767 390.15 359.732 390.15 360.634C390.15 361.536 387.224 362.945 383.648 363.764C377.873 365.087 377.145 364.973 377.145 362.75ZM1162.27 318.562C1161.83 317.412 1160.28 316.471 1158.82 316.471C1155.57 316.471 1154.37 314.775 1155.88 312.328C1156.9 310.667 1159.71 309.651 1164.11 309.349C1165 309.288 1169.03 305.984 1173.06 302.008C1177.28 297.848 1180.79 295.418 1181.33 296.285C1181.84 297.114 1181.47 298.74 1180.51 299.899C1179.55 301.057 1179.25 302.005 1179.83 302.005C1180.42 302.005 1179.85 303.61 1178.56 305.571C1177.28 307.532 1176.22 310.624 1176.21 312.442C1176.18 317.357 1174.65 318.824 1168.57 319.785C1164.51 320.426 1162.86 320.106 1162.27 318.562ZM706.083 295.496C705.625 294.302 705.476 293.326 705.751 293.326C706.026 293.326 707.061 294.302 708.05 295.496C709.087 296.746 709.228 297.665 708.382 297.665C707.575 297.665 706.54 296.689 706.083 295.496ZM686.375 286.816C686.375 285.623 686.631 284.646 686.943 284.646C687.256 284.646 687.885 285.623 688.343 286.816C688.8 288.01 688.545 288.986 687.775 288.986C687.005 288.986 686.375 288.01 686.375 286.816ZM1183.03 279.298C1181.13 278.802 1180.7 277.796 1181.41 275.487C1181.94 273.762 1182.46 272.237 1182.56 272.099C1182.67 271.961 1184.98 272.304 1187.69 272.86C1192.72 273.89 1195.69 277.413 1191.52 277.413C1190.27 277.413 1189.24 278.064 1189.24 278.86C1189.24 280.349 1187.54 280.469 1183.03 279.298ZM1189.04 260.539C1187.62 258.827 1187.07 253.36 1187.07 240.973C1187.07 216.656 1188.77 213.348 1191.39 232.569C1191.87 236.149 1193.22 240.532 1194.38 242.308C1196.27 245.199 1196.2 246.093 1193.65 250.844C1191.61 254.664 1191.2 256.874 1192.19 258.738C1194.04 262.183 1191.57 263.591 1189.04 260.539ZM451.728 241.88C451.251 240.636 450.28 239.978 449.569 240.418C448.859 240.857 447.581 240.376 446.729 239.348C445.595 237.981 445.933 236.238 447.989 232.854C449.534 230.311 451.452 228.229 452.252 228.229C454.632 228.229 462.4 237.134 462.4 239.862C462.4 244.222 453.286 245.946 451.728 241.88ZM640.989 226.783C641.555 223.998 642.103 220.33 642.206 218.632C642.31 216.933 643.112 214.655 643.989 213.569C645.743 211.395 644.072 205.084 641.742 205.084C640.985 205.084 639.937 203.135 639.415 200.753C638.892 198.371 637.502 195.883 636.326 195.224C634.164 194.013 634.141 188.614 636.284 185.194C637.837 182.713 643.979 182.91 644.961 185.472C645.401 186.619 645.406 189.747 644.973 192.423C644.354 196.242 644.972 198.225 647.846 201.645C649.86 204.041 651.939 207.721 652.466 209.823C652.993 211.925 654.336 214.402 655.45 215.328C657.963 217.416 658.092 223.046 655.67 224.971C654.676 225.76 651.264 226.876 648.087 227.45C644.909 228.025 641.781 229.249 641.135 230.17C640.489 231.092 640.423 229.568 640.989 226.783ZM622.121 216.404C623.107 211.879 629.029 203.127 630.266 204.366C630.578 204.678 630.581 207.591 630.271 210.839C629.812 215.655 628.912 217.156 625.39 218.979L621.073 221.214L622.121 216.404H622.121ZM189.295 205.722C189.295 204.482 189.946 203.869 190.74 204.361C191.535 204.852 192.185 205.867 192.185 206.616C192.185 207.365 191.535 207.977 190.74 207.977C189.946 207.977 189.295 206.962 189.295 205.722ZM181.348 192.065C180.857 191.269 181.143 190.618 181.985 190.618C182.827 190.618 183.515 191.269 183.515 192.065C183.515 192.86 183.229 193.511 182.878 193.511C182.528 193.511 181.839 192.86 181.348 192.065ZM490.226 161.749C481.944 159.735 482.492 160.786 472.847 128.415C471.544 124.039 469.96 119.84 469.329 119.085C466.554 115.764 468.2 105.386 472.515 98.9845C477.898 90.9998 477.922 89.0702 472.689 84.6621C467.984 80.6987 465.824 75.626 468.213 74.1482C469.09 73.6054 471.071 74.3061 472.615 75.7052C474.16 77.1043 475.822 77.8494 476.31 77.361C477.948 75.7215 475.333 66.2119 473.244 66.2119C472.128 66.2119 470.594 65.1035 469.837 63.7487C468.693 61.7026 468.08 61.6012 466.216 63.15C462.653 66.1105 460.955 63.7237 460.955 55.7527C460.955 50.7422 460.141 47.4562 458.429 45.5627C456.821 43.784 455.867 40.2987 455.804 35.9758C455.75 32.2401 455.203 28.3691 454.588 27.3735C453.974 26.3779 452.716 22.5366 451.794 18.8371C450.533 13.7768 449.013 11.4667 445.656 9.51008C440.957 6.7717 430.183 5.89759 422.415 7.62463C418.314 8.53647 417.592 8.17945 415.551 4.22813C414.297 1.79962 413.27 -0.545137 413.27 -0.982458C413.27 -1.41978 451.554 -1.77759 498.345 -1.77759H583.419L584.548 2.92381C586.292 10.1813 585.577 14.5799 582.247 17.0946C578.886 19.6325 578.662 28.1788 581.974 27.5158C584.651 26.9799 584.165 29.2502 580.988 32.1289C579.452 33.5204 578.546 35.5742 578.975 36.6928C579.862 39.0078 580.063 38.962 564.789 39.9311C559.409 40.2724 558.271 44.2252 563.03 46.0366C566.24 47.2584 566.664 48.0932 565.934 51.7482C565.245 55.199 565.701 56.3498 568.288 57.6847C574.244 60.7573 578 65.2122 578 69.2025C578 73.8173 574.473 75.7541 571.87 72.5683C567.746 67.5201 564.933 64.7658 563.912 64.7745C563.316 64.7795 561.682 66.799 560.282 69.2622C558.709 72.0278 556.953 73.4404 555.691 72.9555C553.448 72.094 549.995 75.3049 551.521 76.8327C552.044 77.3562 554.292 77.7846 556.515 77.7846C559.08 77.7846 561.124 78.8428 562.105 80.6778C563.118 82.5722 565.131 83.5709 567.936 83.5709C571.164 83.5709 572.22 84.2407 572.22 86.287C572.22 90.0304 569.631 91.8466 561.783 93.6073C557.567 94.5532 553.027 96.9958 549.559 100.184C546.525 102.974 542.742 105.262 541.153 105.271C538.694 105.284 533.006 111.702 526.287 122.044C525.721 122.915 523.326 124.543 520.964 125.66C518.005 127.06 515.945 129.658 514.336 134.017C513.053 137.496 510.497 141.479 508.658 142.868C506.404 144.57 505.564 146.349 506.08 148.328C507.132 152.354 501.327 162.35 497.764 162.649C496.196 162.781 492.804 162.375 490.226 161.749ZM419.243 148.179C417.787 146.42 415.888 146.015 412.013 146.635C406.924 147.45 406.573 147.209 400.962 139.031C395.479 131.038 394.827 130.57 388.82 130.304C375.372 129.708 377.885 117.913 391.742 116.588C396.495 116.134 396.654 115.916 396.7 109.818C396.726 106.352 395.971 102.453 395.021 101.152C393.471 99.03 392.904 99.2081 389.496 102.89C385.987 106.68 385.456 106.831 382.506 104.873C376.008 100.561 379.083 96.5518 389.301 96.0127C393.998 95.7649 393.336 92.9387 388.142 91.0584C385.424 90.0746 382.839 88.324 382.395 87.168C381.941 85.9827 380.621 85.4385 379.368 85.92C377.925 86.4742 377.145 85.9418 377.145 84.4024C377.145 81.8294 371.766 79.1834 368.818 80.3064C367.815 80.6887 366.058 80.2238 364.914 79.2735C363.77 78.3229 361.472 77.9782 359.807 78.5073C357.58 79.215 354.986 78.0181 349.984 73.9744C346.246 70.9524 342.664 67.8069 342.023 66.9843C341.382 66.1617 341.191 60.9319 341.598 55.3625C342.237 46.6175 342.876 44.7709 346.279 41.823C350.061 38.5471 350.298 38.5169 352.164 41.0716C353.327 42.6627 353.755 45.3451 353.23 47.7398C352.046 53.1334 355.844 53.1481 360.486 47.7679L363.919 43.7898L365.425 47.4063C368.487 54.7567 370.811 56.4426 377.06 55.846C380.286 55.538 382.925 55.6663 382.925 56.131C382.925 56.5958 386.224 56.976 390.255 56.976C398.9 56.976 400.667 58.8241 399.431 66.5735C398.639 71.5419 398.851 71.9984 401.945 71.9995C406.891 72.001 416.16 82.0622 416.16 87.4284C416.16 89.7622 415.48 92.353 414.648 93.1855C413.596 94.2394 415.063 95.4359 419.479 97.1244C422.978 98.4619 426.644 101.086 427.655 102.977C428.662 104.862 432.015 107.398 435.105 108.613C439.064 110.17 440.478 111.465 439.891 112.996C439.433 114.192 439.803 116.564 440.714 118.268C443.324 123.15 440.15 125.794 432.264 125.308C424.596 124.836 423.662 126.273 426.345 134.412C427.828 138.911 427.844 140.437 426.424 141.839C425.015 143.23 424.24 143.068 422.768 141.073C420.797 138.403 416.16 137.584 416.16 139.906C416.16 140.656 417.52 142.224 419.182 143.389C420.844 144.554 421.982 146.645 421.711 148.036C421.255 150.375 421.07 150.386 419.243 148.179V148.179ZM352.967 139.662C347.421 135.755 347.141 133.432 351.548 127.918L354.836 123.804L361.656 127.121C366.849 129.647 368.475 131.232 368.475 133.766C368.475 136.178 367.644 137.095 365.456 137.095C363.795 137.095 361.357 138.413 360.037 140.024L357.638 142.953L352.967 139.662ZM588.838 138.201C587.248 137.267 583.347 136.148 580.168 135.714C574.512 134.942 574.378 134.788 573.934 128.58C573.367 120.653 574.705 119.24 580.776 121.359C584.302 122.59 585.797 122.597 586.543 121.389C587.097 120.492 590.441 119.362 593.974 118.879C599.555 118.116 600.929 118.494 604.444 121.759C609.187 126.165 608.761 127.385 599.9 134.761C592.915 140.576 592.891 140.583 588.838 138.201V138.201ZM836.041 95.3188C835.593 94.5936 836.199 93.6269 837.386 93.1707C838.574 92.7145 839.545 92.9333 839.545 93.657C839.545 95.618 836.978 96.8356 836.041 95.3188ZM257.572 88.6887C248.18 84.3466 247.855 81.5581 256.488 79.3821C260.755 78.3065 262.99 76.9583 262.99 75.4608C262.99 73.573 261.43 73.2641 253.959 73.6734L244.928 74.1681L245.415 66.2119C246.086 55.2538 248.299 52.3479 257.473 50.3782C264.341 48.9037 265.278 49.012 267.28 51.5126C268.497 53.0331 271.281 54.6966 273.467 55.2091C275.652 55.7216 277.465 56.9422 277.496 57.9216C277.527 58.901 279.64 61.0144 282.192 62.6182C284.745 64.222 287.025 66.8654 287.259 68.4925C287.493 70.1197 289.603 72.5852 291.947 73.9714C296.88 76.8887 298.538 81.7375 296.569 87.487C295.463 90.715 294.49 91.3971 291.731 90.88C286.603 89.919 274.437 90.1044 269.493 91.2189C266.383 91.9199 263.013 91.2044 257.572 88.6887ZM308.508 90.8038C307.226 88.7278 308.991 86.4564 311.844 86.5101C314.905 86.5677 319.624 90.0432 318.36 91.3085C316.882 92.7875 309.499 92.4093 308.508 90.8038ZM858.981 76.4493C858.226 75.7149 855.669 74.9012 853.3 74.6411C847.626 74.0182 844.977 67.7008 848.674 63.6103C850.012 62.1312 851.126 59.6704 851.151 58.1418C851.177 56.6132 852.092 54.1805 853.186 52.7359C854.87 50.5131 855.625 50.39 858.097 51.9356C860.311 53.3203 860.688 54.3788 859.654 56.313C858.785 57.938 858.839 61.1169 859.801 65.0696C862.53 76.2814 862.735 77.7846 861.538 77.7846C860.886 77.7846 859.736 77.1837 858.981 76.4493ZM1327.66 73.2621C1325.84 71.6501 1325.1 70.7104 1326.03 71.1737C1326.95 71.6371 1327.93 71.3779 1328.19 70.5976C1328.88 68.5823 1335.18 70.5095 1335.18 72.7355C1335.18 75.9953 1331.09 76.2821 1327.66 73.2621ZM223.157 65.0668C219.828 62.8176 217.199 57.2826 217.847 53.8881C218.224 51.9143 219.031 50.2995 219.64 50.2995C221.284 50.2995 222.826 44.4333 222.56 39.1938C222.196 32.0029 226.889 30.6951 242.173 33.7282C245.78 34.4439 252.875 41.2152 252.875 43.9413C252.875 45.001 249.982 48.0043 246.445 50.6153C242.908 53.2263 239.387 57.0913 238.62 59.2042C237.853 61.3171 236.033 63.3722 234.574 63.7711C227.697 65.6525 224.552 66.0094 223.157 65.0668ZM305.859 63.8009C305.329 63.2705 304.891 61.8059 304.886 60.5461C304.882 59.2864 302.768 57.0437 300.19 55.5623L295.503 52.869L298.754 50.6845C300.642 49.416 302.005 47.0192 302.005 44.9683C302.005 41.8553 302.562 41.4904 306.702 41.89C310.733 42.2791 311.462 42.9576 311.849 46.683C312.097 49.0699 313.357 51.8344 314.648 52.8264C316.812 54.4893 316.807 55.025 314.581 59.6976C312.326 64.4311 308.355 66.2995 305.859 63.8009H305.859ZM321.341 50.6611C320.819 48.4732 319.906 46.032 319.313 45.2364C317.838 43.2595 320.22 37.4085 322.923 36.3701C324.134 35.9048 326.263 36.017 327.654 36.6195C329.045 37.2219 331.483 37.9501 333.073 38.2377C334.662 38.5252 336.725 39.0385 337.657 39.3784C340.339 40.3567 338.195 45.5886 334.006 48.2899C331.903 49.6457 329.663 51.6289 329.027 52.6971C326.957 56.1776 322.368 54.962 321.341 50.6611ZM376.213 47.0964C373.241 44.9821 371.774 42.7696 371.899 40.5878C372.132 36.5198 372.851 36.4813 377.673 40.2784C379.767 41.9274 381.48 42.8241 381.48 42.2711C381.48 41.7181 382.442 42.0647 383.618 43.0413C385.204 44.3597 385.377 45.5229 384.289 47.5582C382.428 51.0403 381.7 50.9987 376.213 47.0964ZM1181.25 44.4498C1179.97 42.3807 1183.24 38.7268 1186.37 38.7268C1189.07 38.7268 1191.25 42.4142 1189.88 44.6437C1188.76 46.4497 1182.4 46.3066 1181.25 44.4498ZM858.331 41.0154C858.331 39.8506 858.893 38.5495 859.581 38.1241C860.268 37.6988 861.185 34.7062 861.618 31.474C862.571 24.3623 866.167 18.476 869.563 18.4707C870.966 18.4685 873.323 16.0943 874.949 13.046C877.76 7.77717 878.078 7.6197 886.293 7.42833C892.407 7.28593 895.889 6.38531 898.877 4.17352C903.75 0.566396 905.417 0.361081 906.518 3.23224C907.397 5.52663 902.031 10.4763 896.894 12.1084C895.187 12.6507 892.089 14.9186 890.008 17.1482C887.928 19.3778 884.338 21.6609 882.032 22.2217C878.339 23.1196 865.555 34.9298 865.555 37.444C865.555 37.9665 863.93 39.4604 861.943 40.7636C858.886 42.769 858.331 42.8077 858.331 41.0154ZM346.078 29.386C343.694 28.3285 339.99 26.773 337.849 25.9293C334.398 24.5702 333.84 23.388 332.955 15.5581C331.989 7.00334 331.782 6.65069 326.485 4.52907C319.581 1.76368 317.807 -1.79667 323.365 -1.73158C325.525 -1.70628 328.555 -0.729833 330.098 0.438295C331.641 1.60643 334.079 2.56217 335.517 2.56217C336.954 2.56217 338.151 3.37587 338.176 4.3704C338.288 8.75997 342.284 11.1549 351.968 12.6354C357.471 13.4767 365.062 14.8742 368.837 15.7408C375.124 17.1843 375.7 17.676 375.7 21.5974C375.7 24.4589 375.149 25.5369 374.036 24.8486C373.121 24.2823 371.549 24.9463 370.542 26.3242C369.082 28.3227 368.117 28.5103 365.767 27.2513C363.436 26.0026 361.828 26.2795 358.062 28.5782C352.57 31.9302 351.914 31.9745 346.078 29.386ZM259.415 25.2945L260.361 20.2472L253.728 20.9956C247.581 21.6893 247.095 21.5044 247.095 18.4689C247.095 16.6676 247.849 12.6772 248.769 9.60128C250.667 3.25903 253.815 2.34664 257.964 6.93611C259.923 9.10278 260.896 9.39965 261.712 8.07857C262.542 6.73477 263.546 6.95725 265.778 8.97883C268.701 11.6273 268.772 11.5919 270.943 6.38979C272.154 3.48897 273.396 1.11558 273.705 1.11558C274.013 1.11558 275.608 3.39395 277.249 6.17863C279.128 9.36613 281.338 11.2417 283.217 11.2417C287.343 11.2417 288.193 14.4905 285.455 19.7906C282.944 24.6519 280.715 25.5 279.408 22.0911C278.577 19.9225 274.398 18.9551 274.722 21.0061C275.551 26.263 274.442 27.5151 269.649 26.7363C266.473 26.2204 263.642 26.7149 261.608 28.1409C258.531 30.2987 258.488 30.2429 259.415 25.2945ZM1170.67 27.3337L1165.83 24.7647L1170.67 19.6902C1174.65 15.5171 1176.57 14.6052 1181.5 14.5562C1186.49 14.5067 1187.76 15.0916 1189.1 18.0406C1191.24 22.7369 1190.06 24.2609 1184.27 24.2609C1181.16 24.2609 1178.78 25.2503 1177.49 27.0818C1175.57 29.8164 1175.36 29.8241 1170.67 27.3337ZM321.089 26.3327C319.362 25.1219 317.41 22.0458 316.75 19.4969C315.177 13.4205 310.675 12.2865 310.675 17.9667V22.0107L307.571 18.9032C304.739 16.0682 304.181 15.9835 301.201 17.938C298.094 19.976 297.889 19.8708 296.991 15.78C296.473 13.4147 294.787 10.0245 293.247 8.2461C289.508 3.93065 289.685 1.97709 293.697 3.28379C297.807 4.62281 301.851 4.62984 305.898 3.30498C308.576 2.42829 309.406 3.07626 311.243 7.47769C312.439 10.3435 314.377 12.6883 315.548 12.6883C319.582 12.6883 326.661 19.9834 326.172 23.6359C325.535 28.403 324.685 28.854 321.089 26.3327ZM1204.41 25.7075C1203.92 24.9119 1204.82 24.2609 1206.4 24.2609C1207.99 24.2609 1209.7 24.9119 1210.19 25.7075C1210.68 26.5031 1209.78 27.1541 1208.19 27.1541C1206.6 27.1541 1204.9 26.5031 1204.41 25.7075ZM370.088 4.65094C366.368 1.51752 365.221 1.20917 362.569 2.62989C360.288 3.85206 358.51 3.88244 356.01 2.742C348.886 -0.507732 352.375 -1.88839 366.652 -1.46833C378.298 -1.1257 380.802 -0.648046 381.175 1.30164C381.628 3.67196 378 8.34851 375.708 8.34851C375.031 8.34851 372.502 6.6846 370.088 4.65094ZM232.931 5.16268C231.979 4.20977 231.2 2.25838 231.2 0.826264C231.2 -1.30917 232.414 -1.77759 237.944 -1.77759C241.653 -1.77759 244.413 -1.61485 244.078 -1.41594C243.743 -1.21704 241.487 0.734352 239.065 2.92047C235.645 6.0077 234.275 6.50837 232.931 5.16268Z" fill="url(#paint0_linear_352_206)"/>
<ellipse cx="319.772" cy="214.844" rx="10.7037" ry="10.7099" fill="white"/>
<ellipse cx="319.773" cy="214.844" rx="25.4213" ry="25.436" fill="white" fill-opacity="0.35"/>
<ellipse cx="648.069" cy="217.081" rx="8.45029" ry="8.45517" fill="white"/>
<ellipse cx="648.069" cy="217.081" rx="20.0694" ry="20.081" fill="white" fill-opacity="0.35"/>
<ellipse cx="1115.07" cy="257.081" rx="8.45029" ry="8.45517" fill="white"/>
<ellipse cx="1115.07" cy="257.081" rx="20.0694" ry="20.081" fill="white" fill-opacity="0.35"/>
<g opacity="0.6">
<ellipse cx="508.069" cy="466.081" rx="8.45029" ry="8.45517" fill="white"/>
<ellipse cx="508.069" cy="466.081" rx="20.0694" ry="20.081" fill="white" fill-opacity="0.35"/>
</g>
<g opacity="0.6">
<ellipse cx="810.805" cy="350.057" rx="5.63353" ry="5.63678" fill="white"/>
<ellipse cx="810.805" cy="350.057" rx="13.3796" ry="13.3874" fill="white" fill-opacity="0.35"/>
</g>
<g opacity="0.6">
<ellipse cx="1246.6" cy="197.291" rx="5.63353" ry="5.63678" fill="white"/>
<ellipse cx="1246.6" cy="197.291" rx="13.3796" ry="13.3874" fill="white" fill-opacity="0.35"/>
</g>
<defs>
<linearGradient id="paint0_linear_352_206" x1="720.353" y1="-1.77759" x2="720.353" y2="675.277" gradientUnits="userSpaceOnUse">
<stop stop-color="white"/>
<stop offset="1" stop-color="white" stop-opacity="0"/>
</linearGradient>
</defs>
</svg>
