<svg width="1294" height="676" viewBox="0 0 1294 676" fill="none" xmlns="http://www.w3.org/2000/svg">
<path d="M332.721 674.417C331.148 672.843 333.353 668.248 336.016 667.551C339.264 666.701 342.369 669.986 341.2 673.036C340.398 675.129 334.407 676.105 332.721 674.417ZM323.521 661.472C322.995 659.372 321.075 657.087 319.255 656.395C316.264 655.256 315.961 654.26 316.101 646.012C316.186 640.995 315.746 633.883 315.123 630.209C314.269 625.177 314.558 622.428 316.292 619.07C319.262 613.32 319.291 603.827 316.345 601.379C313.517 599.03 314.033 592.078 317.468 586.259C318.877 583.872 320.036 580.943 320.044 579.75C320.051 578.556 321.028 575.719 322.213 573.444C324.371 569.301 327.985 557.459 330.014 547.885C331.28 541.908 330.873 523.645 329.179 510.429C328.041 501.557 327.698 500.938 321.485 496.571C313.589 491.019 302.7 476.007 302.701 470.672C302.701 469.8 300.262 467.036 297.282 464.531C292.403 460.429 291.877 459.312 292.002 453.318C292.083 449.406 293.098 445.602 294.462 444.093C295.738 442.681 297.211 438.845 297.734 435.568C298.397 431.419 299.897 428.715 302.678 426.657C307.056 423.417 307.193 419.737 303.264 410.946C301.204 406.338 301.192 406.333 296.15 408.443C291.239 410.497 290.982 410.437 286.928 406.285C284.634 403.936 282.368 402.404 281.892 402.881C281.415 403.358 281.025 402.723 281.025 401.47C281.025 400.217 278.131 397.359 274.594 395.119C271.057 392.878 267.385 389.59 266.434 387.812C264.182 383.6 253.668 378.704 247.381 378.941C242.102 379.14 217.445 368.163 217.445 365.614C217.445 364.841 216.633 364.194 215.639 364.177C213.566 364.142 206.758 354.925 205.269 350.137C204.717 348.365 202.072 344.285 199.39 341.071C196.707 337.857 193.435 332.797 192.117 329.827C189.399 323.699 183.614 318.729 180.564 319.901C178.8 320.578 178.797 321.488 180.54 326.434C182.469 331.905 186.7 339.512 188.679 341.063C190.306 342.339 191.677 348.296 190.343 348.296C187.297 348.296 176.996 333.155 174.769 325.406C173.472 320.889 170.717 315.404 168.647 313.216C166.578 311.028 165.428 309.238 166.092 309.238C167.185 309.238 163.294 305.29 155.901 298.897C152.114 295.622 147.477 289.724 146.815 287.342C145.589 282.925 144.091 261.968 144.752 258.483C145.143 256.425 144.832 252.459 144.063 249.67C143.026 245.91 143.197 243.329 144.724 239.692C147.631 232.772 146.402 229.824 137.349 222C129.462 215.183 127.554 212.172 122.746 198.957C121.375 195.189 119.363 191.366 118.274 190.462C117.186 189.557 116.295 188.232 116.295 187.517C116.295 186.802 114.583 183.627 112.491 180.461C109.598 176.085 107.74 174.706 104.738 174.706C102.567 174.706 99.1368 173.404 97.1161 171.813C95.0954 170.221 92.1786 168.919 90.6344 168.919C86.7261 168.919 79.3372 166.44 70.4941 162.16C66.3642 160.162 62.3998 158.889 61.6842 159.332C60.9686 159.775 60.3242 162.212 60.2522 164.748C60.1337 168.92 58.1347 171.731 55.2442 171.79C53.5262 171.826 53.9732 168.275 56.4268 162.396C59.233 155.673 57.3016 152.756 52.9368 157.125C48.306 161.761 45.6937 167.885 46.5142 172.182C47.0762 175.125 46.587 176.375 44.5717 177.145C43.0901 177.71 38.4388 180.973 34.2354 184.396C30.0321 187.818 25.6971 190.618 24.6021 190.618C23.5071 190.618 22.3375 191.432 22.0028 192.426C21.6682 193.421 20.9168 191.7 20.333 188.602C19.7492 185.504 18.3432 182.04 17.2085 180.904C16.0738 179.768 15.1454 177.339 15.1454 175.507C15.1454 167.606 13.2579 162.978 9.17225 160.863C6.80033 159.635 5.03043 157.535 5.03043 155.948C5.03043 154.425 4.4039 152.79 3.63814 152.316C1.98885 151.296 7.10151 145.784 9.72668 145.752C10.7201 145.741 14.1339 144.829 17.3129 143.726C22.3723 141.972 23.1469 141.106 23.5256 136.781C23.9025 132.477 23.3418 131.508 19.17 129.259C16.5364 127.84 12.7654 126.909 10.7898 127.192C5.92978 127.887 0.284373 122.699 0.929529 118.131C1.33344 115.271 2.13589 114.749 5.56823 115.117C7.8509 115.361 11.3435 116.627 13.3297 117.929C16.6858 120.131 17.0672 120.125 18.7312 117.847C19.7159 116.499 21.2627 115.396 22.1685 115.396C23.0743 115.396 23.8154 113.768 23.8154 111.779C23.8154 108.886 23.0929 108.163 20.2029 108.163C18.2161 108.163 16.5904 107.541 16.5904 106.782C16.5904 104.536 9.29754 97.908 7.82713 98.8178C7.0837 99.2778 6.46655 98.802 6.4557 97.7605C6.44486 96.719 6.0632 94.4762 5.60758 92.7764C4.91912 90.2079 5.94286 89.1083 11.6684 86.2667C15.4575 84.3862 19.5331 81.1567 20.7253 79.0899C21.9176 77.0232 25.7199 73.8309 29.1749 71.996C34.6291 69.0994 35.9146 68.9051 38.9312 70.5212C40.842 71.545 43.5163 71.9559 44.8741 71.4344C46.2318 70.9128 48.8309 71.4623 50.6498 72.6553C52.4688 73.8485 56.7663 75.2205 60.2 75.7044C63.6336 76.1882 68.7188 77.3925 71.5004 78.3806C74.2821 79.3686 79.0833 79.9464 82.17 79.6645C85.8109 79.332 89.1097 80.0351 91.5625 81.6665C93.6417 83.0495 96.3183 84.3339 97.5104 84.5208C98.7026 84.7076 101.11 86.5232 102.86 88.5554C107.056 93.4276 110.738 93.2211 115.17 87.8651C119.176 83.024 126.467 80.2739 131.766 81.6052C134.845 82.3789 135.127 82.0692 134.499 78.6028C134.023 75.9741 134.514 74.4636 136.031 73.8805C138.6 72.8935 140.565 75.3382 141.809 81.0695C142.865 85.938 144.4 87.0533 147.587 85.2681C149.969 83.9336 156.578 85.7858 163.258 89.6597C164.847 90.5815 168.424 91.7131 171.205 92.1742C175.064 92.8139 176.375 93.7981 176.735 96.326C177.026 98.3708 178.686 100.167 181.07 101.018C183.195 101.776 186.659 103.368 188.768 104.556C194.577 107.827 196.656 107.243 201.738 100.912C206.025 95.5717 206.809 95.1828 211.56 96.038C214.4 96.5492 217.505 97.5873 218.46 98.3449C219.415 99.1025 221.423 99.3329 222.921 98.8568C224.59 98.3263 227.698 99.386 230.948 101.594C236.091 105.088 236.304 105.113 237.975 102.434C239.219 100.439 240.763 99.8846 243.531 100.439C248.483 101.43 253.57 95.3869 253.57 88.5125C253.57 84.7332 252.5 82.9005 248.513 79.8564C243.283 75.8628 241.732 69.9626 245.041 66.6495C247.849 63.8387 254.57 68.8989 254.713 73.9313C254.78 76.293 255.431 78.6143 256.161 79.0899C256.89 79.5654 258.268 82.3552 259.224 85.2894C260.396 88.8898 261.951 90.771 264.008 91.0757C265.983 91.3683 267.624 93.2273 268.673 96.3589C271.237 104.02 274.734 105.029 279.732 99.5507C282.033 97.0286 283.915 93.8118 283.915 92.4023C283.915 88.9034 285.006 88.0887 288.474 88.9966C290.834 89.6145 291.258 90.5783 290.605 93.8462C290.157 96.0893 290.41 98.3081 291.168 98.7769C292.648 99.6929 292.339 104.552 290.696 106.197C290.146 106.748 289.695 108.717 289.695 110.574C289.695 113.303 288.924 113.949 285.666 113.949C283.45 113.949 279.061 115.273 275.912 116.891C272.764 118.509 268.882 119.513 267.286 119.121C263.588 118.214 259.546 120.536 261.53 122.428C262.318 123.18 264.21 124.02 265.733 124.297C267.257 124.573 268.753 125.548 269.057 126.464C269.671 128.308 261.768 132.755 257.878 132.755C250.804 132.755 244.283 143.48 242.721 157.686C242.219 162.248 241.203 166.355 240.464 166.812C238.755 167.87 238.77 171.911 240.494 174.639C241.621 176.423 242.369 176.449 245.432 174.808C250.878 171.89 253.57 173.675 253.57 180.206C253.57 186.696 254.676 188.361 257.454 186.053C260.516 183.509 266.149 186.795 268.538 192.52C270.319 196.787 271.409 197.526 277.064 198.302C287.055 199.673 291.515 202.151 290.42 205.722C289.918 207.36 289.225 209.677 288.881 210.87C288.512 212.149 290.476 214.713 293.665 217.113L299.074 221.186L302.332 217.394C304.656 214.69 305.59 211.759 305.59 207.173C305.59 203.637 305.648 200.582 305.719 200.383C307.605 195.052 307.791 186.373 306.137 180.872C304.576 175.679 304.473 172.164 305.664 164.707C308.245 148.536 308.271 148.464 311.045 149.847C312.416 150.53 317.277 151.893 321.847 152.875C326.959 153.974 330.156 155.41 330.156 156.607C330.156 157.677 330.848 158.783 331.694 159.066C332.54 159.348 333.599 162.319 334.048 165.668C334.76 170.987 335.665 172.227 341.2 175.474C348.166 179.561 350.386 179.201 350.386 173.982C350.386 169.269 352.77 168.153 353.828 172.371C354.301 174.259 357.296 180.101 360.484 185.354C363.672 190.608 366.281 195.289 366.281 195.758C366.281 197.104 369.618 199.822 374.28 202.274C378.076 204.27 378.555 205.263 378.492 211.002C378.392 220.072 372.475 226.783 364.577 226.783C361.519 226.783 357.823 226.037 356.364 225.125C350.871 221.691 338.825 228.425 338.825 234.929C338.825 237.088 339.436 238.148 340.353 237.581C341.193 237.062 343.333 237.002 345.109 237.448C347.445 238.035 348.322 239.306 348.279 242.038C348.229 245.149 349.209 246.162 353.818 247.764C362.055 250.629 362.789 251.912 359.135 257.05C357.085 259.931 354.729 261.501 352.455 261.501C348.386 261.501 348.112 260.436 351.087 256.183C352.997 253.453 352.985 253.019 350.978 252.248C347.105 250.761 336.263 258.206 324.881 270.17C321.202 274.037 317.526 276.959 315.234 277.84C313.813 278.386 312.777 280.428 312.723 282.793C312.461 294.218 311.717 296.072 304.895 302.288C295.547 310.804 293.591 315.023 294.676 324.321C295.252 329.266 294.88 333.469 293.594 336.532C291.651 341.156 291.6 341.176 288.379 338.565C285.45 336.19 285.309 335.525 286.967 331.882C288.088 329.419 288.276 327.453 287.446 326.855C286.696 326.315 285.367 324.572 284.492 322.981C282.209 318.831 273.015 318.259 268.939 322.014C266.353 324.396 264.168 324.786 255.46 324.418C243.303 323.904 237.04 326.467 233.07 333.58C228.524 341.728 231.58 360.747 237.693 362.347C239.273 362.761 240.565 363.644 240.565 364.309C240.565 365.783 248.869 368.204 252.852 367.89C254.439 367.765 258.464 365.847 261.796 363.629C265.128 361.41 268.541 360.02 269.382 360.54C271.612 361.92 271.25 366.465 268.743 368.548C263.568 372.848 267.354 378.674 275.324 378.674C282.956 378.674 288.706 384.277 287.82 390.854C287.459 393.535 286.774 396.361 286.296 397.134C284.767 399.611 290.62 403.626 294.134 402.51C295.894 401.951 299.739 402.288 302.678 403.259C307.169 404.743 308.737 404.654 312.5 402.706C314.963 401.431 318.133 398.432 319.543 396.041C320.954 393.65 322.615 391.693 323.233 391.693C324.852 391.693 323.837 396.813 321.709 399.38C320.475 400.869 320.385 401.862 321.428 402.507C323.501 403.79 329.062 401.891 330.999 399.24C332.239 397.542 334.093 397.322 339.674 398.21C343.579 398.831 349.397 399.206 352.605 399.043C359.23 398.706 364.984 402.346 368.458 409.072C370.094 412.239 372.479 413.724 378.905 415.574C388.58 418.361 394.461 423.258 398.264 431.697C400.085 435.736 402.318 438.175 405.076 439.137C407.333 439.925 411.522 442.628 414.385 445.145C419.353 449.512 419.849 449.642 425.308 448.005C433.393 445.58 440.297 447.26 444.849 452.76C446.937 455.283 448.645 457.994 448.645 458.784C448.645 459.574 450.06 461.727 451.789 463.569C454.806 466.784 454.845 467.195 452.761 473.789C450.94 479.552 450.063 480.599 447.317 480.29C445.072 480.038 443.805 480.833 443.286 482.822C442.869 484.417 441.846 485.721 441.011 485.721C440.177 485.721 439.901 486.129 440.4 486.628C440.898 487.127 440.234 489.568 438.925 492.053C437.616 494.538 436.069 500.464 435.488 505.223C434.316 514.824 429.822 520.44 423.311 520.44C421.147 520.44 418.882 521.86 417.375 524.163C415.806 526.56 414.017 527.645 412.351 527.209C406.991 525.806 405.626 528.604 401.764 548.916C400.911 553.4 398.228 558.051 396.495 558.051C395.684 558.051 393.669 561.306 392.018 565.284C390.366 569.262 388.153 572.517 387.099 572.517C386.045 572.517 383.514 570.726 381.475 568.539C378.342 565.176 377.548 564.896 376.344 566.73C375.561 567.924 375.236 571.179 375.623 573.963C376.063 577.134 375.389 580.919 373.818 584.089C371.789 588.187 370.487 589.152 366.989 589.152C362.414 589.152 360.174 590.569 358.738 594.371C358.254 595.651 355.778 597.114 353.235 597.623C348.652 598.541 348.62 598.607 349.6 605.152C350.743 612.78 349.42 615.07 342.099 618.132C337.584 620.021 337.27 620.558 338.128 624.92C338.641 627.525 339.405 631.438 339.827 633.616C340.342 636.28 339.296 640.058 336.631 645.161C334.452 649.333 331.913 655.359 330.99 658.553C328.968 665.543 324.937 667.119 323.521 661.472V661.472ZM257.185 267.287C257.454 267.287 258.753 264.032 260.073 260.054C261.393 256.076 262.941 252.821 263.513 252.821C265.646 252.821 268.02 256.403 268.02 259.62C268.02 261.45 268.713 262.947 269.56 262.947C272.443 262.947 276.69 259.959 276.69 257.931C276.69 256.819 277.991 255.496 279.58 254.991C284.732 253.354 282.659 250.175 273.865 246.224C267.618 243.418 264.912 241.315 263.993 238.555C262.971 235.488 261.77 234.722 257.787 234.599C255.071 234.515 251.181 233.984 249.144 233.419C244.161 232.036 237.38 237.117 240.279 240.061C241.314 241.112 244.565 241.972 247.504 241.972C251.896 241.972 252.928 242.534 253.297 245.129C253.544 246.865 252.731 250.25 251.491 252.652C250.25 255.053 249.235 258.394 249.235 260.078C249.235 264.795 252.047 269.073 254.522 268.123C255.718 267.663 256.917 267.287 257.185 267.287ZM225.492 216.845C224.963 213.161 224.4 208.389 224.239 206.24C223.793 200.253 221.409 198.625 216.521 200.97C211.496 203.381 210.416 207.313 214.485 208.378C217.341 209.126 218.255 212.109 217.649 218.706C217.509 220.231 218.834 223.013 220.594 224.889C223.447 227.929 223.938 228.041 225.123 225.921C225.854 224.614 226.02 220.53 225.492 216.845ZM180.624 170.207C191.309 161.382 192.097 159.62 186.017 158.139C183.831 157.607 180.994 155.815 179.712 154.158C176.024 149.388 173.618 152.186 174.635 160.064C175.561 167.236 174.825 169.318 170.844 170.788C167.547 172.006 167.567 176.152 170.871 176.152C172.276 176.152 176.665 173.477 180.624 170.207H180.624ZM157.212 133.985C158.948 133.07 160.856 131.605 161.452 130.73C162.199 129.633 162.966 129.809 163.92 131.296C165.512 133.776 167.551 132.322 170.325 126.729C171.247 124.871 173.447 123.144 175.215 122.89C177.183 122.607 178.43 121.413 178.43 119.812C178.43 116.44 176.035 114.525 169.807 112.915C165.695 111.852 163.623 112.24 158.247 115.08C146.504 121.285 142.171 127.514 150.03 126.894C155.343 126.475 155.712 126.863 153.384 130.419C150.183 135.311 151.813 136.83 157.212 133.985V133.985ZM1217.06 657.547C1213.37 653.001 1215.65 649.024 1227.84 638.698C1232.47 634.781 1235.79 635.413 1235.46 640.144C1235.04 646.063 1234.81 646.863 1233.83 645.879C1233.34 645.387 1231.99 645.929 1230.84 647.085C1229.68 648.24 1227.45 649.186 1225.87 649.186C1224.29 649.186 1223.38 649.807 1223.85 650.566C1225.08 652.566 1223.21 658.987 1221.16 659.774C1220.2 660.143 1218.35 659.141 1217.06 657.547ZM1229.66 644.862C1230.16 644.042 1229.58 643.8 1228.3 644.294C1225.79 645.256 1225.34 646.292 1227.42 646.292C1228.16 646.292 1229.17 645.649 1229.66 644.862ZM1130.48 638.486C1128.01 637.239 1127.21 635.793 1127.58 633.212C1127.85 631.257 1128.18 629.556 1128.3 629.433C1128.76 628.958 1133 628.598 1136.19 628.762C1139.13 628.913 1139.48 629.57 1139.08 634.228C1138.58 640.114 1136.12 641.332 1130.48 638.486ZM1243.69 623.69C1242.67 622.596 1242.27 621.701 1242.79 621.701C1243.32 621.701 1242.99 620.782 1242.06 619.659C1240.85 618.198 1240.81 617.34 1241.95 616.64C1242.82 616.101 1243.23 613.779 1242.87 611.479C1242.22 607.316 1242.23 607.309 1245.65 609.798C1247.54 611.173 1249.11 613.376 1249.13 614.694C1249.16 616.37 1250.04 616.863 1252.07 616.333C1255.9 615.33 1255.74 618.018 1251.74 622.025C1247.83 625.936 1246.12 626.291 1243.69 623.69V623.69ZM1127.8 612.189C1124.07 610.895 1122.22 610.857 1120.77 612.042C1118.74 613.695 1116.72 611.901 1109.87 602.338C1108.36 600.226 1105.57 598.108 1103.67 597.631C1101.64 597.121 1100.31 595.792 1100.45 594.405C1101.35 585.09 1098.08 582.865 1091.67 588.429C1087.39 592.149 1086.1 592.073 1084.56 588.008C1082.42 582.368 1078.84 580.518 1070.16 580.564C1064.4 580.594 1059.43 581.796 1053.04 584.704C1045.58 588.1 1042.73 588.67 1036.42 588.033C1032.24 587.61 1026.07 587.981 1022.72 588.858C1019.37 589.734 1016.19 590.014 1015.65 589.481C1015.12 588.948 1014.5 585.848 1014.26 582.593C1014.03 579.338 1013.1 575.773 1012.18 574.671C1011.27 573.57 1010.19 570.518 1009.79 567.891C1009.39 565.264 1007.9 561.812 1006.49 560.221C1004.53 558.012 1004.2 556.321 1005.11 553.074C1005.87 550.402 1005.73 548.123 1004.76 546.944C1003.89 545.896 1003.69 543.943 1004.32 542.518C1004.93 541.116 1005.33 539.495 1005.21 538.915C1004.86 537.249 1012.95 533.551 1018.98 532.618C1032.5 530.526 1034.4 529.763 1036.79 525.457C1038.09 523.095 1040.31 520.94 1041.71 520.668C1043.12 520.396 1046.08 518.14 1048.3 515.655C1051.66 511.892 1052.7 511.439 1054.51 512.949C1059.15 516.799 1062.5 516.032 1069.57 509.51C1073.38 505.991 1077.64 503.104 1079.03 503.096C1080.42 503.087 1081.56 502.487 1081.56 501.762C1081.56 500.341 1083.27 500.45 1088.48 502.201C1091.39 503.179 1091.74 504.128 1091.37 510.068C1090.95 516.786 1090.98 516.84 1097.45 519.88C1108.37 525.011 1111.77 525.375 1113.2 521.56C1113.87 519.751 1113.88 517.918 1113.21 517.488C1111.6 516.461 1113.76 508.486 1115.83 507.797C1116.71 507.502 1117.85 508.582 1118.37 510.196C1118.88 511.811 1121.37 514.582 1123.91 516.354C1129.89 520.534 1130.64 521.719 1130.66 527.037C1130.68 530.402 1132.22 532.887 1137.08 537.39C1140.6 540.649 1143.78 543.018 1144.14 542.653C1145.07 541.719 1153.8 552.553 1153.8 554.643C1153.8 555.589 1154.56 556.614 1155.48 556.921C1157.91 557.732 1159.2 569.406 1157.6 576.133C1156.84 579.316 1154.7 584.186 1152.85 586.957C1150.99 589.727 1149.47 593.485 1149.47 595.307C1149.47 598.588 1139.55 610.708 1135.11 612.854C1133.87 613.454 1130.58 613.155 1127.79 612.189H1127.8ZM653.696 577.412C650.976 574.13 646.589 561.878 644.175 550.818C643.741 548.829 642.585 546.55 641.608 545.755C638.617 543.322 635.491 535.959 634.649 529.368C634.21 525.925 632.863 522.016 631.657 520.682C627.797 516.412 627.274 504.905 630.427 493.585C632.892 484.732 633.022 482.7 631.396 478.395C630.363 475.662 627.807 468.918 625.715 463.41C623.623 457.901 620.863 452.627 619.582 451.689C617.684 450.299 617.426 448.337 618.187 441.052L619.119 432.118L614.903 431.274C612.583 430.81 609.367 429.2 607.756 427.697C606.145 426.195 604.218 424.965 603.475 424.965C602.733 424.965 601.75 423.989 601.293 422.795C600.204 419.956 593.227 420.006 589.124 422.883C585.697 425.286 579.136 424.892 570.458 421.763C566.942 420.495 564.934 420.506 562.081 421.807C554.795 425.13 550.171 423.97 543.304 417.096C539.776 413.564 536.511 409.17 536.049 407.332C535.586 405.494 532.984 402.532 530.265 400.751C523.069 396.038 520.964 391.085 522.418 382.291C523.075 378.313 523.652 371.282 523.699 366.668C523.799 356.955 526.245 351.337 533.902 343.233C536.91 340.05 539.809 335.982 540.345 334.192C540.881 332.402 541.91 330.937 542.631 330.937C545.448 330.937 553.037 321.138 556.074 313.578C559.516 305.009 559.104 305.184 571.218 307.175C576.211 307.995 578.567 307.584 582.929 305.129C587.39 302.62 591.241 301.986 603.962 301.669C618.695 301.303 619.597 301.448 620.677 304.355C621.392 306.281 621.051 308.909 619.764 311.392C616.639 317.422 617.088 317.918 625.678 317.918C630.059 317.918 634.774 318.474 636.154 319.154C637.534 319.834 641.731 321.373 645.48 322.574C651.861 324.619 652.453 324.586 654.735 322.061C657.437 319.073 659.843 318.701 663.609 320.689C670.562 324.361 677.052 326.551 682.835 327.178C686.356 327.559 691.031 328.312 693.223 328.852C695.415 329.391 699 329.089 701.191 328.18C707.895 325.401 714.032 310.534 710.53 305.561C708.715 302.985 698.247 300.536 690.683 300.917C683.632 301.273 683.446 301.178 682.969 296.942C682.7 294.555 681.876 291.871 681.138 290.978C678.546 287.84 681.45 285.254 692.159 281.161C702.23 277.311 703.483 277.147 710.552 278.754C724.237 281.863 726.008 282.086 729.679 281.164C735.297 279.752 734.159 275.317 726.085 267.149C722.112 263.129 718.86 258.655 718.86 257.208C718.86 254.598 716.179 252.821 712.24 252.821C710.916 252.821 710.19 254.393 710.19 257.262C710.19 261.039 709.705 261.633 706.939 261.24C704.82 260.938 703.523 259.614 703.215 257.434C702.954 255.595 701.811 253.734 700.675 253.297C697.547 252.096 691.888 256.486 690.758 260.991C690.207 263.19 688.502 265.868 686.968 266.943C685.303 268.111 684.18 270.589 684.18 273.099C684.18 278.313 679.23 283.2 673.948 283.2C669.842 283.2 668.285 285.395 668.285 291.189C668.285 296.28 666.153 296.67 661.187 292.487C658.248 290.011 655.969 286.104 654.486 280.997C652.474 274.067 651.56 272.929 645.737 270.107C642.161 268.374 638.219 265.404 636.977 263.505C634.119 259.139 629.27 258.875 629.27 263.086C629.27 267.92 634.471 273.929 641.53 277.251C648.51 280.535 649.282 281.826 645.934 284.608C644.767 285.577 643.869 286.796 643.938 287.317C644.666 292.834 640.14 293.64 638.785 288.234C638.282 286.229 636.423 282.874 634.654 280.779C630.878 276.307 617.462 262.947 616.747 262.947C616.476 262.947 613.829 264.249 610.863 265.841C607.897 267.432 603.385 268.734 600.835 268.734C596.17 268.734 591.7 272.834 591.7 277.115C591.7 279.046 588.189 283.351 586.695 283.251C586.269 283.223 585.283 283.2 584.505 283.2C583.726 283.2 581.688 285.966 579.976 289.348C576.718 295.78 574.559 297.959 572.626 296.763C571.994 296.372 569.636 297.14 567.386 298.471C563.599 300.71 562.96 300.716 558.756 298.539C553.225 295.676 551.383 292.49 551.498 285.985C551.545 283.26 551.285 279.362 550.919 277.324C550.552 275.286 550.81 272.11 551.492 270.266C552.612 267.235 553.319 267.01 558.849 267.926C574.849 270.575 574.093 270.786 575.202 263.378C576.355 255.685 573.601 249.502 568.684 248.743C567.037 248.488 565.69 247.449 565.69 246.432C565.69 243.576 570.796 238.356 573.589 238.356C578.917 238.356 586.01 233.372 600.14 219.703C614.072 206.226 614.82 205.198 614.82 199.552C614.82 191.113 618.526 193.016 619.726 202.072L620.645 209.01L630.132 209.897C637.501 210.585 640.404 210.269 643.132 208.48C645.377 207.007 648.181 206.484 650.906 207.029C655.768 208.003 656.761 206.963 658.979 198.577C660.475 192.922 660.658 192.788 666.927 192.788C673.203 192.788 673.353 192.678 673.822 187.731C674.437 181.243 676.019 179.443 682.924 177.371C691.102 174.919 692.874 172.21 688.474 168.888C683.58 165.193 678.597 164.526 672.244 166.717C665.616 169.003 665.04 168.3 664.434 157.188C664.056 150.248 664.689 147.556 668.321 140.643C673.527 130.736 674.518 123.708 670.816 122.941C666.947 122.139 659.81 131.006 661.77 134.181C662.62 135.558 651.591 147.221 649.438 147.221C647.99 147.221 645.128 155.864 645.602 158.803C645.796 160.002 647.077 162.588 648.45 164.55C651.145 168.402 651.793 175.457 649.578 176.828C648.825 177.293 646.074 181.563 643.464 186.316C640.854 191.069 637.994 194.958 637.108 194.958C634.72 194.958 630.715 190.043 630.715 187.111C630.715 183.58 626.146 176.152 623.973 176.152C622.992 176.152 621.669 176.966 621.033 177.961C620.398 178.955 618.771 180.637 617.418 181.697C615.281 183.372 614.378 183.032 610.554 179.116C608.132 176.635 606.15 173.131 606.15 171.329C606.15 169.526 605.396 167.296 604.474 166.373C603.552 165.45 602.918 161.313 603.064 157.177C603.35 149.084 604.244 147.882 613.737 142.819C619.121 139.947 624.914 132.448 627.099 125.522C627.727 123.533 629.447 121.055 630.923 120.015C632.398 118.976 633.605 116.894 633.605 115.389C633.605 113.884 636.722 108.876 640.531 104.26C644.341 99.6437 648.594 93.4346 649.982 90.4617C652.736 84.5682 657.113 81.4085 660.644 82.7651C661.881 83.2401 666.219 81.7782 670.285 79.5166C675.843 76.4254 679.74 75.3685 685.987 75.2591C695.393 75.0944 696.748 77.1544 691.154 83.116L688.012 86.4641H693.216C697.047 86.4641 699.171 87.4189 701.262 90.0806C703.261 92.6238 705.509 93.697 708.84 93.697C711.444 93.697 714.809 94.8143 716.316 96.1798C717.823 97.5454 721.362 99.9865 724.181 101.605C727.646 103.594 729.902 106.313 731.148 110.001C732.829 114.978 732.737 115.634 730.095 117.487C728.502 118.603 726.232 119.146 725.051 118.692C723.87 118.239 722.39 118.7 721.763 119.716C720.173 122.291 712.378 118.765 710.056 114.421C708.562 111.626 704.293 109.659 699.353 109.489C698.558 109.461 697.543 110.942 697.097 112.779C696.474 115.34 697.317 116.892 700.709 119.433C705.575 123.077 707.046 125.793 707.199 131.418C707.309 135.446 712.461 140.96 715.97 140.806C717.163 140.754 718.35 139.211 718.61 137.378C718.896 135.36 720.582 133.474 722.887 132.597C724.98 131.801 728.344 129.307 730.363 127.055C733.671 123.366 738.039 121.94 748.122 121.256C750.227 121.113 749.169 117.258 746.315 114.672C742.843 111.527 742.609 107.74 745.696 104.65C749.048 101.295 750.65 101.87 750.65 106.427C750.65 114.634 758.418 116.791 762.446 109.702C765.718 103.946 783.885 95.2034 783.885 99.3859C783.885 102.558 789.97 102.595 793.321 99.443C795.746 97.1619 797.75 96.4926 800.264 97.1241C803.001 97.812 804.813 96.9714 808.31 93.3907C812.643 88.9536 813.062 88.8334 818.823 90.3729C822.123 91.2547 825.627 91.6674 826.609 91.2899C828.897 90.4112 830.081 85.9279 830.106 78.0512C830.117 74.6175 830.777 70.5884 831.574 69.0978C832.569 67.2379 832.531 66.0829 831.454 65.4168C830.52 64.8388 831.688 63.3488 834.34 61.7338C836.791 60.242 838.795 58.361 838.795 57.5537C838.795 55.2357 846.912 55.8452 848.961 58.317C850.362 60.007 850.405 60.9544 849.138 62.2228C846.722 64.6416 847.099 76.3288 849.757 81.401C853.164 87.9021 853.425 99.729 850.34 107.798C847.953 114.043 847.325 114.634 843.482 114.249C836.96 113.596 834.825 117.144 837.881 123.56C839.751 127.486 840.91 128.447 842.812 127.651C844.179 127.079 847.249 126.183 849.633 125.661C854.915 124.503 863.36 112.79 863.36 106.621C863.36 101.515 866.153 95.1436 868.391 95.1436C869.471 95.1436 870.163 98.6007 870.335 104.844C870.482 110.179 871.211 115.154 871.954 115.898C873.808 117.753 883.59 112.974 883.59 110.214C883.59 109.03 882.613 106.568 881.418 104.742C880.223 102.917 878.989 98.7533 878.675 95.4901C877.941 87.8606 876.984 86.4452 872.796 86.7922C868.314 87.1636 862.188 83.8166 861.106 80.405C858.681 72.7553 858.135 58.8683 860.12 55.3178C861.404 53.0203 861.753 53.1737 863.539 56.8205C864.633 59.0543 866.503 61.3171 867.695 61.849C880.445 67.5368 881.421 68.5289 881.468 75.8416C881.528 85.094 882.657 86.8279 887.255 84.7308C890.069 83.4468 890.82 82.0186 890.835 77.914C890.847 75.0582 891.208 71.408 891.639 69.8025C892.188 67.7553 890.705 64.9646 886.672 60.4594C882.12 55.3745 881.21 53.4951 882.307 51.4441C883.069 50.0189 884.157 48.8045 884.725 48.7454C891.605 48.0294 895.659 45.3905 895.835 41.514C895.856 41.0579 897.499 38.2909 899.485 35.3652C901.785 31.9789 903.87 30.3367 905.221 30.8463C906.389 31.2865 906.949 31.25 906.464 30.7651C905.98 30.2801 908.275 26.8573 911.566 23.1588C923.934 9.25604 922.915 9.87501 932.167 10.6404C939.551 11.2512 941.05 11.9244 944.585 16.2174C947.485 19.7398 949.424 20.8853 951.544 20.3301C956.103 19.1368 958.683 14.4956 957.28 10.0136C956.62 7.90435 955.688 4.38848 955.21 2.20052C954.344 -1.76255 954.371 -1.77759 962.288 -1.77759C969.635 -1.77759 970.306 -1.49435 971.175 1.97119C971.982 5.19089 972.649 5.57609 975.899 4.7006C983.008 2.78555 989.329 3.3754 990.85 6.09568C991.643 7.51429 993.564 9.94867 995.119 11.5054C997.737 14.1266 997.779 14.592 995.678 17.8009C994.431 19.7067 993.41 22.5443 993.41 24.1067C993.41 27.4406 991.4 29.4906 983.396 34.3162C980.162 36.2663 977.515 38.6609 977.515 39.6376C977.515 40.6142 976.573 42.3568 975.421 43.51C973.703 45.2302 973.658 46.06 975.17 48.1301C976.898 50.4968 977.366 50.4301 982.704 47.0567C985.834 45.0786 989.263 42.4133 990.324 41.134C992.066 39.0321 992.756 39.0186 997.477 40.9933C1000.35 42.1953 1003.05 43.6522 1003.47 44.2309C1003.9 44.8095 1006.36 47.0215 1008.95 49.1465C1012.58 52.1351 1014.71 52.8443 1018.34 52.2785C1020.92 51.8762 1027.05 52.499 1031.95 53.6626C1040.68 55.7313 1040.99 55.7014 1045.97 52.3155C1051.4 48.6229 1054.1 47.9524 1054.1 50.2995C1054.1 51.0951 1055 51.7461 1056.1 51.7461C1059.38 51.7461 1062.57 58.1343 1063.05 65.667L1063.49 72.7215L1071.58 72.2551C1076.14 71.9919 1083.13 72.7971 1087.62 74.1021C1095 76.2496 1101.18 75.9675 1099.68 73.5512C1099.33 72.9808 1099.94 70.7878 1101.03 68.6779C1102.12 66.568 1103.23 63.4264 1103.49 61.6965C1103.74 59.9665 1105.07 57.852 1106.43 56.9974C1108.41 55.7552 1109.76 56.2641 1113.17 59.5354C1117.47 63.6548 1126.99 65.7892 1128.71 63.0157C1129.86 61.1461 1137.89 63.1898 1141.08 66.1643C1142.56 67.5448 1144.04 70.0756 1144.37 71.7883C1145.25 76.3679 1146.13 77.3437 1150.82 78.9807C1154.21 80.1657 1156.15 79.905 1160.52 77.6766C1169.05 73.3212 1173.05 74.4024 1174.26 81.3922C1174.88 85.0044 1180.29 87.9771 1187.59 88.7226C1190.68 89.0376 1195.43 90.6112 1198.15 92.2195C1200.87 93.8277 1203.91 95.1436 1204.9 95.1436C1205.9 95.1436 1208.91 96.771 1211.61 98.7601C1217.78 103.32 1224.61 103.667 1224.61 99.4202C1224.61 97.7943 1226.2 94.7518 1228.13 92.6592L1231.66 88.8546L1239.11 92.7224C1243.2 94.8497 1247.69 96.5902 1249.08 96.5902C1250.48 96.5902 1252.85 97.9588 1254.37 99.6315C1257.06 102.612 1265.07 107.456 1265.07 106.105C1265.07 105.729 1266.94 106.073 1269.23 106.872C1272.47 108.001 1273.57 109.456 1274.22 113.435C1274.67 116.247 1275.75 119.398 1276.61 120.439C1278.26 122.429 1283.86 121.756 1283.86 119.567C1283.86 117.445 1289.27 118.132 1291.7 120.562C1295.04 123.905 1294.49 127.199 1289.73 132.418L1285.49 137.065L1274.61 131.293C1268.62 128.119 1262.75 125.522 1261.55 125.522C1260.35 125.522 1258.4 127.396 1257.21 129.686C1256.03 131.977 1253.99 134.264 1252.67 134.768C1250.7 135.525 1250.39 137.319 1250.88 145.031L1251.48 154.376L1244.55 156.87C1240.73 158.242 1237.62 159.817 1237.62 160.369C1237.62 160.921 1236.02 161.773 1234.08 162.262C1232.13 162.751 1229.68 164.937 1228.64 167.12C1226.96 170.609 1225.92 171.089 1219.98 171.089C1214.14 171.089 1212.65 171.745 1208.86 175.989C1204.99 180.328 1203.89 180.791 1199.25 180.037C1192.37 178.92 1188.48 181.335 1189.29 186.206C1192.15 203.285 1190.18 211.607 1182.27 215.894C1179.73 217.272 1176.67 220.448 1175.48 222.952C1173.03 228.098 1169.53 228.954 1168.69 224.613C1167.39 217.849 1168 207.852 1169.87 205.549C1171.21 203.897 1171.27 203.441 1170.06 204.168C1169.07 204.766 1168.26 204.565 1168.26 203.723C1168.26 202.03 1171.24 198.289 1177.29 192.398C1179.47 190.269 1181.26 187.561 1181.26 186.379C1181.26 185.197 1183.48 181.925 1186.2 179.107C1188.92 176.288 1191.36 172.681 1191.62 171.089C1192.02 168.672 1191.38 168.256 1187.76 168.558C1185.38 168.757 1182.02 168.187 1180.29 167.291C1177.74 165.965 1176.4 166.205 1173.07 168.581C1167.99 172.205 1163.95 176.625 1161.84 180.864C1160.05 184.461 1154.33 185.513 1152.67 182.549C1150.64 178.908 1144.71 177.759 1140.53 180.196C1137.16 182.159 1135.86 182.201 1130.76 180.516C1126.38 179.07 1124.05 178.975 1121.64 180.143C1119.86 181.007 1116.76 182.065 1114.75 182.496C1109.67 183.584 1095.93 201.911 1094.56 209.432C1093.45 215.481 1094.49 217.367 1099.45 218.309C1101.24 218.65 1102.92 221.183 1104.37 225.74C1106.27 231.724 1106.31 234.03 1104.64 242.896C1103.58 248.529 1101.93 253.913 1100.99 254.859C1100.04 255.805 1098.26 258.5 1097.04 260.848C1094.2 266.261 1083.16 277.413 1080.64 277.413C1079.58 277.413 1076.11 278.461 1072.91 279.741C1067.95 281.731 1066.45 283.446 1062.57 291.572C1058.49 300.13 1058.21 301.551 1059.77 305.851C1061.28 310.048 1061.14 311.004 1058.59 313.741L1055.7 316.854L1054.76 313.128C1054.25 311.079 1054.26 308.71 1054.78 307.863C1055.82 306.171 1052.33 302.005 1049.87 302.005C1048.31 302.005 1047.91 300.671 1047.95 295.719C1047.96 293.605 1047.18 293.207 1044.17 293.809C1035.04 295.635 1034.6 295.567 1034.13 292.241C1033.86 290.295 1032.66 288.986 1031.16 288.986C1028.38 288.986 1019.42 297.558 1019.42 300.215C1019.42 302.483 1024.17 304.898 1028.63 304.898C1034.17 304.898 1034.51 307.373 1029.63 312.256C1025.45 316.444 1025.25 317.169 1025.92 325.447C1026.43 331.666 1027.44 334.908 1029.43 336.628C1032.13 338.978 1032.14 339.22 1029.64 344.758C1025.69 353.529 1014.5 365.162 1008.96 366.264C1006.37 366.778 1001.66 368.425 998.495 369.922C995.331 371.42 992.105 372.251 991.325 371.768C989.737 370.786 981.032 371.117 977.154 372.307C972.969 373.591 974.227 387.982 978.849 391.694C981.35 393.702 984.717 400.666 985.003 404.422C985.415 409.836 981.422 415.975 976.72 417.156C973.701 417.915 971.832 416.857 965.903 411.031C961.96 407.158 958.734 403.133 958.733 402.085C958.731 400.865 957.316 400.345 954.79 400.639C950.525 401.134 946.418 407.102 948.542 409.719C949.213 410.546 950.589 414.013 951.601 417.423C952.612 420.834 954.858 425.157 956.592 427.029C961.371 432.192 966.413 440.902 965.278 442.037C964.725 442.592 962.389 440.767 960.087 437.983C957.786 435.199 954.685 431.619 953.197 430.028C947.948 424.415 946.842 420.474 944.862 400.314C943.748 388.965 940.895 383.85 936.878 386.002C933.936 387.579 931.275 386.734 931.275 384.222C931.275 383.39 929.712 380.848 927.801 378.575C925.89 376.301 924.067 373.662 923.75 372.709C923.433 371.757 918.982 370.467 913.858 369.842C904.756 368.733 904.449 368.806 900.432 373.036C898.171 375.417 893.81 378.952 890.74 380.892C885.144 384.429 881.948 388.662 881.121 393.635C880.877 395.101 879.708 397.686 878.522 399.382C877.336 401.077 876.365 403.338 876.365 404.408C876.365 407.47 866.549 417.193 865.123 415.544C864.444 414.758 863.023 410.535 861.967 406.159C860.91 401.783 858.516 395.936 856.646 393.166C854.776 390.395 853.245 386.327 853.245 384.125C853.245 381.923 852.608 380.121 851.828 380.121C851.048 380.121 850.001 378.488 849.501 376.492C848.949 374.292 847.231 372.521 845.138 371.995C843.212 371.511 841.685 370.053 841.685 368.698C841.685 366.007 830.732 356.232 825.509 354.261C823.677 353.569 818.639 352.576 814.315 352.054C803.684 350.771 800 349.804 793.697 346.644C790.748 345.166 786.641 343.956 784.571 343.956C778.617 343.956 775.235 341.348 772.301 334.497C769.532 328.029 767.978 327.095 758.598 326.26C753.552 325.811 753.445 327.869 758.019 337.357C759.53 340.49 760.765 344.233 760.765 345.675C760.765 347.623 761.879 348.296 765.1 348.296C768.727 348.296 769.435 348.87 769.435 351.809C769.435 358.909 777.932 362.706 780.995 356.975C782.761 353.674 788.22 353.038 788.22 356.134C788.22 357.263 790.496 359.594 793.278 361.315C796.06 363.036 798.318 365.205 798.296 366.135C798.227 369.144 788.231 378.721 782.001 381.748C778.666 383.368 774.963 385.191 773.77 385.8C772.578 386.409 768.027 387.705 763.655 388.681C759.284 389.656 754.35 391.112 752.691 391.916C751.032 392.72 747.804 393.161 745.518 392.897C742.107 392.503 741.184 391.547 740.379 387.572C739.839 384.907 737.11 380.35 734.315 377.446C731.52 374.541 728.215 369.886 726.971 367.102C725.727 364.317 721.242 355.529 717.005 347.573C710.489 335.338 708.76 333.107 705.792 333.107C700.84 333.107 700.517 337.303 705.014 343.205C707.43 346.376 708.745 349.94 708.745 353.313C708.745 356.179 709.752 360.061 710.982 361.94C712.212 363.82 713.519 367.019 713.887 369.05C714.255 371.081 716.5 374.873 718.876 377.477C721.437 380.285 723.195 383.802 723.195 386.117C723.195 389.298 724.134 390.333 728.253 391.694C731.035 392.613 733.363 394.128 733.428 395.061C733.492 395.993 733.655 399.36 733.789 402.543C734.026 408.158 734.172 408.316 738.729 407.875C741.312 407.625 743.425 408.091 743.425 408.909C743.425 412.069 748.761 413.392 753.023 411.288C755.294 410.166 759.042 408.783 761.35 408.215C765.472 407.198 765.53 407.266 764.579 412.023C764.047 414.686 763.066 417.223 762.399 417.66C761.732 418.097 760.278 420.205 759.169 422.344C756.94 426.644 745.411 440.14 733.59 452.288C723.142 463.024 721.428 467.439 723.87 477.317C724.915 481.541 727.304 489.121 729.179 494.16L732.588 503.321L726.808 508.242C723.629 510.949 719.89 513.173 718.499 513.185C717.108 513.197 715.97 513.858 715.97 514.653C715.97 515.449 715.065 516.1 713.958 516.1C711.047 516.1 710.132 519.606 711.133 526.921C711.981 533.113 711.83 533.441 706.768 536.431C703.884 538.135 701.87 540.088 702.292 540.772C702.714 541.455 700.471 547.169 697.307 553.469C689.283 569.446 675.867 579.412 665.209 577.313C663.12 576.902 660.969 577.282 660.428 578.157C659.009 580.455 655.937 580.115 653.696 577.412V577.412ZM780.964 302.064C783.439 297.435 781.12 283.483 777.165 279.211C775.298 277.194 773.77 274.376 773.77 272.948C773.77 271.52 773.12 269.949 772.325 269.457C768.706 267.217 771.169 265.517 776.741 266.409L782.601 267.347L782.16 260.561C781.776 254.659 781.126 253.446 777.166 251.239C772.984 248.908 771.862 248.874 763.357 250.816C755.84 252.532 753.639 253.71 751.652 257.077C748.442 262.518 748.563 266.103 752.095 270.18C753.685 272.015 754.985 274.696 754.985 276.138C754.985 277.58 756.891 280.932 759.221 283.589C762.854 287.731 763.345 289.253 762.67 294.291C761.999 299.297 762.382 300.515 765.258 302.532C770.091 305.92 779.045 305.654 780.964 302.064V302.064ZM808.664 271.989C811.734 266.636 813.088 257.099 811.116 254.721C810.25 253.676 807.661 252.821 805.362 252.821C802.198 252.821 800.488 253.963 798.32 257.523C794.667 263.52 794.717 265.313 798.697 271.166C802.662 276.997 805.65 277.243 808.664 271.989V271.989ZM743.425 538.471C743.425 537.25 742.404 534.689 741.155 532.782C739.361 530.04 739.231 528.666 740.535 526.226C741.443 524.529 742.073 521.068 741.936 518.535C741.529 510.995 741.715 510.724 748.483 509.018C753.792 507.68 754.985 506.778 754.985 504.105C754.985 498.719 759.061 494.173 763.434 494.68C766.824 495.073 767.223 495.686 766.882 499.968C766.67 502.631 764.744 508.49 762.603 512.987C760.462 517.484 758.559 522.139 758.373 523.333C756.882 532.944 754.445 537.704 750.271 539.161C744.429 541.2 743.425 541.099 743.425 538.471ZM1132.96 489.975C1131.43 488.431 1129.16 487.108 1127.9 487.034C1126.65 486.961 1122.7 486.724 1119.13 486.509C1108.13 485.847 1101.42 483.102 1092.42 475.582C1084.69 469.127 1081.86 467.64 1078.33 468.183C1077.75 468.272 1076.86 466.722 1076.37 464.738C1075.87 462.753 1074.88 461.13 1074.17 461.13C1073.47 461.13 1072.89 460.153 1072.89 458.96C1072.89 455.331 1079.04 456.495 1082.45 460.768C1085.43 464.498 1085.92 464.634 1090.39 462.95C1094.69 461.333 1095.67 461.499 1100.28 464.625C1103.09 466.534 1108.23 468.55 1111.69 469.106C1117.72 470.072 1121.04 472.31 1124.18 477.52C1124.98 478.837 1127.25 480.139 1129.24 480.414C1131.52 480.729 1133.6 482.47 1134.88 485.126C1136 487.443 1137.46 489.555 1138.13 489.82C1138.81 490.085 1139.36 490.899 1139.36 491.628C1139.36 493.842 1135.91 492.952 1132.96 489.975V489.975ZM1045.43 490.016C1045.43 489.245 1046.41 488.615 1047.6 488.615C1050.37 488.615 1050.37 489.518 1047.6 490.584C1046.41 491.042 1045.43 490.787 1045.43 490.016ZM987.756 483.697C980.368 481.44 977.827 480.125 979.566 479.457C984.043 477.737 993.565 478.426 998.64 480.837C1002.58 482.709 1003.25 483.589 1001.93 485.177C999.929 487.594 1000.82 487.686 987.756 483.697V483.697ZM1027.37 474.149C1026.88 473.353 1026.83 472.119 1027.27 471.407C1027.71 470.695 1027.1 469.739 1025.91 469.283C1023.09 468.198 1023.1 462.576 1025.92 462.576C1027.25 462.576 1028.09 461.221 1028.09 459.063C1028.09 455.637 1031.4 451.003 1033.86 451.003C1036.53 451.003 1039.59 452.823 1038.87 453.985C1038.46 454.663 1037.16 454.852 1036 454.407C1032.92 453.221 1031.75 457.77 1034.45 460.472C1037.81 463.836 1037.46 470.839 1033.87 471.979C1032.28 472.484 1030.98 473.504 1030.98 474.246C1030.98 476.04 1028.49 475.973 1027.37 474.149V474.149ZM966.006 467.701C964.989 466.473 963.098 465.449 961.805 465.423C958.347 465.356 954.964 462.338 953.741 458.231C953.149 456.245 949.316 451.595 945.222 447.897C941.128 444.2 938.217 440.723 938.753 440.171C939.763 439.131 957.39 448.277 962.169 452.321C965.782 455.379 970.745 467.04 969.124 468.662C968.397 469.39 967.067 468.98 966.006 467.701V467.701ZM997.384 461.53C990.305 459.452 989.908 458.771 991.405 451.276C992.091 447.843 993.536 446.349 997.835 444.627C1000.88 443.405 1004.01 441.248 1004.77 439.833C1005.53 438.419 1008.13 436.108 1010.54 434.698C1014.8 432.205 1014.99 432.218 1017.74 435.168C1021.91 439.647 1020.8 452.284 1015.64 459.051C1012.63 463.003 1011.4 463.717 1009.84 462.42C1008.55 461.351 1007.23 461.26 1006.05 462.16C1004.88 463.061 1001.85 462.841 997.384 461.53V461.53ZM1055.55 452.45C1055.55 451.654 1056.2 451.003 1056.99 451.003C1057.79 451.003 1058.44 451.654 1058.44 452.45C1058.44 453.246 1057.79 453.897 1056.99 453.897C1056.2 453.897 1055.55 453.246 1055.55 452.45ZM1043.99 429.382C1039.61 428.254 1039.2 424.41 1043.39 423.81C1046.8 423.322 1050.95 427.333 1048.91 429.147C1048.19 429.788 1045.97 429.894 1043.99 429.382ZM874.943 423.157C874.954 422.162 875.524 420.465 876.207 419.386C877.795 416.878 879.886 419.788 878.706 422.864C877.721 425.435 874.912 425.653 874.943 423.157ZM1030.85 398.565C1029.62 395.2 1029.79 388.813 1031.14 387.98C1032.24 387.3 1032.49 387.519 1031.84 388.577C1031.27 389.495 1031.39 390.247 1032.11 390.247C1033.22 390.247 1036.76 396.35 1036.76 398.271C1036.76 398.94 1031.09 399.222 1030.85 398.565ZM422.156 382.403C421.675 381.148 421.649 379.161 422.099 377.988C422.811 376.129 423.202 376.142 425.15 378.091C427.139 380.083 427.145 380.566 425.207 382.506C423.269 384.447 422.935 384.435 422.156 382.403ZM986.908 380.121C987.399 379.325 988.738 378.674 989.883 378.674C991.029 378.674 991.965 379.325 991.965 380.121C991.965 380.916 990.627 381.567 988.99 381.567C987.354 381.567 986.417 380.916 986.908 380.121ZM343.883 371.441C343.392 370.646 344.004 369.995 345.243 369.995C346.482 369.995 347.495 370.646 347.495 371.441C347.495 372.237 346.884 372.888 346.136 372.888C345.388 372.888 344.374 372.237 343.883 371.441ZM321.485 368.793C321.485 366.643 328.445 363.796 331.142 364.843C333.647 365.815 333.638 365.957 330.963 367.928C327.93 370.163 321.485 370.75 321.485 368.793ZM1029.54 366.378C1029.54 365.185 1030.19 364.208 1030.98 364.208C1031.78 364.208 1032.43 365.185 1032.43 366.378C1032.43 367.572 1031.78 368.548 1030.98 368.548C1030.19 368.548 1029.54 367.572 1029.54 366.378ZM304.145 362.75C304.145 361.009 302.602 359.996 299.073 359.423C296.283 358.97 292.919 357.516 291.597 356.192C289.915 354.508 287.749 354.02 284.386 354.566C281.743 354.996 279.58 354.737 279.58 353.991C279.58 353.246 280.068 352.586 280.664 352.525C281.26 352.464 283.048 352.074 284.638 351.659C292.364 349.639 298.003 349.586 299.939 351.514C301.06 352.63 305.392 354.77 309.564 356.269C313.737 357.767 317.15 359.732 317.15 360.634C317.15 361.536 314.224 362.945 310.648 363.764C304.873 365.087 304.145 364.973 304.145 362.75ZM1089.27 318.562C1088.83 317.412 1087.28 316.471 1085.82 316.471C1082.57 316.471 1081.37 314.775 1082.88 312.328C1083.9 310.667 1086.71 309.651 1091.11 309.349C1092 309.288 1096.03 305.984 1100.06 302.008C1104.28 297.848 1107.79 295.418 1108.33 296.285C1108.84 297.114 1108.47 298.74 1107.51 299.899C1106.55 301.057 1106.25 302.005 1106.83 302.005C1107.42 302.005 1106.85 303.61 1105.56 305.571C1104.28 307.532 1103.22 310.624 1103.21 312.442C1103.18 317.357 1101.65 318.824 1095.57 319.785C1091.51 320.426 1089.86 320.106 1089.27 318.562V318.562ZM633.083 295.496C632.625 294.302 632.476 293.326 632.751 293.326C633.026 293.326 634.061 294.302 635.05 295.496C636.087 296.746 636.228 297.665 635.382 297.665C634.575 297.665 633.54 296.689 633.083 295.496ZM613.375 286.816C613.375 285.623 613.631 284.646 613.943 284.646C614.256 284.646 614.886 285.623 615.343 286.816C615.8 288.01 615.545 288.986 614.775 288.986C614.005 288.986 613.375 288.01 613.375 286.816ZM1110.03 279.298C1108.13 278.802 1107.7 277.796 1108.41 275.487C1108.94 273.762 1109.46 272.237 1109.56 272.099C1109.67 271.961 1111.98 272.304 1114.69 272.86C1119.72 273.89 1122.69 277.413 1118.52 277.413C1117.27 277.413 1116.24 278.064 1116.24 278.86C1116.24 280.349 1114.54 280.469 1110.03 279.298V279.298ZM1116.04 260.539C1114.62 258.827 1114.07 253.36 1114.07 240.973C1114.07 216.656 1115.77 213.348 1118.39 232.569C1118.87 236.149 1120.22 240.532 1121.38 242.308C1123.27 245.199 1123.2 246.093 1120.65 250.844C1118.61 254.665 1118.2 256.874 1119.19 258.738C1121.04 262.183 1118.57 263.591 1116.04 260.539V260.539ZM378.728 241.88C378.251 240.636 377.28 239.978 376.569 240.418C375.859 240.857 374.581 240.376 373.729 239.348C372.595 237.981 372.933 236.238 374.989 232.854C376.534 230.311 378.452 228.229 379.252 228.229C381.632 228.229 389.4 237.134 389.4 239.862C389.4 244.222 380.286 245.946 378.728 241.88V241.88ZM567.989 226.783C568.555 223.998 569.103 220.33 569.206 218.632C569.31 216.933 570.112 214.655 570.989 213.569C572.743 211.395 571.072 205.084 568.742 205.084C567.985 205.084 566.937 203.135 566.415 200.753C565.892 198.371 564.502 195.883 563.326 195.224C561.164 194.013 561.141 188.614 563.284 185.194C564.837 182.713 570.979 182.91 571.961 185.472C572.401 186.619 572.406 189.747 571.973 192.423C571.354 196.242 571.972 198.225 574.846 201.645C576.86 204.041 578.939 207.721 579.466 209.823C579.993 211.925 581.336 214.402 582.45 215.328C584.963 217.416 585.092 223.046 582.67 224.971C581.676 225.76 578.264 226.876 575.087 227.45C571.909 228.025 568.781 229.249 568.135 230.17C567.489 231.092 567.423 229.568 567.989 226.783V226.783ZM549.121 216.404C550.107 211.879 556.029 203.127 557.266 204.366C557.578 204.678 557.58 207.591 557.271 210.839C556.812 215.655 555.912 217.156 552.39 218.979L548.073 221.214L549.121 216.404H549.121ZM116.295 205.722C116.295 204.482 116.946 203.869 117.74 204.361C118.535 204.852 119.185 205.867 119.185 206.616C119.185 207.365 118.535 207.977 117.74 207.977C116.946 207.977 116.295 206.962 116.295 205.722ZM108.348 192.065C107.857 191.269 108.143 190.618 108.985 190.618C109.827 190.618 110.515 191.269 110.515 192.065C110.515 192.86 110.229 193.511 109.878 193.511C109.528 193.511 108.839 192.86 108.348 192.065ZM417.226 161.749C408.944 159.735 409.492 160.786 399.847 128.415C398.544 124.039 396.96 119.84 396.329 119.085C393.554 115.764 395.2 105.386 399.515 98.9844C404.898 90.9998 404.922 89.0702 399.689 84.6621C394.984 80.6987 392.824 75.626 395.213 74.1482C396.09 73.6054 398.071 74.3061 399.615 75.7052C401.16 77.1043 402.822 77.8494 403.31 77.361C404.948 75.7215 402.333 66.2119 400.244 66.2119C399.128 66.2119 397.594 65.1035 396.837 63.7487C395.693 61.7026 395.08 61.6012 393.216 63.15C389.653 66.1105 387.955 63.7237 387.955 55.7527C387.955 50.7422 387.141 47.4562 385.429 45.5627C383.821 43.784 382.867 40.2987 382.804 35.9758C382.75 32.2401 382.203 28.3691 381.588 27.3735C380.974 26.3779 379.716 22.5366 378.794 18.8371C377.533 13.7768 376.013 11.4667 372.656 9.51008C367.957 6.7717 357.183 5.89759 349.415 7.62463C345.314 8.53647 344.592 8.17945 342.551 4.22813C341.297 1.79962 340.27 -0.545137 340.27 -0.982458C340.27 -1.41978 378.554 -1.77759 425.345 -1.77759H510.419L511.548 2.92381C513.292 10.1813 512.577 14.5799 509.247 17.0946C505.886 19.6325 505.662 28.1788 508.974 27.5158C511.651 26.9799 511.165 29.2502 507.988 32.1289C506.452 33.5204 505.546 35.5741 505.975 36.6928C506.862 39.0078 507.063 38.962 491.789 39.9311C486.409 40.2724 485.271 44.2252 490.03 46.0366C493.24 47.2584 493.664 48.0932 492.934 51.7482C492.245 55.199 492.701 56.3498 495.288 57.6847C501.244 60.7573 505 65.2122 505 69.2025C505 73.8173 501.473 75.7541 498.87 72.5683C494.746 67.5201 491.933 64.7658 490.912 64.7745C490.316 64.7795 488.682 66.799 487.282 69.2622C485.709 72.0278 483.953 73.4404 482.691 72.9555C480.448 72.094 476.995 75.3049 478.521 76.8327C479.044 77.3563 481.292 77.7846 483.515 77.7846C486.08 77.7846 488.124 78.8428 489.105 80.6778C490.118 82.5722 492.131 83.5709 494.936 83.5709C498.164 83.5709 499.22 84.2407 499.22 86.287C499.22 90.0304 496.631 91.8466 488.783 93.6073C484.567 94.5532 480.027 96.9958 476.559 100.184C473.525 102.974 469.742 105.262 468.153 105.271C465.694 105.284 460.006 111.702 453.287 122.044C452.721 122.915 450.326 124.543 447.964 125.66C445.005 127.06 442.945 129.658 441.336 134.017C440.053 137.496 437.497 141.479 435.658 142.868C433.403 144.57 432.564 146.349 433.08 148.328C434.132 152.354 428.327 162.35 424.764 162.649C423.196 162.781 419.804 162.375 417.226 161.749V161.749ZM346.243 148.179C344.787 146.42 342.888 146.015 339.013 146.635C333.924 147.45 333.573 147.209 327.962 139.031C322.479 131.038 321.827 130.57 315.82 130.304C302.372 129.708 304.885 117.913 318.742 116.588C323.495 116.134 323.654 115.916 323.7 109.818C323.726 106.352 322.971 102.453 322.021 101.152C320.471 99.03 319.904 99.2081 316.496 102.89C312.987 106.68 312.456 106.831 309.506 104.873C303.008 100.561 306.083 96.5518 316.301 96.0127C320.998 95.7649 320.336 92.9387 315.142 91.0584C312.424 90.0746 309.839 88.324 309.395 87.168C308.941 85.9827 307.621 85.4385 306.368 85.92C304.925 86.4742 304.145 85.9418 304.145 84.4024C304.145 81.8294 298.766 79.1834 295.818 80.3064C294.815 80.6887 293.058 80.2238 291.914 79.2735C290.77 78.3229 288.472 77.9782 286.807 78.5073C284.58 79.2151 281.986 78.0181 276.984 73.9744C273.246 70.9524 269.664 67.8069 269.023 66.9843C268.382 66.1617 268.191 60.9319 268.598 55.3625C269.237 46.6174 269.876 44.7709 273.279 41.823C277.061 38.5471 277.298 38.5169 279.164 41.0716C280.327 42.6627 280.755 45.3451 280.23 47.7398C279.046 53.1334 282.844 53.1481 287.486 47.7679L290.919 43.7898L292.425 47.4063C295.487 54.7567 297.811 56.4426 304.06 55.846C307.286 55.538 309.925 55.6663 309.925 56.131C309.925 56.5958 313.224 56.976 317.255 56.976C325.9 56.976 327.667 58.8241 326.431 66.5736C325.639 71.5419 325.851 71.9983 328.945 71.9995C333.891 72.001 343.16 82.0622 343.16 87.4284C343.16 89.7622 342.48 92.353 341.648 93.1855C340.596 94.2394 342.063 95.4359 346.479 97.1244C349.978 98.4619 353.644 101.086 354.655 102.977C355.662 104.862 359.015 107.398 362.105 108.613C366.064 110.17 367.478 111.465 366.891 112.996C366.433 114.192 366.803 116.564 367.714 118.268C370.324 123.15 367.15 125.794 359.264 125.308C351.596 124.836 350.662 126.273 353.345 134.412C354.828 138.911 354.844 140.437 353.424 141.839C352.015 143.23 351.24 143.068 349.768 141.073C347.797 138.403 343.16 137.584 343.16 139.906C343.16 140.656 344.52 142.224 346.182 143.389C347.844 144.554 348.982 146.645 348.711 148.036C348.255 150.375 348.07 150.386 346.243 148.179V148.179ZM279.967 139.662C274.421 135.755 274.141 133.432 278.548 127.918L281.836 123.804L288.656 127.121C293.849 129.647 295.475 131.232 295.475 133.766C295.475 136.178 294.644 137.095 292.456 137.095C290.795 137.095 288.357 138.413 287.037 140.024L284.638 142.953L279.967 139.662V139.662ZM515.838 138.201C514.248 137.267 510.347 136.148 507.168 135.714C501.512 134.942 501.378 134.788 500.934 128.58C500.367 120.653 501.705 119.24 507.776 121.359C511.302 122.59 512.797 122.597 513.543 121.389C514.097 120.492 517.441 119.362 520.974 118.879C526.555 118.116 527.929 118.494 531.444 121.759C536.187 126.165 535.761 127.385 526.9 134.761C519.915 140.576 519.891 140.583 515.838 138.201V138.201ZM763.041 95.3188C762.593 94.5936 763.199 93.6269 764.386 93.1707C765.574 92.7145 766.545 92.9333 766.545 93.657C766.545 95.618 763.978 96.8356 763.041 95.3188ZM184.572 88.6887C175.18 84.3466 174.855 81.5581 183.488 79.3821C187.755 78.3065 189.99 76.9583 189.99 75.4608C189.99 73.573 188.43 73.2641 180.959 73.6734L171.928 74.1681L172.415 66.2119C173.086 55.2538 175.299 52.3479 184.473 50.3781C191.341 48.9037 192.278 49.012 194.28 51.5126C195.497 53.0331 198.281 54.6966 200.467 55.2091C202.652 55.7216 204.465 56.9422 204.496 57.9216C204.527 58.901 206.64 61.0144 209.192 62.6182C211.745 64.222 214.025 66.8654 214.259 68.4925C214.493 70.1197 216.603 72.5852 218.947 73.9714C223.88 76.8887 225.538 81.7375 223.569 87.487C222.463 90.715 221.49 91.3971 218.731 90.88C213.603 89.919 201.437 90.1044 196.493 91.2189C193.383 91.9199 190.013 91.2044 184.572 88.6887V88.6887ZM235.508 90.8038C234.226 88.7278 235.991 86.4564 238.844 86.5101C241.905 86.5677 246.624 90.0432 245.36 91.3085C243.882 92.7875 236.499 92.4093 235.508 90.8038V90.8038ZM785.981 76.4493C785.226 75.7149 782.669 74.9012 780.3 74.6411C774.626 74.0182 771.977 67.7008 775.674 63.6103C777.012 62.1312 778.126 59.6704 778.151 58.1418C778.177 56.6132 779.092 54.1805 780.186 52.7359C781.87 50.5131 782.625 50.39 785.097 51.9356C787.311 53.3203 787.688 54.3788 786.654 56.313C785.785 57.938 785.839 61.1169 786.801 65.0696C789.53 76.2814 789.735 77.7846 788.538 77.7846C787.886 77.7846 786.736 77.1837 785.981 76.4493V76.4493ZM1254.66 73.2621C1252.84 71.6501 1252.1 70.7104 1253.03 71.1737C1253.95 71.6371 1254.93 71.3779 1255.19 70.5976C1255.88 68.5823 1262.18 70.5095 1262.18 72.7355C1262.18 75.9953 1258.09 76.2821 1254.66 73.2621ZM150.157 65.0668C146.828 62.8176 144.199 57.2826 144.847 53.8881C145.224 51.9143 146.031 50.2995 146.64 50.2995C148.284 50.2995 149.826 44.4333 149.56 39.1938C149.196 32.0029 153.889 30.6951 169.173 33.7282C172.78 34.4439 179.875 41.2152 179.875 43.9413C179.875 45.001 176.982 48.0043 173.445 50.6153C169.908 53.2263 166.387 57.0913 165.62 59.2042C164.853 61.3171 163.033 63.3722 161.574 63.7711C154.697 65.6525 151.552 66.0094 150.157 65.0668V65.0668ZM232.859 63.8009C232.329 63.2705 231.891 61.8059 231.886 60.5461C231.882 59.2864 229.768 57.0437 227.19 55.5623L222.503 52.869L225.754 50.6845C227.642 49.416 229.005 47.0192 229.005 44.9683C229.005 41.8553 229.562 41.4904 233.702 41.89C237.733 42.2791 238.462 42.9576 238.849 46.683C239.097 49.0699 240.357 51.8344 241.648 52.8264C243.812 54.4893 243.807 55.025 241.581 59.6976C239.326 64.4311 235.355 66.2995 232.859 63.8009H232.859ZM248.341 50.6611C247.819 48.4732 246.906 46.032 246.313 45.2364C244.838 43.2595 247.22 37.4084 249.923 36.3701C251.134 35.9048 253.263 36.017 254.654 36.6195C256.045 37.2219 258.483 37.9501 260.073 38.2377C261.662 38.5252 263.725 39.0385 264.657 39.3784C267.339 40.3567 265.195 45.5886 261.006 48.2899C258.903 49.6457 256.663 51.6289 256.027 52.6971C253.957 56.1776 249.368 54.962 248.341 50.6611V50.6611ZM303.213 47.0964C300.241 44.9821 298.774 42.7696 298.899 40.5878C299.132 36.5198 299.851 36.4813 304.673 40.2784C306.767 41.9274 308.48 42.8241 308.48 42.2711C308.48 41.7181 309.442 42.0647 310.618 43.0413C312.204 44.3597 312.377 45.5229 311.289 47.5582C309.428 51.0403 308.7 50.9987 303.213 47.0964V47.0964ZM1108.25 44.4498C1106.97 42.3807 1110.24 38.7268 1113.37 38.7268C1116.07 38.7268 1118.25 42.4142 1116.88 44.6437C1115.76 46.4497 1109.4 46.3066 1108.25 44.4498V44.4498ZM785.33 41.0154C785.33 39.8506 785.893 38.5495 786.58 38.1241C787.268 37.6988 788.185 34.7062 788.618 31.474C789.571 24.3623 793.167 18.476 796.563 18.4707C797.966 18.4685 800.323 16.0943 801.949 13.046C804.76 7.77717 805.078 7.6197 813.293 7.42833C819.407 7.28593 822.889 6.38531 825.877 4.17352C830.75 0.566397 832.417 0.361081 833.518 3.23224C834.397 5.52663 829.031 10.4763 823.894 12.1084C822.187 12.6507 819.089 14.9186 817.008 17.1482C814.928 19.3778 811.338 21.6609 809.032 22.2217C805.339 23.1196 792.555 34.9298 792.555 37.444C792.555 37.9665 790.93 39.4604 788.943 40.7636C785.886 42.769 785.33 42.8077 785.33 41.0154V41.0154ZM273.078 29.386C270.694 28.3285 266.99 26.773 264.849 25.9293C261.398 24.5702 260.84 23.388 259.955 15.5581C258.989 7.00334 258.782 6.65069 253.485 4.52907C246.581 1.76368 244.807 -1.79667 250.365 -1.73158C252.525 -1.70628 255.555 -0.729833 257.098 0.438295C258.641 1.60643 261.079 2.56217 262.517 2.56217C263.954 2.56217 265.151 3.37587 265.176 4.3704C265.288 8.75997 269.284 11.1549 278.968 12.6354C284.471 13.4767 292.062 14.8742 295.837 15.7408C302.124 17.1843 302.7 17.676 302.7 21.5974C302.7 24.4589 302.149 25.5369 301.036 24.8486C300.121 24.2823 298.549 24.9463 297.542 26.3242C296.082 28.3227 295.117 28.5103 292.767 27.2513C290.436 26.0026 288.828 26.2795 285.062 28.5782C279.57 31.9302 278.914 31.9745 273.078 29.386V29.386ZM186.415 25.2945L187.361 20.2472L180.728 20.9956C174.581 21.6893 174.095 21.5044 174.095 18.4689C174.095 16.6676 174.849 12.6772 175.769 9.60128C177.667 3.25903 180.815 2.34664 184.964 6.93611C186.922 9.10278 187.897 9.39965 188.712 8.07857C189.542 6.73477 190.546 6.95725 192.778 8.97883C195.701 11.6273 195.772 11.5919 197.943 6.38979C199.154 3.48897 200.396 1.11558 200.705 1.11558C201.013 1.11558 202.608 3.39395 204.249 6.17863C206.128 9.36613 208.338 11.2417 210.217 11.2417C214.343 11.2417 215.193 14.4905 212.455 19.7906C209.944 24.6519 207.715 25.5 206.408 22.0911C205.577 19.9225 201.398 18.9551 201.722 21.0061C202.551 26.263 201.442 27.5151 196.649 26.7363C193.473 26.2204 190.642 26.7149 188.608 28.1409C185.531 30.2987 185.488 30.2429 186.415 25.2945V25.2945ZM1097.67 27.3337L1092.83 24.7647L1097.67 19.6902C1101.65 15.5171 1103.57 14.6052 1108.5 14.5562C1113.49 14.5067 1114.76 15.0916 1116.1 18.0406C1118.24 22.7369 1117.06 24.2609 1111.27 24.2609C1108.16 24.2609 1105.78 25.2503 1104.49 27.0818C1102.57 29.8164 1102.36 29.8241 1097.67 27.3337V27.3337ZM248.089 26.3327C246.362 25.1219 244.41 22.0458 243.75 19.4969C242.177 13.4205 237.675 12.2865 237.675 17.9667V22.0107L234.571 18.9032C231.739 16.0682 231.181 15.9835 228.201 17.938C225.094 19.976 224.889 19.8708 223.991 15.78C223.473 13.4147 221.787 10.0245 220.247 8.2461C216.508 3.93065 216.685 1.97709 220.697 3.28379C224.807 4.62281 228.851 4.62984 232.898 3.30498C235.576 2.42829 236.406 3.07626 238.243 7.47769C239.439 10.3435 241.377 12.6883 242.548 12.6883C246.582 12.6883 253.661 19.9834 253.172 23.6359C252.535 28.403 251.685 28.854 248.089 26.3327V26.3327ZM1131.41 25.7075C1130.92 24.9119 1131.82 24.2609 1133.4 24.2609C1134.99 24.2609 1136.7 24.9119 1137.19 25.7075C1137.68 26.5031 1136.78 27.1541 1135.19 27.1541C1133.6 27.1541 1131.9 26.5031 1131.41 25.7075ZM297.088 4.65094C293.368 1.51752 292.221 1.20917 289.569 2.62989C287.288 3.85206 285.51 3.88244 283.01 2.742C275.886 -0.507732 279.375 -1.88839 293.652 -1.46833C305.298 -1.1257 307.802 -0.648046 308.175 1.30164C308.628 3.67196 305 8.34851 302.708 8.34851C302.031 8.34851 299.502 6.6846 297.088 4.65094V4.65094ZM159.931 5.16268C158.979 4.20977 158.2 2.25838 158.2 0.826264C158.2 -1.30917 159.414 -1.77759 164.944 -1.77759C168.653 -1.77759 171.413 -1.61485 171.078 -1.41594C170.743 -1.21704 168.487 0.734352 166.065 2.92047C162.645 6.0077 161.275 6.50837 159.931 5.16268V5.16268Z" fill="url(#paint0_linear_352_207)"/>
<defs>
<linearGradient id="paint0_linear_352_207" x1="647.353" y1="-1.77759" x2="647.353" y2="675.277" gradientUnits="userSpaceOnUse">
<stop stop-color="white"/>
<stop offset="1" stop-color="white" stop-opacity="0"/>
</linearGradient>
</defs>
</svg>
