<svg width="1445" height="826" viewBox="0 0 1445 826" fill="none" xmlns="http://www.w3.org/2000/svg">
<g clip-path="url(#clip0_352_653)">
<path d="M405.721 958.195C404.148 956.62 406.353 952.026 409.016 951.329C412.264 950.478 415.369 953.764 414.2 956.813C413.398 958.907 407.407 959.882 405.721 958.195ZM396.521 945.25C395.995 943.15 394.075 940.865 392.255 940.172C389.264 939.034 388.961 938.037 389.101 929.79C389.186 924.773 388.746 917.661 388.123 913.987C387.269 908.955 387.558 906.205 389.292 902.847C392.262 897.098 392.291 887.604 389.345 885.157C386.517 882.807 387.033 875.856 390.468 870.037C391.877 867.65 393.036 864.721 393.044 863.527C393.051 862.334 394.028 859.496 395.213 857.221C397.371 853.079 400.985 841.237 403.014 831.662C404.28 825.686 403.873 807.422 402.179 794.207C401.041 785.334 400.698 784.715 394.485 780.348C386.589 774.797 375.7 759.785 375.701 754.449C375.701 753.577 373.262 750.814 370.282 748.308C365.403 744.207 364.877 743.089 365.002 737.096C365.083 733.184 366.098 729.379 367.462 727.871C368.738 726.458 370.211 722.622 370.734 719.346C371.397 715.197 372.897 712.493 375.678 710.435C380.056 707.194 380.193 703.515 376.264 694.724C374.204 690.115 374.192 690.111 369.15 692.22C364.239 694.274 363.982 694.215 359.928 690.062C357.634 687.714 355.368 686.182 354.892 686.659C354.415 687.136 354.025 686.501 354.025 685.248C354.025 683.995 351.131 681.137 347.594 678.896C344.057 676.656 340.385 673.368 339.434 671.59C337.182 667.377 326.668 662.482 320.381 662.718C315.102 662.917 290.445 651.94 290.445 649.391C290.445 648.618 289.633 647.972 288.639 647.955C286.566 647.92 279.758 638.702 278.269 633.914C277.717 632.142 275.072 628.063 272.39 624.849C269.707 621.635 266.435 616.575 265.117 613.605C262.399 607.477 256.614 602.506 253.564 603.678C251.8 604.355 251.797 605.265 253.54 610.211C255.469 615.683 259.7 623.289 261.679 624.841C263.306 626.117 264.677 632.074 263.343 632.074C260.297 632.074 249.996 616.933 247.769 609.183C246.472 604.667 243.717 599.182 241.647 596.994C239.578 594.806 238.428 593.016 239.092 593.016C240.185 593.016 236.294 589.067 228.901 582.674C225.114 579.399 220.477 573.502 219.815 571.12C218.589 566.703 217.091 545.746 217.752 542.261C218.143 540.203 217.832 536.237 217.063 533.447C216.026 529.687 216.197 527.106 217.724 523.47C220.631 516.549 219.402 513.602 210.349 505.777C202.462 498.96 200.554 495.95 195.746 482.734C194.375 478.966 192.363 475.144 191.274 474.239C190.186 473.335 189.295 472.01 189.295 471.294C189.295 470.579 187.583 467.404 185.491 464.239C182.598 459.863 180.74 458.483 177.738 458.483C175.567 458.483 172.137 457.181 170.116 455.59C168.095 453.999 165.179 452.697 163.634 452.697C159.726 452.697 152.337 450.217 143.494 445.938C139.364 443.94 135.4 442.667 134.684 443.109C133.969 443.552 133.324 445.99 133.252 448.526C133.134 452.698 131.135 455.509 128.244 455.568C126.526 455.603 126.973 452.052 129.427 446.174C132.233 439.45 130.302 436.533 125.937 440.903C121.306 445.539 118.694 451.663 119.514 455.96C120.076 458.903 119.587 460.153 117.572 460.922C116.09 461.488 111.439 464.751 107.235 468.173C103.032 471.596 98.6971 474.396 97.6021 474.396C96.5071 474.396 95.3375 475.21 95.0028 476.204C94.6682 477.199 93.9168 475.478 93.333 472.38C92.7492 469.282 91.3432 465.818 90.2085 464.682C89.0738 463.546 88.1454 461.117 88.1454 459.284C88.1454 451.383 86.2579 446.756 82.1722 444.641C79.8003 443.413 78.0304 441.313 78.0304 439.726C78.0304 438.202 77.4039 436.568 76.6381 436.094C74.9888 435.073 80.1015 429.562 82.7267 429.53C83.7201 429.518 87.1339 428.606 90.3129 427.504C95.3723 425.749 96.1469 424.883 96.5256 420.559C96.9025 416.254 96.3418 415.286 92.17 413.037C89.5364 411.617 85.7654 410.687 83.7898 410.969C78.9298 411.665 73.2844 406.477 73.9295 401.909C74.3334 399.048 75.1359 398.527 78.5682 398.894C80.8509 399.138 84.3435 400.404 86.3297 401.707C89.6858 403.908 90.0672 403.903 91.7312 401.625C92.7159 400.276 94.2627 399.173 95.1685 399.173C96.0743 399.173 96.8154 397.546 96.8154 395.557C96.8154 392.664 96.0929 391.94 93.2029 391.94C91.2161 391.94 89.5904 391.319 89.5904 390.56C89.5904 388.314 82.2975 381.686 80.8271 382.595C80.0837 383.055 79.4665 382.58 79.4557 381.538C79.4449 380.497 79.0632 378.254 78.6076 376.554C77.9191 373.985 78.9429 372.886 84.6684 370.044C88.4575 368.164 92.5331 364.934 93.7253 362.867C94.9176 360.801 98.7199 357.608 102.175 355.774C107.629 352.877 108.915 352.683 111.931 354.299C113.842 355.323 116.516 355.734 117.874 355.212C119.232 354.69 121.831 355.24 123.65 356.433C125.469 357.626 129.766 358.998 133.2 359.482C136.634 359.966 141.719 361.17 144.5 362.158C147.282 363.146 152.083 363.724 155.17 363.442C158.811 363.11 162.11 363.813 164.562 365.444C166.642 366.827 169.318 368.111 170.51 368.298C171.703 368.485 174.11 370.301 175.86 372.333C180.056 377.205 183.738 376.999 188.17 371.643C192.176 366.802 199.467 364.051 204.766 365.383C207.845 366.156 208.127 365.847 207.499 362.38C207.023 359.752 207.514 358.241 209.031 357.658C211.6 356.671 213.565 359.116 214.809 364.847C215.865 369.716 217.4 370.831 220.587 369.046C222.969 367.711 229.578 369.563 236.258 373.437C237.847 374.359 241.424 375.491 244.205 375.952C248.064 376.592 249.375 377.576 249.735 380.104C250.026 382.148 251.686 383.945 254.07 384.795C256.195 385.554 259.659 387.146 261.768 388.334C267.577 391.605 269.656 391.021 274.738 384.69C279.025 379.349 279.809 378.96 284.56 379.816C287.4 380.327 290.505 381.365 291.46 382.123C292.415 382.88 294.423 383.11 295.921 382.634C297.59 382.104 300.698 383.164 303.948 385.372C309.091 388.865 309.304 388.891 310.975 386.212C312.219 384.217 313.763 383.662 316.531 384.216C321.483 385.208 326.57 379.164 326.57 372.29C326.57 368.511 325.5 366.678 321.513 363.634C316.283 359.64 314.732 353.74 318.041 350.427C320.849 347.616 327.57 352.676 327.713 357.709C327.78 360.071 328.431 362.392 329.161 362.867C329.89 363.343 331.268 366.133 332.224 369.067C333.396 372.667 334.951 374.549 337.008 374.853C338.983 375.146 340.624 377.005 341.673 380.137C344.237 387.797 347.734 388.806 352.732 383.328C355.033 380.806 356.915 377.589 356.915 376.18C356.915 372.681 358.006 371.866 361.474 372.774C363.834 373.392 364.258 374.356 363.605 377.624C363.157 379.867 363.41 382.086 364.168 382.554C365.648 383.47 365.339 388.329 363.696 389.974C363.146 390.525 362.695 392.495 362.695 394.351C362.695 397.081 361.924 397.727 358.666 397.727C356.45 397.727 352.061 399.051 348.912 400.669C345.764 402.287 341.882 403.29 340.286 402.899C336.588 401.992 332.546 404.314 334.53 406.206C335.318 406.957 337.21 407.798 338.733 408.074C340.257 408.35 341.753 409.326 342.057 410.242C342.671 412.085 334.768 416.532 330.878 416.532C323.804 416.532 317.283 427.257 315.721 441.463C315.219 446.025 314.203 450.132 313.464 450.59C311.755 451.647 311.77 455.689 313.494 458.417C314.621 460.201 315.369 460.227 318.432 458.586C323.878 455.668 326.57 457.453 326.57 463.983C326.57 470.474 327.676 472.139 330.454 469.831C333.516 467.287 339.149 470.573 341.538 476.297C343.319 480.565 344.409 481.304 350.064 482.08C360.055 483.451 364.515 485.928 363.42 489.499C362.918 491.138 362.225 493.455 361.881 494.648C361.512 495.927 363.476 498.49 366.665 500.891L372.074 504.964L375.332 501.172C377.656 498.467 378.59 495.536 378.59 490.951C378.59 487.415 378.648 484.359 378.719 484.16C380.605 478.829 380.791 470.151 379.137 464.649C377.576 459.457 377.473 455.942 378.664 448.484C381.245 432.313 381.271 432.241 384.045 433.624C385.416 434.308 390.277 435.671 394.847 436.653C399.959 437.752 403.156 439.187 403.156 440.384C403.156 441.454 403.848 442.561 404.694 442.843C405.54 443.125 406.599 446.096 407.048 449.445C407.76 454.764 408.665 456.004 414.2 459.251C421.166 463.338 423.386 462.978 423.386 457.76C423.386 453.046 425.77 451.93 426.828 456.149C427.301 458.036 430.296 463.879 433.484 469.132C436.672 474.385 439.281 479.067 439.281 479.536C439.281 480.881 442.618 483.6 447.28 486.051C451.076 488.048 451.555 489.04 451.492 494.779C451.392 503.849 445.475 510.56 437.577 510.56C434.519 510.56 430.823 509.814 429.364 508.902C423.871 505.468 411.825 512.202 411.825 518.707C411.825 520.865 412.436 521.926 413.353 521.359C414.193 520.839 416.333 520.779 418.109 521.226C420.445 521.812 421.322 523.084 421.279 525.816C421.229 528.926 422.209 529.939 426.818 531.542C435.055 534.407 435.789 535.689 432.135 540.827C430.085 543.709 427.729 545.278 425.455 545.278C421.386 545.278 421.112 544.213 424.087 539.961C425.997 537.231 425.985 536.797 423.978 536.026C420.105 534.538 409.263 541.984 397.881 553.947C394.202 557.814 390.526 560.737 388.234 561.618C386.813 562.164 385.777 564.206 385.723 566.57C385.461 577.996 384.717 579.85 377.895 586.065C368.547 594.582 366.591 598.8 367.676 608.099C368.252 613.043 367.88 617.247 366.594 620.309C364.651 624.934 364.6 624.954 361.379 622.343C358.45 619.968 358.309 619.303 359.967 615.66C361.088 613.197 361.276 611.23 360.446 610.633C359.696 610.093 358.367 608.35 357.492 606.758C355.209 602.608 346.015 602.036 341.939 605.791C339.353 608.174 337.168 608.564 328.46 608.195C316.303 607.681 310.04 610.244 306.07 617.358C301.524 625.505 304.58 644.524 310.693 646.125C312.273 646.538 313.565 647.421 313.565 648.087C313.565 649.561 321.869 651.981 325.852 651.668C327.439 651.543 331.464 649.625 334.796 647.406C338.128 645.188 341.541 643.798 342.382 644.318C344.612 645.698 344.25 650.243 341.743 652.326C336.568 656.626 340.354 662.452 348.324 662.452C355.956 662.452 361.706 668.055 360.82 674.631C360.459 677.312 359.774 680.139 359.296 680.912C357.767 683.389 363.62 687.404 367.134 686.288C368.894 685.728 372.739 686.065 375.678 687.036C380.169 688.52 381.737 688.432 385.5 686.484C387.963 685.209 391.133 682.209 392.543 679.818C393.954 677.427 395.615 675.471 396.233 675.471C397.852 675.471 396.837 680.591 394.709 683.157C393.475 684.647 393.385 685.64 394.428 686.285C396.501 687.567 402.062 685.668 403.999 683.017C405.239 681.32 407.093 681.1 412.674 681.988C416.579 682.609 422.397 682.983 425.605 682.82C432.23 682.483 437.984 686.123 441.458 692.85C443.094 696.017 445.479 697.501 451.905 699.352C461.58 702.138 467.461 707.036 471.264 715.474C473.085 719.513 475.318 721.952 478.076 722.915C480.333 723.703 484.522 726.406 487.385 728.922C492.353 733.29 492.849 733.419 498.308 731.782C506.393 729.357 513.297 731.037 517.849 736.537C519.937 739.061 521.645 741.771 521.645 742.561C521.645 743.351 523.06 745.505 524.789 747.347C527.806 750.562 527.845 750.973 525.761 757.566C523.94 763.329 523.063 764.377 520.317 764.068C518.072 763.815 516.805 764.61 516.286 766.599C515.869 768.194 514.846 769.499 514.011 769.499C513.177 769.499 512.901 769.907 513.4 770.406C513.898 770.904 513.234 773.346 511.925 775.83C510.616 778.315 509.069 784.242 508.488 789.001C507.316 798.601 502.822 804.217 496.311 804.217C494.147 804.217 491.882 805.637 490.375 807.941C488.806 810.337 487.017 811.423 485.351 810.987C479.991 809.583 478.626 812.382 474.764 832.693C473.911 837.178 471.228 841.828 469.495 841.828C468.684 841.828 466.669 845.083 465.018 849.061C463.366 853.039 461.153 856.294 460.099 856.294C459.045 856.294 456.514 854.504 454.475 852.316C451.342 848.953 450.548 848.674 449.344 850.508C448.561 851.701 448.236 854.956 448.623 857.741C449.063 860.912 448.389 864.696 446.818 867.867C444.789 871.965 443.487 872.93 439.989 872.93C435.414 872.93 433.174 874.347 431.738 878.149C431.254 879.428 428.778 880.891 426.235 881.401C421.652 882.318 421.62 882.384 422.6 888.929C423.743 896.558 422.42 898.848 415.099 901.91C410.584 903.799 410.27 904.336 411.128 908.698C411.641 911.303 412.405 915.216 412.827 917.394C413.342 920.057 412.296 923.836 409.631 928.939C407.452 933.111 404.913 939.137 403.99 942.33C401.968 949.321 397.937 950.897 396.521 945.25V945.25ZM330.185 551.065C330.454 551.065 331.753 547.81 333.073 543.832C334.393 539.854 335.941 536.599 336.513 536.599C338.646 536.599 341.02 540.18 341.02 543.398C341.02 545.228 341.713 546.725 342.56 546.725C345.443 546.725 349.69 543.737 349.69 541.709C349.69 540.597 350.991 539.274 352.58 538.769C357.732 537.132 355.659 533.953 346.865 530.002C340.618 527.196 337.912 525.093 336.993 522.332C335.971 519.265 334.77 518.5 330.787 518.377C328.071 518.293 324.181 517.762 322.144 517.196C317.161 515.814 310.38 520.894 313.279 523.839C314.314 524.89 317.565 525.75 320.504 525.75C324.896 525.75 325.928 526.312 326.297 528.906C326.544 530.643 325.731 534.028 324.491 536.429C323.25 538.83 322.235 542.172 322.235 543.855C322.235 548.573 325.047 552.851 327.522 551.9C328.718 551.441 329.917 551.065 330.185 551.065ZM298.492 500.623C297.963 496.939 297.4 492.167 297.239 490.018C296.793 484.031 294.409 482.403 289.521 484.747C284.496 487.159 283.416 491.09 287.485 492.156C290.341 492.903 291.255 495.886 290.649 502.484C290.509 504.009 291.834 506.791 293.594 508.666C296.447 511.707 296.938 511.819 298.123 509.699C298.854 508.391 299.02 504.307 298.492 500.623ZM253.624 453.985C264.309 445.16 265.097 443.398 259.017 441.917C256.831 441.384 253.994 439.593 252.712 437.935C249.024 433.166 246.618 435.964 247.635 443.841C248.561 451.013 247.825 453.095 243.844 454.565C240.547 455.783 240.567 459.93 243.871 459.93C245.276 459.93 249.665 457.255 253.624 453.985H253.624ZM230.212 417.762C231.948 416.848 233.856 415.383 234.452 414.508C235.199 413.411 235.966 413.587 236.92 415.074C238.512 417.553 240.551 416.099 243.325 410.506C244.247 408.649 246.447 406.922 248.215 406.667C250.183 406.384 251.43 405.19 251.43 403.59C251.43 400.218 249.035 398.302 242.807 396.692C238.695 395.629 236.623 396.017 231.247 398.858C219.504 405.062 215.171 411.291 223.03 410.671C228.343 410.252 228.712 410.64 226.384 414.197C223.183 419.089 224.813 420.607 230.212 417.762V417.762ZM1290.06 941.325C1286.37 936.778 1288.65 932.801 1300.84 922.475C1305.47 918.559 1308.79 919.19 1308.46 923.922C1308.04 929.841 1307.81 930.641 1306.83 929.657C1306.34 929.164 1304.99 929.707 1303.84 930.862C1302.68 932.018 1300.45 932.963 1298.87 932.963C1297.29 932.963 1296.38 933.584 1296.85 934.343C1298.08 936.344 1296.21 942.764 1294.16 943.551C1293.2 943.921 1291.35 942.919 1290.06 941.325ZM1302.66 928.64C1303.16 927.82 1302.58 927.578 1301.3 928.072C1298.79 929.033 1298.34 930.07 1300.42 930.07C1301.16 930.07 1302.17 929.427 1302.66 928.64ZM1203.48 922.264C1201.01 921.016 1200.21 919.571 1200.58 916.99C1200.85 915.034 1201.18 913.333 1201.3 913.21C1201.76 912.736 1206 912.376 1209.19 912.54C1212.13 912.69 1212.48 913.348 1212.08 918.006C1211.58 923.892 1209.12 925.11 1203.48 922.264ZM1316.69 907.468C1315.67 906.373 1315.27 905.478 1315.79 905.478C1316.32 905.478 1315.99 904.56 1315.06 903.437C1313.85 901.975 1313.81 901.118 1314.95 900.417C1315.82 899.879 1316.23 897.557 1315.87 895.257C1315.22 891.094 1315.23 891.086 1318.65 893.575C1320.54 894.95 1322.11 897.154 1322.13 898.471C1322.16 900.148 1323.04 900.64 1325.07 900.111C1328.9 899.108 1328.74 901.796 1324.74 905.803C1320.83 909.713 1319.12 910.068 1316.69 907.468V907.468ZM1200.8 895.967C1197.07 894.673 1195.22 894.634 1193.77 895.819C1191.74 897.473 1189.72 895.678 1182.87 886.116C1181.36 884.003 1178.57 881.885 1176.67 881.408C1174.64 880.899 1173.31 879.569 1173.45 878.182C1174.35 868.867 1171.08 866.643 1164.67 872.207C1160.39 875.926 1159.1 875.851 1157.56 871.786C1155.42 866.146 1151.84 864.296 1143.16 864.341C1137.4 864.372 1132.43 865.574 1126.04 868.482C1118.58 871.877 1115.73 872.448 1109.42 871.811C1105.24 871.388 1099.07 871.759 1095.72 872.635C1092.37 873.512 1089.19 873.792 1088.65 873.259C1088.12 872.725 1087.5 869.626 1087.26 866.37C1087.03 863.115 1086.1 859.551 1085.18 858.449C1084.27 857.347 1083.19 854.296 1082.79 851.669C1082.39 849.041 1080.9 845.589 1079.49 843.998C1077.53 841.79 1077.2 840.098 1078.11 836.852C1078.87 834.18 1078.73 831.9 1077.76 830.722C1076.89 829.674 1076.69 827.721 1077.32 826.296C1077.93 824.894 1078.33 823.272 1078.21 822.693C1077.86 821.026 1085.95 817.328 1091.98 816.396C1105.5 814.303 1107.4 813.54 1109.79 809.235C1111.09 806.873 1113.31 804.718 1114.71 804.446C1116.12 804.174 1119.08 801.918 1121.3 799.432C1124.66 795.67 1125.7 795.217 1127.51 796.727C1132.15 800.577 1135.5 799.81 1142.57 793.287C1146.38 789.768 1150.64 786.882 1152.03 786.874C1153.42 786.865 1154.56 786.265 1154.56 785.54C1154.56 784.119 1156.27 784.227 1161.48 785.978C1164.39 786.957 1164.74 787.906 1164.37 793.846C1163.95 800.564 1163.98 800.617 1170.45 803.658C1181.37 808.789 1184.77 809.152 1186.2 805.338C1186.87 803.528 1186.88 801.696 1186.21 801.266C1184.6 800.239 1186.76 792.264 1188.83 791.574C1189.71 791.28 1190.85 792.36 1191.37 793.974C1191.88 795.588 1194.37 798.359 1196.91 800.132C1202.89 804.312 1203.64 805.496 1203.66 810.815C1203.68 814.18 1205.22 816.665 1210.08 821.168C1213.6 824.427 1216.78 826.795 1217.14 826.43C1218.07 825.497 1226.8 836.331 1226.8 838.421C1226.8 839.367 1227.56 840.392 1228.48 840.698C1230.91 841.509 1232.2 853.184 1230.6 859.911C1229.84 863.093 1227.7 867.964 1225.85 870.734C1223.99 873.505 1222.47 877.262 1222.47 879.084C1222.47 882.365 1212.55 894.485 1208.11 896.631C1206.87 897.232 1203.58 896.932 1200.79 895.967H1200.8ZM726.696 861.189C723.976 857.908 719.589 845.656 717.175 834.595C716.741 832.606 715.585 830.328 714.608 829.532C711.617 827.099 708.491 819.736 707.649 813.146C707.21 809.703 705.863 805.794 704.657 804.46C700.797 800.189 700.274 788.683 703.427 777.362C705.892 768.51 706.022 766.478 704.396 762.173C703.363 759.44 700.807 752.696 698.715 747.187C696.623 741.679 693.863 736.404 692.582 735.467C690.684 734.077 690.426 732.115 691.187 724.829L692.119 715.896L687.903 715.052C685.583 714.587 682.367 712.978 680.756 711.475C679.145 709.972 677.218 708.743 676.475 708.743C675.733 708.743 674.75 707.766 674.293 706.573C673.204 703.733 666.227 703.784 662.124 706.661C658.697 709.064 652.136 708.67 643.458 705.541C639.942 704.273 637.934 704.284 635.081 705.585C627.795 708.908 623.171 707.748 616.304 700.874C612.776 697.342 609.511 692.948 609.049 691.11C608.586 689.271 605.984 686.31 603.265 684.529C596.069 679.815 593.964 674.863 595.418 666.068C596.075 662.09 596.652 655.06 596.699 650.446C596.799 640.732 599.245 635.114 606.902 627.011C609.91 623.828 612.809 619.76 613.345 617.969C613.881 616.179 614.91 614.715 615.631 614.715C618.448 614.715 626.037 604.916 629.074 597.356C632.516 588.787 632.104 588.961 644.218 590.952C649.211 591.773 651.567 591.361 655.929 588.907C660.39 586.397 664.241 585.764 676.962 585.447C691.695 585.081 692.597 585.225 693.677 588.133C694.392 590.059 694.051 592.686 692.764 595.17C689.639 601.2 690.088 601.695 698.678 601.695C703.059 601.695 707.774 602.252 709.154 602.932C710.534 603.612 714.731 605.151 718.48 606.352C724.861 608.396 725.453 608.364 727.735 605.839C730.437 602.85 732.843 602.478 736.609 604.467C743.562 608.139 750.052 610.329 755.835 610.955C759.356 611.337 764.031 612.09 766.223 612.629C768.415 613.168 772 612.866 774.191 611.958C780.895 609.178 787.032 594.312 783.53 589.339C781.715 586.763 771.247 584.313 763.683 584.695C756.632 585.051 756.446 584.955 755.969 580.72C755.7 578.333 754.876 575.649 754.138 574.755C751.546 571.618 754.45 569.031 765.159 564.938C775.23 561.089 776.483 560.925 783.552 562.531C797.237 565.641 799.008 565.864 802.679 564.941C808.297 563.53 807.159 559.095 799.085 550.926C795.112 546.906 791.86 542.433 791.86 540.986C791.86 538.376 789.179 536.599 785.24 536.599C783.916 536.599 783.19 538.171 783.19 541.039C783.19 544.817 782.705 545.411 779.939 545.017C777.82 544.716 776.523 543.391 776.215 541.212C775.954 539.373 774.811 537.511 773.675 537.075C770.547 535.873 764.888 540.264 763.758 544.769C763.207 546.967 761.502 549.645 759.968 550.721C758.303 551.889 757.18 554.367 757.18 556.877C757.18 562.091 752.23 566.977 746.948 566.977C742.842 566.977 741.285 569.173 741.285 574.966C741.285 580.058 739.153 580.448 734.187 576.264C731.248 573.789 728.969 569.881 727.486 564.774C725.474 557.844 724.56 556.707 718.737 553.885C715.161 552.152 711.219 549.181 709.977 547.283C707.119 542.917 702.27 542.653 702.27 546.863C702.27 551.698 707.471 557.706 714.53 561.028C721.51 564.313 722.282 565.604 718.934 568.385C717.767 569.355 716.869 570.574 716.938 571.094C717.666 576.612 713.14 577.417 711.785 572.011C711.282 570.006 709.423 566.652 707.654 564.557C703.878 560.084 690.462 546.725 689.747 546.725C689.476 546.725 686.829 548.027 683.863 549.618C680.897 551.209 676.385 552.511 673.835 552.511C669.17 552.511 664.7 556.612 664.7 560.893C664.7 562.824 661.189 567.129 659.695 567.029C659.269 567.001 658.283 566.977 657.505 566.977C656.726 566.977 654.688 569.744 652.976 573.125C649.718 579.558 647.559 581.737 645.626 580.541C644.994 580.15 642.636 580.918 640.386 582.248C636.599 584.488 635.96 584.493 631.756 582.317C626.225 579.454 624.383 576.268 624.498 569.763C624.545 567.037 624.285 563.14 623.919 561.102C623.552 559.064 623.81 555.888 624.492 554.043C625.612 551.012 626.319 550.787 631.849 551.703C647.849 554.353 647.093 554.563 648.202 547.155C649.355 539.462 646.601 533.28 641.684 532.52C640.037 532.266 638.69 531.226 638.69 530.21C638.69 527.354 643.796 522.133 646.589 522.133C651.917 522.133 659.01 517.15 673.14 503.481C687.072 490.004 687.82 488.976 687.82 483.33C687.82 474.891 691.526 476.794 692.726 485.849L693.645 492.787L703.132 493.674C710.501 494.363 713.404 494.046 716.132 492.257C718.377 490.784 721.181 490.261 723.906 490.807C728.768 491.78 729.761 490.741 731.979 482.355C733.475 476.7 733.658 476.566 739.927 476.566C746.203 476.566 746.353 476.456 746.822 471.508C747.437 465.02 749.019 463.22 755.924 461.149C764.102 458.696 765.874 455.988 761.474 452.666C756.58 448.97 751.597 448.304 745.244 450.495C738.616 452.781 738.04 452.078 737.434 440.966C737.056 434.026 737.689 431.333 741.321 424.421C746.527 414.513 747.518 407.485 743.816 406.718C739.947 405.917 732.81 414.784 734.77 417.958C735.62 419.335 724.591 430.998 722.438 430.998C720.99 430.998 718.128 439.641 718.602 442.581C718.796 443.78 720.077 446.366 721.45 448.327C724.145 452.18 724.793 459.235 722.578 460.606C721.825 461.071 719.074 465.341 716.464 470.094C713.854 474.847 710.994 478.736 710.108 478.736C707.72 478.736 703.715 473.821 703.715 470.889C703.715 467.358 699.146 459.93 696.973 459.93C695.992 459.93 694.669 460.744 694.033 461.738C693.398 462.733 691.771 464.414 690.418 465.475C688.281 467.149 687.378 466.81 683.554 462.893C681.132 460.413 679.15 456.909 679.15 455.106C679.15 453.304 678.396 451.074 677.474 450.151C676.552 449.228 675.918 445.091 676.064 440.955C676.35 432.862 677.244 431.659 686.737 426.596C692.121 423.725 697.914 416.226 700.099 409.299C700.727 407.31 702.447 404.832 703.923 403.793C705.398 402.753 706.605 400.671 706.605 399.166C706.605 397.662 709.722 392.654 713.531 388.037C717.341 383.421 721.594 377.212 722.982 374.239C725.736 368.346 730.113 365.186 733.644 366.543C734.881 367.018 739.219 365.556 743.285 363.294C748.843 360.203 752.74 359.146 758.987 359.037C768.393 358.872 769.748 360.932 764.154 366.894L761.012 370.242H766.216C770.047 370.242 772.171 371.197 774.262 373.858C776.261 376.401 778.509 377.475 781.84 377.475C784.444 377.475 787.809 378.592 789.316 379.957C790.823 381.323 794.362 383.764 797.181 385.382C800.646 387.371 802.902 390.09 804.148 393.779C805.829 398.755 805.737 399.412 803.095 401.264C801.502 402.381 799.232 402.924 798.051 402.47C796.87 402.016 795.39 402.477 794.763 403.494C793.173 406.068 785.378 402.543 783.056 398.199C781.562 395.404 777.293 393.437 772.353 393.266C771.558 393.239 770.543 394.719 770.097 396.556C769.474 399.118 770.317 400.669 773.709 403.21C778.575 406.855 780.046 409.571 780.199 415.195C780.309 419.223 785.461 424.738 788.97 424.584C790.163 424.531 791.35 422.989 791.61 421.156C791.896 419.137 793.582 417.252 795.887 416.375C797.98 415.578 801.344 413.084 803.363 410.833C806.671 407.144 811.039 405.717 821.122 405.033C823.227 404.89 822.169 401.035 819.315 398.45C815.843 395.304 815.609 391.518 818.696 388.427C822.048 385.072 823.65 385.647 823.65 390.205C823.65 398.412 831.418 400.569 835.446 393.48C838.718 387.723 856.885 378.981 856.885 383.163C856.885 386.335 862.97 386.372 866.321 383.221C868.746 380.94 870.75 380.27 873.264 380.902C876.001 381.59 877.813 380.749 881.31 377.168C885.643 372.731 886.062 372.611 891.823 374.15C895.123 375.032 898.627 375.445 899.609 375.068C901.897 374.189 903.081 369.706 903.106 361.829C903.117 358.395 903.777 354.366 904.574 352.875C905.569 351.015 905.531 349.861 904.454 349.194C903.52 348.616 904.688 347.126 907.34 345.511C909.791 344.02 911.795 342.139 911.795 341.331C911.795 339.013 919.912 339.623 921.961 342.095C923.362 343.785 923.405 344.732 922.138 346C919.722 348.419 920.099 360.106 922.757 365.179C926.164 371.68 926.425 383.507 923.34 391.576C920.953 397.821 920.325 398.411 916.482 398.027C909.96 397.373 907.825 400.922 910.881 407.338C912.751 411.264 913.91 412.225 915.812 411.429C917.179 410.856 920.249 409.961 922.633 409.438C927.915 408.281 936.36 396.568 936.36 390.398C936.36 385.293 939.153 378.921 941.391 378.921C942.471 378.921 943.163 382.378 943.335 388.622C943.482 393.957 944.211 398.931 944.954 399.676C946.808 401.531 956.59 396.752 956.59 393.992C956.59 392.807 955.613 390.345 954.418 388.52C953.223 386.694 951.989 382.531 951.675 379.268C950.941 371.638 949.984 370.223 945.796 370.57C941.314 370.941 935.188 367.594 934.106 364.183C931.681 356.533 931.135 342.646 933.12 339.095C934.404 336.798 934.753 336.951 936.539 340.598C937.633 342.832 939.503 345.095 940.695 345.627C953.445 351.314 954.421 352.307 954.468 359.619C954.528 368.872 955.657 370.605 960.255 368.508C963.069 367.224 963.82 365.796 963.835 361.692C963.847 358.836 964.208 355.186 964.639 353.58C965.188 351.533 963.705 348.742 959.672 344.237C955.12 339.152 954.21 337.273 955.307 335.222C956.069 333.797 957.157 332.582 957.725 332.523C964.605 331.807 968.659 329.168 968.835 325.292C968.856 324.835 970.499 322.069 972.485 319.143C974.785 315.756 976.87 314.114 978.221 314.624C979.389 315.064 979.949 315.028 979.464 314.543C978.98 314.058 981.275 310.635 984.566 306.936C996.934 293.034 995.915 293.653 1005.17 294.418C1012.55 295.029 1014.05 295.702 1017.59 299.995C1020.49 303.517 1022.42 304.663 1024.54 304.108C1029.1 302.914 1031.68 298.273 1030.28 293.791C1029.62 291.682 1028.69 288.166 1028.21 285.978C1027.34 282.015 1027.37 282 1035.29 282C1042.63 282 1043.31 282.283 1044.18 285.749C1044.98 288.968 1045.65 289.354 1048.9 288.478C1056.01 286.563 1062.33 287.153 1063.85 289.873C1064.64 291.292 1066.56 293.726 1068.12 295.283C1070.74 297.904 1070.78 298.37 1068.68 301.579C1067.43 303.484 1066.41 306.322 1066.41 307.884C1066.41 311.218 1064.4 313.268 1056.4 318.094C1053.16 320.044 1050.52 322.438 1050.52 323.415C1050.52 324.392 1049.57 326.134 1048.42 327.288C1046.7 329.008 1046.66 329.838 1048.17 331.908C1049.9 334.274 1050.37 334.208 1055.7 330.834C1058.83 328.856 1062.26 326.191 1063.32 324.912C1065.07 322.81 1065.76 322.796 1070.48 324.771C1073.35 325.973 1076.05 327.43 1076.47 328.008C1076.9 328.587 1079.36 330.799 1081.95 332.924C1085.58 335.913 1087.71 336.622 1091.34 336.056C1093.92 335.654 1100.05 336.277 1104.95 337.44C1113.68 339.509 1113.99 339.479 1118.97 336.093C1124.4 332.401 1127.1 331.73 1127.1 334.077C1127.1 334.873 1128 335.524 1129.1 335.524C1132.38 335.524 1135.57 341.912 1136.05 349.445L1136.49 356.499L1144.58 356.033C1149.14 355.77 1156.13 356.575 1160.62 357.88C1168 360.027 1174.18 359.745 1172.68 357.329C1172.33 356.758 1172.94 354.565 1174.03 352.456C1175.12 350.346 1176.23 347.204 1176.49 345.474C1176.74 343.744 1178.07 341.63 1179.43 340.775C1181.41 339.533 1182.76 340.042 1186.17 343.313C1190.47 347.432 1199.99 349.567 1201.71 346.793C1202.86 344.924 1210.89 346.967 1214.08 349.942C1215.56 351.322 1217.04 353.853 1217.37 355.566C1218.25 360.145 1219.13 361.121 1223.82 362.758C1227.21 363.943 1229.15 363.683 1233.52 361.454C1242.05 357.099 1246.05 358.18 1247.26 365.17C1247.88 368.782 1253.29 371.755 1260.59 372.5C1263.68 372.815 1268.43 374.389 1271.15 375.997C1273.87 377.605 1276.91 378.921 1277.9 378.921C1278.9 378.921 1281.91 380.549 1284.61 382.538C1290.78 387.098 1297.61 387.445 1297.61 383.198C1297.61 381.572 1299.2 378.529 1301.13 376.437L1304.66 372.632L1312.11 376.5C1316.2 378.627 1320.69 380.368 1322.08 380.368C1323.48 380.368 1325.85 381.736 1327.37 383.409C1330.06 386.389 1338.07 391.234 1338.07 389.883C1338.07 389.506 1339.94 389.851 1342.23 390.649C1345.47 391.779 1346.57 393.234 1347.22 397.213C1347.67 400.024 1348.75 403.176 1349.61 404.216C1351.26 406.207 1356.86 405.534 1356.86 403.344C1356.86 401.222 1362.27 401.91 1364.7 404.34C1368.04 407.683 1367.49 410.977 1362.73 416.195L1358.49 420.843L1347.61 415.071C1341.62 411.897 1335.75 409.299 1334.55 409.299C1333.35 409.299 1331.4 411.173 1330.21 413.464C1329.03 415.754 1326.99 418.041 1325.67 418.546C1323.7 419.303 1323.39 421.096 1323.88 428.808L1324.48 438.153L1317.55 440.648C1313.73 442.02 1310.62 443.594 1310.62 444.146C1310.62 444.699 1309.02 445.55 1307.08 446.039C1305.13 446.528 1302.68 448.714 1301.64 450.898C1299.96 454.387 1298.92 454.867 1292.98 454.867C1287.14 454.867 1285.65 455.522 1281.86 459.767C1277.99 464.106 1276.89 464.569 1272.25 463.814C1265.37 462.698 1261.48 465.113 1262.29 469.984C1265.15 487.063 1263.18 495.384 1255.27 499.672C1252.73 501.049 1249.67 504.226 1248.48 506.73C1246.03 511.876 1242.53 512.731 1241.69 508.391C1240.39 501.626 1241 491.629 1242.87 489.326C1244.21 487.674 1244.27 487.218 1243.06 487.946C1242.07 488.544 1241.26 488.343 1241.26 487.5C1241.26 485.808 1244.24 482.066 1250.29 476.176C1252.47 474.047 1254.26 471.338 1254.26 470.157C1254.26 468.975 1256.48 465.702 1259.2 462.884C1261.92 460.066 1264.36 456.458 1264.62 454.867C1265.02 452.45 1264.38 452.033 1260.76 452.336C1258.38 452.535 1255.02 451.965 1253.29 451.069C1250.74 449.743 1249.4 449.983 1246.07 452.359C1240.99 455.983 1236.95 460.402 1234.84 464.641C1233.05 468.239 1227.33 469.29 1225.67 466.327C1223.64 462.686 1217.71 461.537 1213.53 463.973C1210.16 465.936 1208.86 465.979 1203.76 464.294C1199.38 462.848 1197.05 462.752 1194.64 463.921C1192.86 464.784 1189.76 465.843 1187.75 466.273C1182.67 467.362 1168.93 485.689 1167.56 493.209C1166.45 499.259 1167.49 501.144 1172.45 502.087C1174.24 502.428 1175.92 504.96 1177.37 509.517C1179.27 515.502 1179.31 517.807 1177.64 526.673C1176.58 532.307 1174.93 537.69 1173.99 538.637C1173.04 539.583 1171.26 542.278 1170.04 544.626C1167.2 550.039 1156.16 561.191 1153.64 561.191C1152.58 561.191 1149.11 562.238 1145.91 563.518C1140.95 565.508 1139.45 567.224 1135.57 575.349C1131.49 583.907 1131.21 585.328 1132.77 589.629C1134.28 593.826 1134.14 594.782 1131.59 597.518L1128.7 600.632L1127.76 596.906C1127.25 594.857 1127.26 592.487 1127.78 591.64C1128.82 589.948 1125.33 585.783 1122.87 585.783C1121.31 585.783 1120.91 584.449 1120.95 579.497C1120.96 577.383 1120.18 576.985 1117.17 577.586C1108.04 579.412 1107.6 579.344 1107.13 576.018C1106.86 574.072 1105.66 572.764 1104.16 572.764C1101.38 572.764 1092.42 581.335 1092.42 583.993C1092.42 586.26 1097.17 588.676 1101.63 588.676C1107.17 588.676 1107.51 591.15 1102.63 596.033C1098.45 600.222 1098.25 600.947 1098.92 609.224C1099.43 615.444 1100.44 618.685 1102.43 620.405C1105.13 622.756 1105.14 622.997 1102.64 628.536C1098.69 637.307 1087.5 648.94 1081.96 650.041C1079.37 650.556 1074.66 652.202 1071.5 653.7C1068.33 655.198 1065.1 656.028 1064.33 655.546C1062.74 654.564 1054.03 654.894 1050.15 656.084C1045.97 657.369 1047.23 671.76 1051.85 675.471C1054.35 677.479 1057.72 684.443 1058 688.2C1058.41 693.614 1054.42 699.753 1049.72 700.934C1046.7 701.692 1044.83 700.634 1038.9 694.809C1034.96 690.936 1031.73 686.91 1031.73 685.863C1031.73 684.642 1030.32 684.123 1027.79 684.416C1023.52 684.912 1019.42 690.88 1021.54 693.497C1022.21 694.324 1023.59 697.79 1024.6 701.201C1025.61 704.611 1027.86 708.934 1029.59 710.807C1034.37 715.97 1039.41 724.68 1038.28 725.815C1037.72 726.369 1035.39 724.545 1033.09 721.761C1030.79 718.977 1027.69 715.397 1026.2 713.806C1020.95 708.193 1019.84 704.252 1017.86 684.091C1016.75 672.742 1013.89 667.628 1009.88 669.78C1006.94 671.356 1004.28 670.511 1004.28 668C1004.28 667.167 1002.71 664.626 1000.8 662.352C998.89 660.079 997.067 657.44 996.75 656.487C996.433 655.534 991.982 654.244 986.858 653.62C977.756 652.511 977.449 652.584 973.432 656.814C971.171 659.195 966.81 662.73 963.74 664.669C958.144 668.206 954.948 672.439 954.121 677.413C953.877 678.878 952.708 681.464 951.522 683.159C950.336 684.854 949.365 687.116 949.365 688.185C949.365 691.248 939.549 700.971 938.123 699.321C937.444 698.536 936.023 694.313 934.967 689.937C933.91 685.561 931.516 679.714 929.646 676.944C927.776 674.173 926.245 670.105 926.245 667.902C926.245 665.7 925.608 663.898 924.828 663.898C924.048 663.898 923.001 662.265 922.501 660.269C921.949 658.07 920.231 656.299 918.138 655.773C916.212 655.289 914.685 653.831 914.685 652.475C914.685 649.785 903.732 640.01 898.509 638.038C896.677 637.347 891.639 636.354 887.315 635.832C876.684 634.548 873 633.582 866.697 630.422C863.748 628.943 859.641 627.734 857.571 627.734C851.617 627.734 848.235 625.126 845.301 618.275C842.532 611.806 840.978 610.873 831.598 610.037C826.552 609.588 826.445 611.646 831.019 621.134C832.53 624.267 833.765 628.01 833.765 629.452C833.765 631.4 834.879 632.074 838.1 632.074C841.727 632.074 842.435 632.648 842.435 635.587C842.435 642.687 850.932 646.484 853.995 640.753C855.761 637.451 861.22 636.815 861.22 639.912C861.22 641.04 863.496 643.372 866.278 645.093C869.06 646.814 871.318 648.983 871.296 649.912C871.227 652.922 861.231 662.499 855.001 665.525C851.666 667.145 847.963 668.969 846.77 669.578C845.578 670.186 841.027 671.483 836.655 672.458C832.284 673.434 827.35 674.89 825.691 675.694C824.032 676.498 820.804 676.939 818.518 676.675C815.107 676.281 814.184 675.325 813.379 671.349C812.839 668.685 810.11 664.128 807.315 661.223C804.52 658.319 801.215 653.664 799.971 650.879C798.727 648.094 794.242 639.306 790.005 631.35C783.489 619.115 781.76 616.884 778.792 616.884C773.84 616.884 773.517 621.081 778.014 626.983C780.43 630.154 781.745 633.718 781.745 637.091C781.745 639.957 782.752 643.839 783.982 645.718C785.212 647.597 786.519 650.796 786.887 652.827C787.255 654.858 789.5 658.651 791.876 661.255C794.437 664.063 796.195 667.579 796.195 669.895C796.195 673.075 797.134 674.11 801.253 675.471C804.035 676.39 806.363 677.905 806.428 678.838C806.492 679.771 806.655 683.138 806.789 686.32C807.026 691.936 807.172 692.093 811.729 691.653C814.312 691.403 816.425 691.868 816.425 692.687C816.425 695.847 821.761 697.169 826.023 695.065C828.294 693.944 832.042 692.561 834.35 691.992C838.472 690.976 838.53 691.044 837.579 695.8C837.047 698.463 836.066 701 835.399 701.438C834.732 701.875 833.278 703.983 832.169 706.122C829.94 710.421 818.411 723.918 806.59 736.065C796.142 746.801 794.428 751.217 796.87 761.094C797.915 765.319 800.304 772.899 802.179 777.937L805.588 787.099L799.808 792.02C796.629 794.727 792.89 796.951 791.499 796.963C790.108 796.974 788.97 797.635 788.97 798.431C788.97 799.226 788.065 799.877 786.958 799.877C784.047 799.877 783.132 803.384 784.133 810.699C784.981 816.89 784.83 817.219 779.768 820.209C776.884 821.912 774.87 823.865 775.292 824.549C775.714 825.233 773.471 830.947 770.307 837.246C762.283 853.223 748.867 863.189 738.209 861.09C736.12 860.679 733.969 861.059 733.428 861.935C732.009 864.233 728.937 863.892 726.696 861.189V861.189ZM853.964 585.841C856.439 581.212 854.12 567.26 850.165 562.989C848.298 560.972 846.77 558.153 846.77 556.725C846.77 555.297 846.12 553.726 845.325 553.235C841.706 550.995 844.169 549.295 849.741 550.187L855.601 551.125L855.16 544.339C854.776 538.436 854.126 537.223 850.166 535.016C845.984 532.686 844.862 532.651 836.357 534.593C828.84 536.31 826.639 537.487 824.652 540.855C821.442 546.296 821.563 549.88 825.095 553.958C826.685 555.793 827.985 558.473 827.985 559.915C827.985 561.357 829.891 564.71 832.221 567.366C835.854 571.509 836.345 573.03 835.67 578.069C834.999 583.074 835.382 584.292 838.258 586.309C843.091 589.698 852.045 589.431 853.964 585.841V585.841ZM881.664 555.766C884.734 550.413 886.088 540.877 884.116 538.499C883.25 537.454 880.661 536.599 878.362 536.599C875.198 536.599 873.488 537.741 871.32 541.3C867.667 547.297 867.717 549.091 871.697 554.944C875.662 560.774 878.65 561.021 881.664 555.766V555.766ZM816.425 822.249C816.425 821.027 815.404 818.467 814.155 816.559C812.361 813.818 812.231 812.444 813.535 810.004C814.443 808.306 815.073 804.845 814.936 802.312C814.529 794.772 814.715 794.501 821.483 792.795C826.792 791.457 827.985 790.555 827.985 787.882C827.985 782.497 832.061 777.951 836.434 778.458C839.824 778.85 840.223 779.463 839.882 783.745C839.67 786.409 837.744 792.268 835.603 796.764C833.462 801.261 831.559 805.917 831.373 807.11C829.882 816.722 827.445 821.482 823.271 822.939C817.429 824.977 816.425 824.876 816.425 822.249ZM1205.96 773.753C1204.43 772.209 1202.16 770.885 1200.9 770.812C1199.65 770.738 1195.7 770.502 1192.13 770.286C1181.13 769.624 1174.42 766.88 1165.42 759.36C1157.69 752.905 1154.86 751.417 1151.33 751.96C1150.75 752.05 1149.86 750.5 1149.37 748.515C1148.87 746.531 1147.88 744.907 1147.17 744.907C1146.47 744.907 1145.89 743.931 1145.89 742.737C1145.89 739.108 1152.04 740.272 1155.45 744.546C1158.43 748.276 1158.92 748.412 1163.39 746.727C1167.69 745.11 1168.67 745.277 1173.28 748.402C1176.09 750.312 1181.23 752.328 1184.69 752.883C1190.72 753.849 1194.04 756.088 1197.18 761.298C1197.98 762.614 1200.25 763.917 1202.24 764.191C1204.52 764.507 1206.6 766.248 1207.88 768.903C1209 771.22 1210.46 773.333 1211.13 773.598C1211.81 773.863 1212.36 774.677 1212.36 775.406C1212.36 777.62 1208.91 776.729 1205.96 773.753V773.753ZM1118.43 773.793C1118.43 773.023 1119.41 772.392 1120.6 772.392C1123.37 772.392 1123.37 773.296 1120.6 774.362C1119.41 774.82 1118.43 774.564 1118.43 773.793ZM1060.76 767.475C1053.37 765.218 1050.83 763.903 1052.57 763.235C1057.04 761.515 1066.56 762.204 1071.64 764.615C1075.58 766.487 1076.25 767.367 1074.93 768.954C1072.93 771.371 1073.82 771.464 1060.76 767.475V767.475ZM1100.37 757.926C1099.88 757.131 1099.83 755.897 1100.27 755.185C1100.71 754.473 1100.1 753.517 1098.91 753.06C1096.09 751.976 1096.1 746.354 1098.92 746.354C1100.25 746.354 1101.09 744.999 1101.09 742.841C1101.09 739.415 1104.4 734.781 1106.86 734.781C1109.53 734.781 1112.59 736.6 1111.87 737.763C1111.46 738.44 1110.16 738.63 1109 738.184C1105.92 736.998 1104.75 741.548 1107.45 744.25C1110.81 747.613 1110.46 754.617 1106.87 755.757C1105.28 756.262 1103.98 757.282 1103.98 758.024C1103.98 759.818 1101.49 759.751 1100.37 757.926V757.926ZM1039.01 751.478C1037.99 750.251 1036.1 749.226 1034.8 749.201C1031.35 749.133 1027.96 746.116 1026.74 742.008C1026.15 740.022 1022.32 735.372 1018.22 731.675C1014.13 727.978 1011.22 724.501 1011.75 723.949C1012.76 722.908 1030.39 732.055 1035.17 736.099C1038.78 739.156 1043.74 750.817 1042.12 752.44C1041.4 753.168 1040.07 752.758 1039.01 751.478V751.478ZM1070.38 745.307C1063.31 743.229 1062.91 742.548 1064.41 735.054C1065.09 731.621 1066.54 730.126 1070.84 728.404C1073.88 727.183 1077.01 725.026 1077.77 723.611C1078.53 722.196 1081.13 719.885 1083.54 718.476C1087.8 715.983 1087.99 715.996 1090.74 718.945C1094.91 723.425 1093.8 736.062 1088.64 742.829C1085.63 746.78 1084.4 747.494 1082.84 746.198C1081.55 745.128 1080.23 745.037 1079.05 745.938C1077.88 746.839 1074.85 746.619 1070.38 745.307V745.307ZM1128.55 736.228C1128.55 735.432 1129.2 734.781 1129.99 734.781C1130.79 734.781 1131.44 735.432 1131.44 736.228C1131.44 737.023 1130.79 737.674 1129.99 737.674C1129.2 737.674 1128.55 737.023 1128.55 736.228ZM1116.99 713.16C1112.61 712.031 1112.2 708.188 1116.39 707.588C1119.8 707.1 1123.95 711.11 1121.91 712.925C1121.19 713.566 1118.97 713.672 1116.99 713.16ZM947.943 706.934C947.954 705.94 948.524 704.243 949.207 703.163C950.795 700.655 952.886 703.565 951.706 706.642C950.721 709.213 947.912 709.431 947.943 706.934ZM1103.85 682.342C1102.62 678.977 1102.79 672.59 1104.14 671.757C1105.24 671.078 1105.49 671.297 1104.84 672.354C1104.27 673.273 1104.39 674.025 1105.11 674.025C1106.22 674.025 1109.76 680.128 1109.76 682.049C1109.76 682.718 1104.09 682.999 1103.85 682.342ZM495.156 666.18C494.675 664.925 494.649 662.939 495.099 661.766C495.811 659.906 496.202 659.92 498.15 661.869C500.139 663.861 500.145 664.343 498.207 666.284C496.269 668.224 495.935 668.213 495.156 666.18ZM1059.91 663.898C1060.4 663.103 1061.74 662.452 1062.88 662.452C1064.03 662.452 1064.97 663.103 1064.97 663.898C1064.97 664.694 1063.63 665.345 1061.99 665.345C1060.35 665.345 1059.42 664.694 1059.91 663.898ZM416.883 655.219C416.392 654.423 417.004 653.772 418.243 653.772C419.482 653.772 420.495 654.423 420.495 655.219C420.495 656.015 419.884 656.665 419.136 656.665C418.388 656.665 417.374 656.015 416.883 655.219ZM394.485 652.57C394.485 650.421 401.445 647.574 404.142 648.62C406.647 649.592 406.638 649.735 403.963 651.706C400.93 653.94 394.485 654.528 394.485 652.57ZM1102.54 650.156C1102.54 648.962 1103.19 647.986 1103.98 647.986C1104.78 647.986 1105.43 648.962 1105.43 650.156C1105.43 651.349 1104.78 652.326 1103.98 652.326C1103.19 652.326 1102.54 651.349 1102.54 650.156ZM377.145 646.528C377.145 644.787 375.602 643.774 372.073 643.201C369.283 642.748 365.919 641.294 364.597 639.97C362.915 638.286 360.749 637.798 357.386 638.344C354.743 638.773 352.58 638.515 352.58 637.769C352.58 637.023 353.068 636.364 353.664 636.303C354.26 636.242 356.048 635.852 357.638 635.437C365.364 633.417 371.003 633.363 372.939 635.291C374.06 636.408 378.392 638.548 382.564 640.046C386.737 641.545 390.15 643.509 390.15 644.412C390.15 645.314 387.224 646.722 383.648 647.542C377.873 648.864 377.145 648.751 377.145 646.528ZM1162.27 602.34C1161.83 601.19 1160.28 600.249 1158.82 600.249C1155.57 600.249 1154.37 598.553 1155.88 596.105C1156.9 594.444 1159.71 593.429 1164.11 593.126C1165 593.066 1169.03 589.762 1173.06 585.785C1177.28 581.626 1180.79 579.195 1181.33 580.062C1181.84 580.891 1181.47 582.518 1180.51 583.676C1179.55 584.835 1179.25 585.783 1179.83 585.783C1180.42 585.783 1179.85 587.387 1178.56 589.348C1177.28 591.309 1176.22 594.402 1176.21 596.22C1176.18 601.134 1174.65 602.602 1168.57 603.563C1164.51 604.204 1162.86 603.884 1162.27 602.34V602.34ZM706.083 579.273C705.625 578.08 705.476 577.103 705.751 577.103C706.026 577.103 707.061 578.08 708.05 579.273C709.087 580.524 709.228 581.443 708.382 581.443C707.575 581.443 706.54 580.467 706.083 579.273ZM686.375 570.594C686.375 569.4 686.631 568.424 686.943 568.424C687.256 568.424 687.886 569.4 688.343 570.594C688.8 571.787 688.545 572.764 687.775 572.764C687.005 572.764 686.375 571.787 686.375 570.594ZM1183.03 563.075C1181.13 562.58 1180.7 561.574 1181.41 559.265C1181.94 557.54 1182.46 556.015 1182.56 555.877C1182.67 555.739 1184.98 556.081 1187.69 556.637C1192.72 557.667 1195.69 561.191 1191.52 561.191C1190.27 561.191 1189.24 561.842 1189.24 562.637C1189.24 564.127 1187.54 564.247 1183.03 563.075V563.075ZM1189.04 544.317C1187.62 542.604 1187.07 537.138 1187.07 524.75C1187.07 500.433 1188.77 497.125 1191.39 516.347C1191.87 519.927 1193.22 524.31 1194.38 526.086C1196.27 528.976 1196.2 529.871 1193.65 534.621C1191.61 538.442 1191.2 540.652 1192.19 542.515C1194.04 545.96 1191.57 547.369 1189.04 544.317V544.317ZM451.728 525.658C451.251 524.414 450.28 523.756 449.569 524.195C448.859 524.635 447.581 524.153 446.729 523.125C445.595 521.758 445.933 520.015 447.989 516.632C449.534 514.088 451.452 512.007 452.252 512.007C454.632 512.007 462.4 520.911 462.4 523.639C462.4 528 453.286 529.723 451.728 525.658V525.658ZM640.989 510.56C641.555 507.776 642.103 504.108 642.206 502.409C642.31 500.711 643.112 498.433 643.989 497.346C645.743 495.172 644.072 488.862 641.742 488.862C640.985 488.862 639.937 486.913 639.415 484.531C638.892 482.148 637.502 479.66 636.326 479.001C634.164 477.79 634.141 472.391 636.284 468.971C637.837 466.491 643.979 466.688 644.961 469.249C645.401 470.397 645.406 473.525 644.973 476.201C644.354 480.019 644.972 482.003 647.846 485.422C649.86 487.819 651.939 491.499 652.466 493.601C652.993 495.703 654.336 498.18 655.45 499.106C657.963 501.194 658.092 506.824 655.67 508.748C654.676 509.537 651.264 510.653 648.087 511.228C644.909 511.802 641.781 513.027 641.135 513.948C640.489 514.87 640.423 513.345 640.989 510.56V510.56ZM622.121 500.182C623.107 495.657 629.029 486.905 630.266 488.143C630.578 488.456 630.58 491.369 630.271 494.616C629.812 499.433 628.912 500.934 625.39 502.757L621.073 504.992L622.121 500.182H622.121ZM189.295 489.5C189.295 488.259 189.946 487.647 190.74 488.138C191.535 488.63 192.185 489.645 192.185 490.394C192.185 491.142 191.535 491.755 190.74 491.755C189.946 491.755 189.295 490.74 189.295 489.5ZM181.348 475.842C180.857 475.047 181.143 474.396 181.985 474.396C182.827 474.396 183.515 475.047 183.515 475.842C183.515 476.638 183.229 477.289 182.878 477.289C182.528 477.289 181.839 476.638 181.348 475.842ZM490.226 445.526C481.944 443.513 482.492 444.563 472.847 412.193C471.544 407.817 469.96 403.618 469.329 402.862C466.554 399.542 468.2 389.164 472.515 382.762C477.898 374.777 477.922 372.848 472.689 368.44C467.984 364.476 465.824 359.404 468.213 357.926C469.09 357.383 471.071 358.084 472.615 359.483C474.16 360.882 475.822 361.627 476.31 361.139C477.948 359.499 475.333 349.989 473.244 349.989C472.128 349.989 470.594 348.881 469.837 347.526C468.693 345.48 468.08 345.379 466.216 346.928C462.653 349.888 460.955 347.501 460.955 339.53C460.955 334.52 460.141 331.234 458.429 329.34C456.821 327.562 455.867 324.076 455.804 319.753C455.75 316.018 455.203 312.147 454.588 311.151C453.974 310.156 452.716 306.314 451.794 302.615C450.533 297.554 449.013 295.244 445.656 293.288C440.957 290.549 430.183 289.675 422.415 291.402C418.314 292.314 417.592 291.957 415.551 288.006C414.297 285.577 413.27 283.232 413.27 282.795C413.27 282.358 451.554 282 498.345 282H583.419L584.548 286.701C586.292 293.959 585.577 298.357 582.247 300.872C578.886 303.41 578.662 311.956 581.974 311.293C584.651 310.757 584.165 313.028 580.988 315.906C579.452 317.298 578.546 319.352 578.975 320.47C579.862 322.785 580.063 322.74 564.789 323.709C559.409 324.05 558.271 328.003 563.03 329.814C566.24 331.036 566.664 331.871 565.934 335.526C565.245 338.977 565.701 340.127 568.288 341.462C574.244 344.535 578 348.99 578 352.98C578 357.595 574.473 359.532 571.87 356.346C567.746 351.298 564.933 348.543 563.912 348.552C563.316 348.557 561.682 350.577 560.282 353.04C558.709 355.805 556.953 357.218 555.691 356.733C553.448 355.872 549.995 359.082 551.521 360.61C552.044 361.134 554.292 361.562 556.515 361.562C559.08 361.562 561.124 362.62 562.105 364.455C563.118 366.35 565.131 367.349 567.936 367.349C571.164 367.349 572.22 368.018 572.22 370.065C572.22 373.808 569.631 375.624 561.783 377.385C557.567 378.331 553.027 380.773 549.559 383.962C546.525 386.751 542.742 389.04 541.153 389.048C538.694 389.061 533.006 395.479 526.287 405.821C525.721 406.693 523.326 408.32 520.964 409.438C518.005 410.838 515.945 413.436 514.336 417.795C513.053 421.273 510.497 425.256 508.658 426.645C506.403 428.348 505.564 430.127 506.08 432.105C507.132 436.131 501.327 446.128 497.764 446.427C496.196 446.558 492.804 446.153 490.226 445.526V445.526ZM419.243 431.957C417.787 430.198 415.888 429.792 412.013 430.413C406.924 431.227 406.573 430.986 400.962 422.808C395.479 414.816 394.827 414.347 388.82 414.081C375.372 413.486 377.885 401.69 391.742 400.366C396.495 399.912 396.654 399.694 396.7 393.596C396.726 390.13 395.971 386.23 395.021 384.93C393.471 382.808 392.904 382.986 389.496 386.667C385.987 390.458 385.456 390.608 382.506 388.65C376.008 384.338 379.083 380.329 389.301 379.79C393.998 379.542 393.336 376.716 388.142 374.836C385.424 373.852 382.839 372.102 382.395 370.946C381.941 369.76 380.621 369.216 379.368 369.698C377.925 370.252 377.145 369.719 377.145 368.18C377.145 365.607 371.766 362.961 368.818 364.084C367.815 364.466 366.058 364.001 364.914 363.051C363.77 362.101 361.472 361.756 359.807 362.285C357.58 362.993 354.986 361.796 349.984 357.752C346.246 354.73 342.664 351.584 342.023 350.762C341.382 349.939 341.191 344.709 341.598 339.14C342.237 330.395 342.876 328.548 346.279 325.601C350.061 322.325 350.298 322.294 352.164 324.849C353.327 326.44 353.755 329.123 353.23 331.517C352.046 336.911 355.844 336.926 360.486 331.546L363.919 327.567L365.425 331.184C368.487 338.534 370.811 340.22 377.06 339.624C380.286 339.316 382.925 339.444 382.925 339.909C382.925 340.373 386.224 340.754 390.255 340.754C398.9 340.754 400.667 342.602 399.431 350.351C398.639 355.319 398.851 355.776 401.945 355.777C406.891 355.779 416.16 365.84 416.16 371.206C416.16 373.54 415.48 376.131 414.648 376.963C413.596 378.017 415.063 379.214 419.479 380.902C422.978 382.239 426.644 384.864 427.655 386.754C428.662 388.639 432.015 391.176 435.105 392.391C439.064 393.947 440.478 395.243 439.891 396.774C439.433 397.969 439.803 400.342 440.714 402.046C443.324 406.927 440.15 409.572 432.264 409.086C424.596 408.614 423.662 410.05 426.345 418.19C427.828 422.688 427.844 424.215 426.424 425.617C425.015 427.008 424.24 426.846 422.768 424.85C420.797 422.181 416.16 421.362 416.16 423.683C416.16 424.434 417.52 426.001 419.182 427.167C420.844 428.332 421.982 430.423 421.711 431.814C421.255 434.153 421.07 434.164 419.243 431.957V431.957ZM352.967 423.44C347.421 419.533 347.141 417.209 351.548 411.696L354.836 407.582L361.656 410.899C366.849 413.425 368.475 415.009 368.475 417.544C368.475 419.955 367.644 420.872 365.456 420.872C363.795 420.872 361.357 422.19 360.037 423.802L357.638 426.731L352.967 423.44V423.44ZM588.838 421.979C587.248 421.045 583.347 419.925 580.168 419.491C574.512 418.719 574.378 418.566 573.934 412.358C573.367 404.43 574.705 403.018 580.776 405.136C584.302 406.367 585.797 406.375 586.543 405.167C587.097 404.269 590.441 403.14 593.974 402.657C599.555 401.893 600.929 402.271 604.444 405.537C609.187 409.943 608.761 411.163 599.9 418.539C592.915 424.354 592.891 424.361 588.838 421.979V421.979ZM836.041 379.096C835.593 378.371 836.199 377.405 837.386 376.948C838.574 376.492 839.545 376.711 839.545 377.435C839.545 379.396 836.978 380.613 836.041 379.096ZM257.572 372.466C248.18 368.124 247.855 365.336 256.488 363.16C260.755 362.084 262.99 360.736 262.99 359.238C262.99 357.351 261.43 357.042 253.959 357.451L244.928 357.946L245.415 349.989C246.086 339.031 248.299 336.125 257.473 334.156C264.341 332.681 265.278 332.79 267.28 335.29C268.497 336.811 271.281 338.474 273.467 338.987C275.652 339.499 277.465 340.72 277.496 341.699C277.527 342.679 279.64 344.792 282.192 346.396C284.745 348 287.025 350.643 287.259 352.27C287.493 353.897 289.603 356.363 291.947 357.749C296.88 360.666 298.538 365.515 296.569 371.265C295.463 374.493 294.49 375.175 291.731 374.658C286.603 373.697 274.437 373.882 269.493 374.996C266.383 375.698 263.013 374.982 257.572 372.466V372.466ZM308.508 374.581C307.226 372.505 308.991 370.234 311.844 370.288C314.905 370.345 319.624 373.821 318.36 375.086C316.882 376.565 309.499 376.187 308.508 374.581V374.581ZM858.981 360.227C858.226 359.492 855.669 358.679 853.3 358.419C847.626 357.796 844.977 351.478 848.674 347.388C850.012 345.909 851.126 343.448 851.151 341.919C851.177 340.391 852.092 337.958 853.186 336.513C854.87 334.291 855.625 334.168 858.097 335.713C860.311 337.098 860.688 338.156 859.654 340.091C858.785 341.716 858.839 344.895 859.801 348.847C862.53 360.059 862.735 361.562 861.538 361.562C860.886 361.562 859.736 360.961 858.981 360.227V360.227ZM1327.66 357.04C1325.84 355.428 1325.1 354.488 1326.03 354.951C1326.95 355.415 1327.93 355.155 1328.19 354.375C1328.88 352.36 1335.18 354.287 1335.18 356.513C1335.18 359.773 1331.09 360.06 1327.66 357.04ZM223.157 348.844C219.828 346.595 217.199 341.06 217.847 337.666C218.224 335.692 219.031 334.077 219.64 334.077C221.284 334.077 222.826 328.211 222.56 322.971C222.196 315.78 226.889 314.473 242.173 317.506C245.78 318.221 252.875 324.993 252.875 327.719C252.875 328.779 249.982 331.782 246.445 334.393C242.908 337.004 239.387 340.869 238.62 342.982C237.853 345.095 236.033 347.15 234.574 347.549C227.697 349.43 224.552 349.787 223.157 348.844V348.844ZM305.859 347.579C305.329 347.048 304.891 345.583 304.886 344.324C304.882 343.064 302.768 340.821 300.19 339.34L295.503 336.647L298.754 334.462C300.642 333.194 302.005 330.797 302.005 328.746C302.005 325.633 302.562 325.268 306.702 325.668C310.733 326.057 311.462 326.735 311.849 330.461C312.097 332.847 313.357 335.612 314.648 336.604C316.812 338.267 316.807 338.803 314.581 343.475C312.326 348.209 308.355 350.077 305.859 347.579H305.859ZM321.341 334.439C320.819 332.251 319.906 329.81 319.313 329.014C317.838 327.037 320.22 321.186 322.923 320.148C324.134 319.682 326.263 319.795 327.654 320.397C329.045 321 331.483 321.728 333.073 322.015C334.662 322.303 336.725 322.816 337.657 323.156C340.339 324.134 338.195 329.366 334.006 332.068C331.903 333.423 329.663 335.406 329.027 336.475C326.957 339.955 322.368 338.74 321.341 334.439V334.439ZM376.213 330.874C373.241 328.76 371.774 326.547 371.899 324.365C372.132 320.297 372.851 320.259 377.673 324.056C379.767 325.705 381.48 326.602 381.48 326.049C381.48 325.496 382.442 325.842 383.618 326.819C385.204 328.137 385.377 329.3 384.289 331.336C382.428 334.818 381.7 334.776 376.213 330.874V330.874ZM1181.25 328.227C1179.97 326.158 1183.24 322.504 1186.37 322.504C1189.07 322.504 1191.25 326.192 1189.88 328.421C1188.76 330.227 1182.4 330.084 1181.25 328.227V328.227ZM858.33 324.793C858.33 323.628 858.893 322.327 859.58 321.902C860.268 321.476 861.185 318.484 861.618 315.252C862.571 308.14 866.167 302.254 869.563 302.248C870.966 302.246 873.323 299.872 874.949 296.824C877.76 291.555 878.078 291.397 886.293 291.206C892.407 291.064 895.889 290.163 898.877 287.951C903.75 284.344 905.417 284.139 906.518 287.01C907.397 289.304 902.031 294.254 896.894 295.886C895.187 296.428 892.089 298.696 890.008 300.926C887.928 303.155 884.338 305.438 882.032 305.999C878.339 306.897 865.555 318.707 865.555 321.222C865.555 321.744 863.93 323.238 861.943 324.541C858.886 326.547 858.33 326.585 858.33 324.793V324.793ZM346.078 313.164C343.694 312.106 339.99 310.551 337.849 309.707C334.398 308.348 333.84 307.166 332.955 299.336C331.989 290.781 331.782 290.428 326.485 288.307C319.581 285.541 317.807 281.981 323.365 282.046C325.525 282.071 328.555 283.048 330.098 284.216C331.641 285.384 334.079 286.34 335.517 286.34C336.954 286.34 338.151 287.153 338.176 288.148C338.288 292.538 342.284 294.932 351.968 296.413C357.471 297.254 365.062 298.652 368.837 299.518C375.124 300.962 375.7 301.454 375.7 305.375C375.7 308.236 375.149 309.314 374.036 308.626C373.121 308.06 371.549 308.724 370.542 310.102C369.082 312.1 368.117 312.288 365.767 311.029C363.436 309.78 361.828 310.057 358.062 312.356C352.57 315.708 351.914 315.752 346.078 313.164V313.164ZM259.415 309.072L260.361 304.025L253.728 304.773C247.581 305.467 247.095 305.282 247.095 302.247C247.095 300.445 247.849 296.455 248.769 293.379C250.667 287.037 253.815 286.124 257.964 290.714C259.922 292.88 260.897 293.177 261.712 291.856C262.542 290.512 263.546 290.735 265.778 292.756C268.701 295.405 268.772 295.369 270.943 290.167C272.154 287.267 273.396 284.893 273.705 284.893C274.013 284.893 275.608 287.172 277.249 289.956C279.128 293.144 281.338 295.019 283.217 295.019C287.343 295.019 288.193 298.268 285.455 303.568C282.944 308.429 280.715 309.278 279.408 305.869C278.577 303.7 274.398 302.733 274.722 304.784C275.551 310.041 274.442 311.293 269.649 310.514C266.473 309.998 263.642 310.492 261.608 311.919C258.531 314.076 258.488 314.02 259.415 309.072V309.072ZM1170.67 311.111L1165.83 308.542L1170.67 303.468C1174.65 299.295 1176.57 298.383 1181.5 298.334C1186.49 298.284 1187.76 298.869 1189.1 301.818C1191.24 306.515 1190.06 308.039 1184.27 308.039C1181.16 308.039 1178.78 309.028 1177.49 310.859C1175.57 313.594 1175.36 313.602 1170.67 311.111V311.111ZM321.089 310.11C319.362 308.9 317.41 305.823 316.75 303.275C315.177 297.198 310.675 296.064 310.675 301.744V305.788L307.571 302.681C304.739 299.846 304.181 299.761 301.201 301.716C298.094 303.754 297.889 303.648 296.991 299.558C296.473 297.192 294.787 293.802 293.247 292.024C289.508 287.708 289.685 285.755 293.697 287.061C297.807 288.4 301.851 288.407 305.898 287.083C308.576 286.206 309.406 286.854 311.243 291.255C312.439 294.121 314.377 296.466 315.548 296.466C319.582 296.466 326.661 303.761 326.172 307.414C325.535 312.181 324.685 312.632 321.089 310.11V310.11ZM1204.41 309.485C1203.92 308.689 1204.82 308.039 1206.4 308.039C1207.99 308.039 1209.7 308.689 1210.19 309.485C1210.68 310.281 1209.78 310.932 1208.19 310.932C1206.6 310.932 1204.9 310.281 1204.41 309.485ZM370.088 288.429C366.368 285.295 365.221 284.987 362.569 286.407C360.288 287.63 358.51 287.66 356.01 286.52C348.886 283.27 352.375 281.889 366.652 282.309C378.298 282.652 380.802 283.13 381.175 285.079C381.628 287.45 378 292.126 375.708 292.126C375.031 292.126 372.502 290.462 370.088 288.429V288.429ZM232.931 288.94C231.979 287.987 231.2 286.036 231.2 284.604C231.2 282.468 232.414 282 237.944 282C241.653 282 244.413 282.163 244.078 282.362C243.743 282.561 241.487 284.512 239.065 286.698C235.645 289.785 234.275 290.286 232.931 288.94V288.94Z" fill="url(#paint0_linear_352_653)"/>
<ellipse cx="319.772" cy="328.436" rx="10.7037" ry="10.7099" fill="white"/>
<ellipse cx="319.773" cy="328.436" rx="25.4213" ry="25.436" fill="white" fill-opacity="0.35"/>
<ellipse cx="711.069" cy="401.081" rx="8.45029" ry="8.45517" fill="white"/>
<ellipse cx="711.069" cy="401.081" rx="20.0694" ry="20.081" fill="white" fill-opacity="0.35"/>
<ellipse cx="1115.07" cy="334.081" rx="8.45029" ry="8.45517" fill="white"/>
<ellipse cx="1115.07" cy="334.081" rx="20.0694" ry="20.081" fill="white" fill-opacity="0.35"/>
<g opacity="0.6">
<ellipse cx="508.069" cy="543.081" rx="8.45029" ry="8.45517" fill="white"/>
<ellipse cx="508.069" cy="543.081" rx="20.0694" ry="20.081" fill="white" fill-opacity="0.35"/>
</g>
<g opacity="0.6">
<ellipse cx="810.805" cy="427.057" rx="5.63353" ry="5.63678" fill="white"/>
<ellipse cx="810.805" cy="427.057" rx="13.3796" ry="13.3874" fill="white" fill-opacity="0.35"/>
</g>
<g opacity="0.6">
<ellipse cx="1246.6" cy="274.291" rx="5.63353" ry="5.63678" fill="white"/>
<ellipse cx="1246.6" cy="274.291" rx="13.3796" ry="13.3874" fill="white" fill-opacity="0.35"/>
</g>
</g>
<defs>
<linearGradient id="paint0_linear_352_653" x1="720.353" y1="282" x2="720.353" y2="959.054" gradientUnits="userSpaceOnUse">
<stop stop-color="white" stop-opacity="0.35"/>
<stop offset="1" stop-color="white" stop-opacity="0"/>
</linearGradient>
<clipPath id="clip0_352_653">
<rect width="1445" height="826" fill="white"/>
</clipPath>
</defs>
</svg>
