<svg width="21" height="21" viewBox="0 0 21 21" fill="none" xmlns="http://www.w3.org/2000/svg">
<g clip-path="url(#clip0_403_18)">
<path d="M0 0.00561523H20.625V20.8883H0V0.00561523ZM22.3438 0.00561523H42.9688V20.8883H22.3438V0.00561523ZM44.6875 0.00561523H65.3125V20.8883H44.6875V0.00561523ZM67.0312 0.00561523H87.6562V20.8883H67.0312V0.00561523ZM89.375 0.00561523H110V20.8883H89.375V0.00561523Z" fill="#00B67A"/>
<path d="M10.3125 14.0797L13.4492 13.2748L14.7598 17.3643L10.3125 14.0797ZM17.5312 8.79373H12.0098L10.3125 3.52954L8.61523 8.79373H3.09375L7.5625 12.0566L5.86523 17.3208L10.334 14.0579L13.084 12.0566L17.5312 8.79373ZM32.6563 14.0797L35.793 13.2748L37.1035 17.3643L32.6563 14.0797ZM39.875 8.79373H34.3535L32.6563 3.52954L30.959 8.79373H25.4375L29.9062 12.0566L28.209 17.3208L32.6777 14.0579L35.4277 12.0566L39.875 8.79373ZM55 14.0797L58.1367 13.2748L59.4473 17.3643L55 14.0797ZM62.2188 8.79373H56.6973L55 3.52954L53.3027 8.79373H47.7812L52.25 12.0566L50.5527 17.3208L55.0215 14.0579L57.7715 12.0566L62.2188 8.79373ZM77.3438 14.0797L80.4805 13.2748L81.791 17.3643L77.3438 14.0797ZM84.5625 8.79373H79.041L77.3438 3.52954L75.6465 8.79373H70.125L74.5938 12.0566L72.8965 17.3208L77.3652 14.0579L80.1152 12.0566L84.5625 8.79373ZM99.6875 14.0797L102.824 13.2748L104.135 17.3643L99.6875 14.0797ZM106.906 8.79373H101.385L99.6875 3.52954L97.9902 8.79373H92.4688L96.9375 12.0566L95.2402 17.3208L99.709 14.0579L102.459 12.0566L106.906 8.79373Z" fill="white"/>
</g>
<defs>
<clipPath id="clip0_403_18">
<rect width="20.6" height="20.9" fill="white"/>
</clipPath>
</defs>
</svg>
