<svg width="601" height="431" viewBox="0 0 601 431" fill="none" xmlns="http://www.w3.org/2000/svg">
<g clip-path="url(#clip0_401_11)">
<rect width="114" height="114" rx="24" transform="matrix(0.866025 -0.5 0.866025 0.5 352.316 219.042)" fill="#D1E7EF"/>
<rect x="364.553" y="211.041" width="172.969" height="9.69201" fill="#D1E7EF"/>
<rect width="114" height="114" rx="24" transform="matrix(0.866025 -0.5 0.866025 0.5 352.316 213.513)" fill="white"/>
<path d="M482.473 217.835L458.527 231.66C457.833 232.06 456.709 232.06 456.015 231.66C455.321 231.259 455.321 230.61 456.015 230.209L479.96 216.384C480.654 215.983 481.779 215.983 482.473 216.384C483.167 216.785 483.167 217.434 482.473 217.835V217.835ZM472.595 225.956C471.994 226.303 471.658 226.772 471.658 227.262C471.658 227.752 471.995 228.221 472.595 228.567C473.195 228.914 474.008 229.108 474.856 229.108C475.704 229.108 476.518 228.914 477.118 228.567C477.717 228.221 478.054 227.751 478.054 227.262C478.054 226.772 477.718 226.302 477.118 225.956C476.518 225.61 475.704 225.415 474.856 225.415C474.008 225.415 473.194 225.61 472.595 225.956ZM494.49 217.223L444.166 188.168C442.552 187.238 440.365 186.716 438.085 186.716C435.805 186.716 433.618 187.238 432.005 188.168L407.143 202.521C405.533 203.453 404.628 204.716 404.628 206.032C404.629 207.348 405.533 208.611 407.143 209.543L457.468 238.598C459.081 239.527 461.269 240.049 463.548 240.049C465.828 240.049 468.015 239.527 469.629 238.598L494.49 224.244C496.1 223.312 497.004 222.05 497.005 220.733C497.005 219.417 496.101 218.154 494.49 217.223ZM434.518 189.619C435.465 189.073 436.748 188.767 438.086 188.767C439.423 188.767 440.706 189.073 441.653 189.619L491.978 218.674C492.923 219.22 493.454 219.961 493.454 220.734C493.453 221.506 492.923 222.246 491.978 222.793L467.117 237.147C466.17 237.692 464.886 237.999 463.549 237.998C462.212 237.999 460.929 237.692 459.981 237.147L409.657 208.092C408.712 207.545 408.182 206.805 408.181 206.033C408.181 205.26 408.712 204.519 409.657 203.972L434.518 189.619Z" fill="#00B4DB"/>
<rect width="114" height="114" rx="24" transform="matrix(0.866025 -0.5 0.866025 0.5 95.1055 369.514)" fill="#D1E7EF"/>
<rect x="107.342" y="361.514" width="172.969" height="9.24951" fill="#D1E7EF"/>
<rect width="114" height="114" rx="24" transform="matrix(0.866025 -0.5 0.866025 0.5 95.1055 363.013)" fill="white"/>
<path d="M225.262 367.335L201.317 381.16C200.623 381.56 199.498 381.56 198.804 381.16C198.11 380.759 198.11 380.11 198.804 379.709L222.749 365.884C223.443 365.483 224.568 365.483 225.262 365.884C225.956 366.285 225.956 366.934 225.262 367.335V367.335ZM215.384 375.456C214.784 375.802 214.447 376.272 214.447 376.762C214.447 377.251 214.784 377.721 215.384 378.067C215.984 378.414 216.797 378.608 217.645 378.608C218.493 378.608 219.307 378.414 219.907 378.067C220.506 377.721 220.844 377.251 220.843 376.762C220.843 376.272 220.507 375.802 219.907 375.456C219.307 375.11 218.493 374.915 217.645 374.915C216.797 374.915 215.983 375.11 215.384 375.456ZM237.28 366.723L186.955 337.668C185.341 336.738 183.154 336.216 180.874 336.216C178.594 336.216 176.407 336.738 174.794 337.668L149.932 352.021C148.322 352.953 147.418 354.216 147.418 355.532C147.418 356.848 148.322 358.111 149.932 359.043L200.257 388.098C201.87 389.027 204.058 389.549 206.338 389.549C208.617 389.549 210.804 389.027 212.418 388.098L237.28 373.744C238.889 372.812 239.794 371.55 239.794 370.233C239.794 368.917 238.89 367.654 237.28 366.723ZM177.307 339.119C178.254 338.573 179.537 338.267 180.875 338.267C182.213 338.267 183.495 338.573 184.442 339.119L234.767 368.174C235.712 368.72 236.243 369.461 236.243 370.234C236.242 371.006 235.712 371.746 234.767 372.293L209.906 386.647C208.959 387.192 207.675 387.499 206.338 387.498C205.001 387.499 203.718 387.192 202.771 386.647L152.446 357.592C151.501 357.045 150.971 356.304 150.97 355.532C150.97 354.76 151.501 354.019 152.446 353.472L177.307 339.119Z" fill="#00B4DB"/>
<rect width="4.11805" height="4.11805" transform="matrix(-0.866025 -0.5 0.866025 -0.5 117.477 318.929)" fill="#00B4DB"/>
<rect width="4.11805" height="4.11805" transform="matrix(-0.866025 -0.5 0.866025 -0.5 79.1738 296.815)" fill="#00B4DB"/>
<rect width="4.11805" height="4.11805" transform="matrix(-0.866025 -0.5 0.866025 -0.5 130.244 326.3)" fill="#00B4DB"/>
<rect width="4.11805" height="4.11805" transform="matrix(-0.866025 -0.5 0.866025 -0.5 104.709 311.557)" fill="#00B4DB"/>
<rect width="4.11805" height="4.11805" transform="matrix(-0.866025 -0.5 0.866025 -0.5 66.4062 289.443)" fill="#00B4DB"/>
<rect width="4.11805" height="4.11805" transform="matrix(-0.866025 -0.5 0.866025 -0.5 91.9414 304.186)" fill="#00B4DB"/>
<rect width="4.11805" height="4.11805" transform="matrix(-0.866025 -0.5 0.866025 -0.5 53.6387 282.072)" fill="#00B4DB"/>
<rect width="4.11805" height="4.11805" transform="matrix(-0.866025 -0.5 0.866025 -0.5 66.4062 274.701)" fill="#00B4DB"/>
<rect width="4.11805" height="4.11805" transform="matrix(-0.866025 -0.5 0.866025 -0.5 79.1738 267.329)" fill="#00B4DB"/>
<rect width="4.11805" height="4.11805" transform="matrix(-0.866025 -0.5 -0.866026 0.5 375.207 170.128)" fill="#00B4DB"/>
<rect width="4.11805" height="4.11805" transform="matrix(-0.866025 -0.5 -0.866026 0.5 336.904 148.013)" fill="#00B4DB"/>
<rect width="4.11805" height="4.11805" transform="matrix(-0.866025 -0.5 -0.866026 0.5 387.975 177.499)" fill="#00B4DB"/>
<rect width="4.11805" height="4.11805" transform="matrix(-0.866025 -0.5 -0.866026 0.5 362.439 162.756)" fill="#00B4DB"/>
<rect width="4.11805" height="4.11805" transform="matrix(-0.866025 -0.5 -0.866026 0.5 324.137 140.642)" fill="#00B4DB"/>
<rect width="4.11805" height="4.11805" transform="matrix(-0.866025 -0.5 -0.866026 0.5 349.672 155.385)" fill="#00B4DB"/>
<rect width="4.11805" height="4.11805" transform="matrix(-0.866025 -0.5 -0.866026 0.5 311.369 133.271)" fill="#00B4DB"/>
<rect width="4.11805" height="4.11805" transform="matrix(-0.866025 -0.5 -0.866026 0.5 298.602 140.642)" fill="#00B4DB"/>
<rect width="4.11805" height="4.11805" transform="matrix(-0.866025 -0.5 -0.866026 0.5 285.834 148.013)" fill="#00B4DB"/>
<path opacity="0.2" d="M107.139 223.095H280.072L280.072 371.413L190.363 414.763L107.139 371.413L107.139 223.095Z" fill="url(#paint0_linear_401_11)"/>
<rect x="64.0664" y="207.763" width="240.5" height="9.5625" fill="#D1E7EF"/>
<rect width="160" height="160" rx="36" transform="matrix(0.866025 -0.5 0.866025 0.5 45.748 216.013)" fill="#D1E7EF"/>
<rect width="160" height="160" rx="36" transform="matrix(0.866025 -0.5 0.866025 0.5 45.748 208.513)" fill="white"/>
<path fill-rule="evenodd" clip-rule="evenodd" d="M121.723 220.349L157.12 214.746L174.017 224.501L202.452 220.341L209.651 203.938L193.866 195.081L204.949 172.326L248.481 197.459L231.857 236.383L165.267 245.49L121.723 220.349ZM199.748 194.168L215.467 202.988L206.76 222.828L172.419 227.852L155.571 218.124L131.791 221.889L166.903 242.161L227.541 233.868L242.692 198.391L207.568 178.112L199.748 194.168Z" fill="#00B4DB"/>
<path opacity="0.4" fill-rule="evenodd" clip-rule="evenodd" d="M119.463 192.954L151.287 189.334L159.214 170.004L196.807 165.727L178.582 205.141L110.14 215.69L119.463 192.954ZM117.25 211.466L174.307 202.672L189.586 169.629L163.531 172.592L155.604 191.922L123.78 195.543L117.25 211.466Z" fill="#00B4DB"/>
<path opacity="0.4" d="M64.6289 1.51331H304.629L304.629 207.353L180.129 267.513L64.6289 207.353L64.6289 1.51331Z" fill="url(#paint1_linear_401_11)"/>
<path opacity="0.2" d="M364.592 69.5133H537.525L537.525 217.832L447.816 261.181L364.592 217.832L364.592 69.5133Z" fill="url(#paint2_linear_401_11)"/>
<rect width="4.11805" height="4.11805" transform="matrix(0.866025 -0.5 0.866025 0.5 262.467 321.637)" fill="#00B4DB"/>
<rect width="4.11805" height="4.11805" transform="matrix(0.866025 -0.5 0.866025 0.5 275.234 314.266)" fill="#00B4DB"/>
<rect width="4.11805" height="4.11805" transform="matrix(0.866025 -0.5 0.866025 0.5 288.002 306.895)" fill="#00B4DB"/>
<rect width="4.11805" height="4.11805" transform="matrix(0.866025 -0.5 0.866025 0.5 300.77 299.523)" fill="#00B4DB"/>
<rect width="4.11805" height="4.11805" transform="matrix(0.866025 -0.5 0.866025 0.5 350.928 270.564)" fill="#00B4DB"/>
<rect width="4.11805" height="4.11805" transform="matrix(0.866025 -0.5 0.866025 0.5 338.16 277.936)" fill="#00B4DB"/>
<rect width="4.11805" height="4.11805" transform="matrix(0.866025 -0.5 0.866025 0.5 363.695 263.193)" fill="#00B4DB"/>
<rect width="4.11805" height="4.11805" transform="matrix(0.866025 -0.5 0.866025 0.5 376.463 255.822)" fill="#00B4DB"/>
<rect width="4.11805" height="4.11805" transform="matrix(-0.866025 -0.5 0.866025 -0.5 290.736 272.67)" fill="#00B4DB"/>
<rect width="4.11805" height="4.11805" transform="matrix(-0.866025 -0.5 0.866025 -0.5 303.504 280.042)" fill="#00B4DB"/>
<rect width="4.11805" height="4.11805" transform="matrix(-0.866025 -0.5 0.866025 -0.5 277.969 265.299)" fill="#00B4DB"/>
<rect width="4.11805" height="4.11805" transform="matrix(-0.866025 -0.5 0.866025 -0.5 265.201 257.928)" fill="#00B4DB"/>
<circle r="3.44166" transform="matrix(0.866025 -0.5 0.866025 0.5 322.661 288.766)" stroke="#00B4DB" stroke-width="3"/>
</g>
<defs>
<linearGradient id="paint0_linear_401_11" x1="193.605" y1="223.095" x2="193.605" y2="371.413" gradientUnits="userSpaceOnUse">
<stop stop-color="white" stop-opacity="0"/>
<stop offset="1" stop-color="white"/>
</linearGradient>
<linearGradient id="paint1_linear_401_11" x1="184.629" y1="1.51331" x2="184.629" y2="207.353" gradientUnits="userSpaceOnUse">
<stop stop-color="white" stop-opacity="0"/>
<stop offset="1" stop-color="white"/>
</linearGradient>
<linearGradient id="paint2_linear_401_11" x1="451.058" y1="69.5133" x2="451.058" y2="217.832" gradientUnits="userSpaceOnUse">
<stop stop-color="white" stop-opacity="0"/>
<stop offset="1" stop-color="white"/>
</linearGradient>
<clipPath id="clip0_401_11">
<rect width="601" height="431" fill="white"/>
</clipPath>
</defs>
</svg>
