<svg width="130" height="35" viewBox="0 0 130 35" fill="none" xmlns="http://www.w3.org/2000/svg">
<path d="M7.32301 13.8334L0 9.6512V24.9688L15.2828 34.4228L30.884 24.9688V9.6512L22.5196 14.3562L22.6058 20.4048L14.9644 24.9688L7.32301 20.4048V13.8334Z" fill="#00B4DB"/>
<path opacity="0.4" d="M0 4.82563L8.04271 0L15.442 4.82563L23.4847 0L30.884 4.82563L15.442 13.5118L0 4.82563Z" fill="#00B4DB"/>
<path d="M46.3521 17.9882L42.1107 7.85828H39.3105L46.3521 23.0738L53.3937 7.85828H50.5935L46.3521 17.9882Z" fill="#00B4DB"/>
<path d="M56.5733 22.2708H63.8413V20.1295H56.5733V22.2708ZM56.5733 9.99957H63.8413V7.85828H56.5733V9.99957ZM56.5733 15.5999H63.4295V13.4998H56.5733V15.5999ZM55.0702 7.85828V22.2708H57.4586V7.85828H55.0702Z" fill="#00B4DB"/>
<path d="M77.3539 7.85828V17.5353L66.8327 7.13766V22.2708H69.2211V12.5938L79.7422 22.9915V7.85828H77.3539Z" fill="#00B4DB"/>
<path d="M82.9383 7.85828V22.2708H85.409V7.85828H82.9383ZM87.5914 22.2708C89.0602 22.2708 90.3504 21.9757 91.4622 21.3855C92.5741 20.7815 93.4388 19.9442 94.0565 18.8736C94.6879 17.7892 95.0036 16.5195 95.0036 15.0646C95.0036 13.6096 94.6879 12.3468 94.0565 11.2761C93.4388 10.1917 92.5741 9.35444 91.4622 8.76421C90.3504 8.16026 89.0602 7.85828 87.5914 7.85828H84.4413V10.1437H87.5297C88.2434 10.1437 88.9023 10.2466 89.5063 10.4525C90.1102 10.6584 90.6318 10.9673 91.071 11.3791C91.524 11.7908 91.874 12.3056 92.1211 12.9233C92.3819 13.5409 92.5123 14.2547 92.5123 15.0646C92.5123 15.8744 92.3819 16.5882 92.1211 17.2058C91.874 17.8235 91.524 18.3383 91.071 18.75C90.6318 19.1618 90.1102 19.4707 89.5063 19.6766C88.9023 19.8825 88.2434 19.9854 87.5297 19.9854H84.4413V22.2708H87.5914Z" fill="#00B4DB"/>
<path d="M98.8779 22.2708H106.146V20.1295H98.8779V22.2708ZM98.8779 9.99957H106.146V7.85828H98.8779V9.99957ZM98.8779 15.5999H105.734V13.4998H98.8779V15.5999ZM97.3749 7.85828V22.2708H99.7633V7.85828H97.3749Z" fill="#00B4DB"/>
<path d="M107.696 10.1025H111.485V22.2708H113.935V10.1025H117.744V7.85828H107.696V10.1025Z" fill="#00B4DB"/>
<path d="M119.191 18.5647H126.809L126.336 16.5058H119.644L119.191 18.5647ZM122.959 11.935L125.244 17.2882L125.306 17.8853L127.262 22.2708H130.001L122.959 7.0553L115.917 22.2708H118.656L120.653 17.7618L120.694 17.2264L122.959 11.935Z" fill="#00B4DB"/>
</svg>
